<?xml version="1.0" encoding="UTF-8" standalone="no"?><!DOCTYPE svg PUBLIC "-//W3C//DTD SVG 1.1//EN" "http://www.w3.org/Graphics/SVG/1.1/DTD/svg11.dtd"><svg width="100%" height="100%" viewBox="0 0 56 56" version="1.1" xmlns="http://www.w3.org/2000/svg" xmlns:xlink="http://www.w3.org/1999/xlink" xml:space="preserve" xmlns:serif="http://www.serif.com/" style="fill-rule:evenodd;clip-rule:evenodd;"><g><rect id="canvas_background" x="-1" y="-1" width="58" height="58" style="fill:#fff;"/></g><g><path d="M12.253,3.816l31.482,-0.003c-0,0 0.038,14.917 -0,25.748c0.005,7.977 -9.852,16.778 -15.749,17.082c-6.54,-0.522 -15.733,-9.67 -15.733,-16.983l-0,-25.844Z" style="fill:#12375e;fill-rule:nonzero;"/><rect x="27.761" y="14.668" width="1.001" height="27.733" style="fill:#99daf8;"/><path d="M34.871,14.497c0.894,-0.004 2.339,0.005 3.276,0.005c0.291,0 0.768,-0.087 0.5,0.555c-0.235,0.568 -0.577,1.361 -0.724,1.702c-0.494,-0 -2.499,0.002 -2.504,-0.008c-0.159,-0.371 -0.386,-0.9 -0.679,-1.571c-0.155,-0.359 -0.23,-0.683 0.131,-0.683m-0.453,9.72l4.943,-0c1.459,-0 1.593,0.2 1.695,0.514c-0.062,-0.487 -0.376,-2.975 -0.595,-4.776c-0.057,-0.471 -0.223,-1.765 -0.875,-2.536c-0.206,-0.247 -0.304,-0.371 -0.748,-0.561c0.033,-0.097 0.437,-1.101 0.736,-1.91c0.155,-0.415 -0.011,-0.826 -0.328,-1.019c-0.275,-0.166 -0.629,-0.172 -0.88,-0.172c-1.694,-0 -3.003,0.002 -3.525,0.002c-0.905,0 -1.325,0.576 -1.048,1.271c0.209,0.527 0.56,1.426 0.718,1.837c-1.114,0.371 -1.482,1.891 -1.644,3.208c-0.268,2.22 -0.632,5.18 -0.659,5.358c-0.038,0.282 -0.086,0.514 0.378,0.536c0.878,0.056 1.903,0.063 3.629,0.018c0.168,0.094 0.383,0.153 0.665,0.143c0.282,-0.004 0.485,-0.079 0.632,-0.183c0.704,-0.024 1.506,-0.057 2.422,-0.094c-0.804,-0.019 -1.559,-0.043 -2.256,-0.061c0.25,-0.313 0.226,-0.74 0.202,-0.823c-0.105,1.157 -1.608,1.046 -1.236,-0.181c-0.161,0 -0.579,0 -0.845,0.218c-0.072,0.178 -0.047,0.478 0.123,0.725c-0.973,-0.041 -1.778,-0.076 -2.36,-0.11c-0.299,-0.015 -0.442,-0.23 -0.291,-0.429c0.629,-0.822 0.667,-0.975 1.147,-0.975" style="fill:#fecf39;fill-rule:nonzero;"/><path d="M28.028,42.281c-0,0.326 -0.218,0.591 -0.488,0.591c-0.267,0 -0.487,-0.265 -0.487,-0.591l-0,-2.752c-0,-0.322 0.22,-0.589 0.487,-0.589c0.27,-0 0.488,0.267 0.488,0.589l-0,2.752" style="fill:#fff;fill-rule:nonzero;"/><path d="M21.241,9.602c0.157,-0.064 0.38,-0.048 0.585,-0.048c-0.228,-0.189 -0.433,-0.263 -0.558,-0.296c-0.291,-1.101 -1.884,-0.802 -2.042,0.174c-0.056,0.353 -1.307,0.507 -2.742,2.426c-0.662,0.88 -1.574,1.644 -1.851,1.821c-0.277,0.173 0.4,0.122 0.712,-0.209c0.295,0.296 0.872,-0.593 1.74,-0.744c0.229,-0.036 3.115,-0.56 2.355,-2.213c1.015,1.308 -0.679,2.249 -1.747,2.352c0.094,0.05 0.65,0.094 0.713,0.118c0.16,0.056 -0.048,0.25 0.082,0.324c0.311,0.171 0.928,0.753 0.928,0.753c0,-0 0.351,-0.119 0.192,-0.278c-0.475,-0.312 -0.604,-0.409 -0.726,-0.604c-0.008,-0.011 -0.161,-0.301 0.152,-0.385c0.452,-0.037 1.931,-0.562 1.68,-2.416c-0.041,-0.293 0.165,-0.611 0.527,-0.775" style="fill:#e2a134;fill-rule:nonzero;"/><path d="M21.026,9.294c0,0.099 -0.072,0.175 -0.161,0.175c-0.085,-0 -0.159,-0.076 -0.159,-0.175c0,-0.094 0.074,-0.174 0.159,-0.174c0.089,0 0.161,0.08 0.161,0.174" style="fill:#12375e;fill-rule:nonzero;"/><path d="M28.747,42.733l0,-3.895" style="fill:none;fill-rule:nonzero;stroke:#fff;stroke-width:0.12px;"/><path d="M29.488,43.341c0.159,-0.166 0.254,-0.39 0.254,-0.639c0,-0.51 -0.414,-0.926 -0.926,-0.926l-1.576,-0c-0.513,-0 -0.929,0.416 -0.929,0.926c-0,0.241 0.091,0.454 0.239,0.618c-0.191,0.174 -0.53,0.503 -0.626,0.614c1.059,0.468 3.07,0.43 4.202,-0.007c-0.106,-0.092 -0.468,-0.423 -0.638,-0.586" style="fill:#fecf39;fill-rule:nonzero;"/><path d="M28.004,11.361c-0,0.024 -0.003,0.017 -0.003,-0.006c-0.684,-0.614 -2.883,-0.874 -4.297,-0.512c0.094,0.169 0.206,0.72 0.268,0.938c2.086,-0.694 4.029,0.321 4.029,0.321c0,-0.004 0,-0.013 0.001,-0.02c0,0.007 0,0.017 0.002,0.022c-0,0 1.943,-1.013 4.03,-0.318c0.058,-0.219 0.174,-0.766 0.267,-0.936c-1.415,-0.364 -3.612,-0.103 -4.297,0.511" style="fill:#99daf8;fill-rule:nonzero;"/><path d="M28.791,36.155l0,-21.488" style="fill:none;fill-rule:nonzero;stroke:#fff;stroke-width:0.07px;"/><path d="M27.567,34.605l0,-19.937" style="fill:none;fill-rule:nonzero;stroke:#fff;stroke-width:0.22px;"/><path d="M29.018,22.338c0.064,-0.233 0.094,-0.811 0,-0.992c-0.467,0 -1.193,0.006 -1.618,-0.006c0.97,0.353 1.618,0.998 1.618,0.998" style="fill:#12375e;fill-rule:nonzero;"/><path d="M25.524,40.09c0.556,0.084 3.548,0.225 3.548,0.225l0.488,1.269c-0,-0 -2.612,-0.069 -4.036,-1.494" style="fill:#12375e;fill-rule:nonzero;"/><path d="M37.763,30.995c-0.934,-0.604 -2.07,-0.139 -3.299,-1.17c0.004,3.199 2.336,3.842 1.024,4.695c-1.169,0.765 -2.301,0.954 -3.477,0.857c0.1,-0.16 0.277,-0.451 0.416,-0.595c-1.44,-0.186 -2.695,-0.081 -3.223,-0.02c-1.794,-0.526 -3.783,-1.192 -6.18,-1.229c0.435,0.355 0.863,0.97 0.863,2.03c-0.364,-1.431 -1.852,-2.18 -2.583,-2.465c-0.219,-0.083 -0.423,-0.12 -0.636,-0.156c-0.107,0.147 -0.34,0.393 -0.727,0.537c-0.222,-0.116 -0.403,0.092 -0.372,0.162c0.013,0.034 0.009,0.066 -0.019,0.101c-0.213,0.279 -0.916,0.146 -1.44,-0.036c-0.601,-0.207 -0.576,0.208 -0.461,0.416c0.19,0.335 0.372,0.551 0.461,0.736c0.801,1.635 1.393,2.709 3.167,3.723c1.687,1.243 3.807,1.884 5.963,1.958c0.785,0.282 2.593,0.78 4.856,0.419c-0.439,-0.298 -0.88,-0.59 -1.025,-0.885c2.878,-0.831 5.368,-2.721 6.386,-5.577c0.012,-0.031 0.023,-0.063 0.033,-0.094c0.182,-0.625 -0.423,-1.456 -1.283,-0.638c0.744,-1.789 1.977,-1.015 1.717,0.044c0.984,-1.323 2.299,-2.748 4.057,-3.286c-1.606,-0.742 -3.182,-0.1 -4.218,0.473" style="fill:#99daf8;fill-rule:nonzero;"/><path d="M29.048,28.204c0.066,-0.237 0.094,-0.814 -0,-0.991c-0.468,0 -1.193,0.007 -1.614,-0.008c0.965,0.354 1.614,0.999 1.614,0.999" style="fill:#12375e;fill-rule:nonzero;"/><path d="M29.728,26.319c-0,0.515 -0.42,0.929 -0.94,0.929l-1.598,-0c-0.519,-0 -0.939,-0.414 -0.939,-0.929c-0,-0.514 0.42,-0.927 0.939,-0.927l1.598,0c0.52,0 0.94,0.413 0.94,0.927" style="fill:#fecf39;fill-rule:nonzero;"/><path d="M28.761,26.932c-0.936,0.009 -1.743,0 -1.743,0c0,0 1.321,-0.08 2.157,-0.972c0.22,0.146 0.262,0.97 -0.414,0.972" style="fill:#e2a134;fill-rule:nonzero;"/><path d="M29.064,34.15c0.065,-0.232 0.093,-0.814 -0,-0.991c-0.468,0 -1.191,0.007 -1.616,-0.008c0.969,0.355 1.616,0.999 1.616,0.999" style="fill:#12375e;fill-rule:nonzero;"/><path d="M29.741,32.238c-0,0.515 -0.419,0.929 -0.938,0.929l-1.599,0c-0.52,0 -0.939,-0.414 -0.939,-0.929c-0,-0.514 0.419,-0.922 0.939,-0.922l1.599,-0c0.519,-0 0.938,0.408 0.938,0.922" style="fill:#fecf39;fill-rule:nonzero;"/><path d="M28.774,32.852c-0.939,0.008 -1.743,-0.002 -1.743,-0.002c0,0 1.318,-0.073 2.157,-0.973c0.22,0.149 0.264,0.971 -0.414,0.975" style="fill:#e2a134;fill-rule:nonzero;"/><rect x="26.586" y="16.173" width="2.825" height="2.774" style="fill:#fecf39;"/><path d="M29.412,18.943c-0.479,0.116 -0.447,0.519 -0.464,0.665c-0,0 -1.141,0.008 -1.888,0c0.004,-0.043 0.023,-0.591 -0.473,-0.665c0,0 2.644,0.003 2.825,0" style="fill:#e2a134;fill-rule:nonzero;"/><rect x="28.238" y="16.173" width="0.765" height="2.808" style="fill:#e2a134;"/><path d="M19.05,33.419c-0.141,-0.054 -0.219,-0.173 -0.256,-0.265c-0.093,-0.201 -0.089,-0.472 0.01,-0.728c0.099,-0.252 0.276,-0.457 0.484,-0.549c0.09,-0.038 0.226,-0.072 0.367,-0.02c0.209,0.084 0.327,0.316 0.327,0.594c-0,0.128 -0.025,0.266 -0.078,0.399c-0.095,0.255 -0.277,0.459 -0.481,0.551c-0.091,0.038 -0.228,0.076 -0.373,0.018m0.087,-1.878c-0.298,0.131 -0.545,0.404 -0.678,0.751c-0.136,0.349 -0.136,0.717 -0.007,1.016c0.097,0.216 0.262,0.38 0.466,0.46c0.201,0.076 0.435,0.065 0.652,-0.032c0.299,-0.128 0.545,-0.403 0.682,-0.748c0.241,-0.624 0.031,-1.283 -0.461,-1.475c-0.203,-0.08 -0.436,-0.069 -0.654,0.028" style="fill:#fecf39;fill-rule:nonzero;"/><path d="M19.556,33.32c-0.16,-0.051 -0.552,-0.165 -1.025,-0.181c-0.336,-0.01 -0.662,-0.203 -0.641,-0.302c0.019,-0.071 0.105,-0.108 0.245,-0.127c0.324,-0.046 1.025,-0.01 1.781,0.115c-0.062,0.181 -0.165,0.351 -0.36,0.495" style="fill:#99daf8;fill-rule:nonzero;"/><path d="M20.748,10.798c-0.011,1.41 -1.091,1.854 -1.402,1.935c0.103,-0.313 0.542,-1.774 1.402,-1.935" style="fill:#ee422d;fill-rule:nonzero;"/><path d="M29.751,20.428c-0,0.516 -0.419,0.933 -0.941,0.933l-1.596,0c-0.52,0 -0.941,-0.417 -0.941,-0.933c0,-0.509 0.421,-0.925 0.941,-0.925l1.596,0c0.522,0 0.941,0.416 0.941,0.925" style="fill:#fecf39;fill-rule:nonzero;"/><path d="M28.786,21.043c-0.939,0.01 -1.746,-0.001 -1.746,-0.001c0,0 1.321,-0.079 2.159,-0.974c0.221,0.151 0.263,0.972 -0.413,0.975" style="fill:#e2a134;fill-rule:nonzero;"/><path d="M22.526,33.88c1.018,0.681 1.361,1.684 1.361,1.684c0,-0 0.338,-0.839 -0.126,-1.49c0.928,-0.27 2.537,0.151 3.989,0.72c2.131,0.835 3.724,1.112 5.347,0.835c1.623,-0.276 2.477,-0.613 2.998,-1.422c0.278,-0.433 1.098,-0.342 0.867,0.307c-0.231,0.65 -1.239,2.504 -3.139,3.017c-1.901,0.508 -5.038,1.359 -9.675,0.199c-1.241,-0.311 -4.157,-1.085 -5.347,-2.616c-0.239,-0.306 -0.302,-0.878 -0.314,-0.967c-0.013,-0.112 0.059,-0.169 0.321,-0.123c0.817,0.144 0.971,-0.169 1.275,-0.513c0.336,-0.043 1.515,-0.248 2.443,0.369" style="fill:#fff;fill-rule:nonzero;"/><path d="M36.621,34.383c-1.418,2.695 -4.159,3.113 -7.027,3.201c-1.164,0.032 -2.327,-0.113 -3.327,-0.368c0.843,0.085 1.716,0.017 2.247,-0.168c-0.207,-1.082 -2.052,-1.866 -3.338,-1.935c-0.244,-0.278 -0.315,-0.64 -0.907,-0.849c0.419,0.382 0.384,0.918 0.592,1.194c1.054,0.215 2.338,0.484 2.958,1.311c-0.219,0.282 -2.124,0.126 -3.162,-0.112c-0.449,-0.165 -0.915,-0.435 -1.164,-0.918c-0.495,0.554 -1.283,0.355 -2.093,-0.048c-0.011,-0.317 -0.205,-0.592 -0.623,-0.673c0.09,0.136 0.114,0.28 0.115,0.398c-0.916,-0.529 -1.787,-1.172 -2.225,-1.139c-0.621,0.048 1.355,3.515 3.024,3.884c4.96,2.86 13.246,1.603 15.21,-3.222c0.277,-0.695 0.033,-1.149 -0.28,-0.556" style="fill:#1599d6;fill-rule:nonzero;"/><path d="M20.959,35.368c0.027,0.302 -0.21,0.574 -0.532,0.604c-0.32,0.038 -0.606,-0.186 -0.636,-0.49c-0.03,-0.304 0.207,-0.577 0.527,-0.608c0.322,-0.03 0.608,0.19 0.641,0.494" style="fill:#fff;fill-rule:nonzero;"/><path d="M20.679,35.426c-0,0.149 -0.138,0.267 -0.307,0.267c-0.165,0 -0.303,-0.118 -0.303,-0.267c0,-0.149 0.138,-0.272 0.303,-0.272c0.169,0 0.307,0.123 0.307,0.272" style="fill:#12375e;fill-rule:nonzero;"/><path d="M34.89,30.482c-0.341,1.174 1.114,2.757 1.114,2.757c-0,-0 -0.659,-2.053 -1.114,-2.757" style="fill:#fff;fill-rule:nonzero;"/><path d="M35.91,30.735c-0.499,0.686 0.44,2.251 0.44,2.251c-0,0 -0.051,-1.251 -0.44,-2.251" style="fill:#fff;fill-rule:nonzero;"/><path d="M37.485,32.52c0.396,-0.858 1.184,-1.715 2.02,-2.018c-1.741,0.212 -2.134,1.368 -2.02,2.018" style="fill:#fff;fill-rule:nonzero;"/><path d="M27.999,6.498c-0.734,-1.423 -1.783,-0.328 -3.624,-0.896c-0.324,1.504 -0.649,4.198 -0.741,4.661c1.256,0.377 2.362,-0.797 3.863,0.182c-0.161,-1.942 0.465,-3.561 0.465,-3.561c0,0 0.019,-0.237 0.037,-0.386" style="fill:#fff;fill-rule:nonzero;"/><path d="M28.004,6.492c-0.145,-0.251 -0.286,-0.465 -0.529,-0.604c-0.215,2.311 -0.27,2.813 -1.004,4.17c0.457,0.059 0.793,0.227 1.027,0.393c-0.162,-1.946 0.505,-3.472 0.505,-3.472c-0,-0 -0.004,-0.404 0.001,-0.487" style="fill:#99daf8;fill-rule:nonzero;"/><path d="M31.629,5.595c-1.84,0.569 -2.892,-0.526 -3.625,0.898c-0.001,0.485 -0.004,4.071 0.003,4.34c1.764,-1.647 2.973,-0.16 4.363,-0.578c-0.091,-0.462 -0.417,-3.154 -0.741,-4.66" style="fill:#fff;fill-rule:nonzero;"/><rect x="27.492" y="13.478" width="1.022" height="1.19" style="fill:#fecf39;"/><path d="M28.01,12.339l0.509,0.89l-1.032,0.004l0.523,-0.894Z" style="fill:#fecf39;fill-rule:nonzero;"/><path d="M19.404,15.85l-0,-0.006c-0.009,-0.003 -0.008,0.001 -0,0.006" style="fill:#0c9249;fill-rule:nonzero;"/><path d="M23.519,21.676c0,-0 1.403,-0.693 1.543,-1.405c-0.434,-0.418 -1.532,-0.464 -1.532,-0.464c-0,-0 1.261,-0.959 1.208,-1.654c-0.63,-0.294 -1.749,-0.122 -1.749,-0.122c0.519,-0.72 0.666,-1.291 0.647,-1.793c-0.656,-0.109 -1.666,0.278 -1.666,0.278c0,-0 0.34,-1.207 0.006,-1.834c-0.606,-0.161 -1.46,0.906 -1.46,0.906c-0,-0 -0.303,-1.32 -1.012,-2.022c-0.71,0.702 -1.023,2.022 -1.023,2.022c-0,-0 -0.853,-1.067 -1.461,-0.906c-0.329,0.627 0.008,1.834 0.008,1.834c-0,-0 -1.01,-0.387 -1.668,-0.278c-0.017,0.502 0.132,1.073 0.651,1.793c0,-0 -1.123,-0.172 -1.749,0.122c-0.053,0.695 1.206,1.654 1.206,1.654c0,-0 -1.097,0.046 -1.531,0.464c0.14,0.712 1.544,1.405 1.544,1.405c-0,-0 -0.836,0.171 -1.347,0.749c0.326,0.432 1.057,0.845 1.629,0.94c-0.495,0.398 -0.77,0.709 -0.896,0.941c0.804,0.649 2.487,0.741 4.172,0.217c0,0.322 0.005,2.922 -0.389,4.113l1.697,0c-0.392,-1.191 -0.388,-3.791 -0.388,-4.113c1.685,0.524 3.372,0.432 4.172,-0.217c-0.125,-0.232 -0.399,-0.543 -0.893,-0.941c0.571,-0.095 1.301,-0.508 1.625,-0.94c-0.51,-0.578 -1.344,-0.749 -1.344,-0.749" style="fill:#81c341;fill-rule:nonzero;"/><path d="M21.985,21.722c0.16,-0.087 0.974,-0.336 1.39,-1.063c-0.416,-0.404 -1.39,-0.419 -1.39,-0.419c-0,-0 0.867,-0.57 1.16,-1.424c-0.743,-0.216 -1.515,0 -1.515,0c-0,0 0.632,-0.897 0.711,-1.653c-0.711,0.077 -1.469,0.451 -1.469,0.451c0.216,-0.467 0.323,-1.129 0.231,-1.704c-0.355,0.071 -0.679,0.476 -0.872,0.729c-0.182,-0.575 -0.487,-0.758 -0.697,-0.873c-0.346,0.508 -0.416,0.839 -0.373,1.536c0.118,-0.115 0.303,-0.3 0.606,-0.473c0.183,0.994 -0.17,1.719 -0.17,1.719c-0,0 0.437,-0.286 1.018,-0.354c0.023,0.549 -0.178,1.118 -0.757,1.79c0,-0 0.51,-0.308 1.098,-0.355c-0.093,0.775 -0.566,1.291 -1.053,1.734c0.325,-0.155 0.882,-0.14 1.268,-0.016c-0.199,0.587 -0.659,0.882 -1.327,1.25c0.415,-0 0.84,0.055 1.08,0.216c-0.27,0.504 -0.927,0.743 -1.381,0.874c1.052,0.401 2.07,0.569 3.068,0.326c-0.071,-0.298 -0.448,-0.659 -0.89,-0.912c0.404,-0.093 1.004,-0.219 1.531,-0.667c-0.339,-0.341 -0.757,-0.571 -1.267,-0.712" style="fill:#10984c;fill-rule:nonzero;"/><path d="M16.348,44.515c0.238,0.796 -0.399,2.335 0.055,3.224c-0.387,-0.012 -2.84,0.436 -3.203,0.119c-0.357,-0.317 -1.312,-0.995 -0.357,-1.515c0.956,-0.516 3.372,-1.445 3.505,-1.828" style="fill:#99daf8;fill-rule:nonzero;"/><path d="M39.77,44.434c0.281,2.548 -0.146,2.835 -0.12,3.566c0.239,0.064 2.191,0.469 2.88,0.099c0.689,-0.372 1.167,-1.275 0.848,-1.646c-0.317,-0.373 -1.91,-1.381 -2.545,-1.487c-0.637,-0.109 -0.89,-0.343 -1.063,-0.532" style="fill:#99daf8;fill-rule:nonzero;"/><path d="M42.816,45.664c-1.059,-0.569 -2.634,-0.912 -3.522,-2.129c-0.334,1.225 0.474,1.929 0.441,3.73c0.751,-1.401 0.133,-1.744 0.26,-2.406c0.604,0.768 1.509,0.881 2.141,1.209c0.806,0.421 1.3,1.352 -0.368,1.346c-3.259,-0.006 -24.173,0.004 -27.504,0.004c-1.722,0 -1.218,-0.924 -0.412,-1.344c0.633,-0.329 1.549,-0.44 2.151,-1.232c0.125,0.663 -0.499,1.003 0.254,2.402c-0.033,-1.802 0.769,-2.474 0.451,-3.709c-0.89,1.217 -2.489,1.56 -3.551,2.129c-0.902,0.48 -0.905,0.8 -0.905,2.346c0,1.036 0.006,2.344 -0.004,3.219c-0.006,0.615 0.711,0.98 1.567,0.956l28.345,0c0.854,0.024 1.581,-0.331 1.581,-0.947c0.005,-0.879 -0.01,-2.201 0,-3.238c0.013,-1.588 -0.024,-1.856 -0.925,-2.336" style="fill:#12375e;fill-rule:nonzero;"/><path d="M13.828,48.753l0.607,0l0.422,1.174c0.009,0.025 0.033,0.119 0.068,0.282c0.041,-0.163 0.066,-0.257 0.076,-0.282l0.413,-1.174l0.611,0l-0.88,2.101l-0.435,-0l-0.882,-2.101" style="fill:#fff;fill-rule:nonzero;"/><path d="M16.645,50.853l-0,-2.1" style="fill:none;fill-rule:nonzero;stroke:#fff;stroke-width:0.57px;"/><path d="M18.665,50.072l-0.214,-0.695c-0.009,-0.035 -0.034,-0.126 -0.071,-0.282c-0.039,0.156 -0.065,0.247 -0.073,0.282l-0.212,0.695l0.57,0Zm-0.646,-1.318l0.717,0l0.724,2.099l-0.57,0l-0.105,-0.377l-0.812,0l-0.11,0.377l-0.567,0l0.723,-2.099" style="fill:#fff;fill-rule:nonzero;"/><path d="M20.593,48.753l0.608,0l0.42,1.174c0.01,0.025 0.031,0.119 0.07,0.282c0.037,-0.163 0.064,-0.257 0.073,-0.282l0.417,-1.174l0.606,0l-0.879,2.101l-0.435,-0l-0.88,-2.101" style="fill:#fff;fill-rule:nonzero;"/><path d="M23.105,48.753l1.286,0l-0,0.462l-0.729,-0l-0,0.365l0.686,0l0,0.448l-0.686,0l-0,0.356l0.729,-0l-0,0.47l-1.286,-0l0,-2.101Z" style="fill:#fff;fill-rule:nonzero;"/><path d="M25.559,49.746c0.239,0 0.354,-0.076 0.354,-0.262c-0,-0.217 -0.108,-0.288 -0.346,-0.288l-0.115,0l-0,0.55l0.107,0Zm-0.645,-0.993l0.635,-0c0.289,-0 0.513,0.004 0.694,0.142c0.151,0.118 0.232,0.295 0.232,0.516c0,0.322 -0.162,0.531 -0.467,0.597l0.571,0.845l-0.645,0l-0.482,-0.823l-0,0.823l-0.538,0l-0,-2.1" style="fill:#fff;fill-rule:nonzero;"/><path d="M27.389,50.853l-0,-2.1" style="fill:none;fill-rule:nonzero;stroke:#fff;stroke-width:0.57px;"/><path d="M28.446,49.251l-0.467,-0l0,-0.497l1.508,0l0,0.497l-0.469,-0l0,1.602l-0.572,0l-0,-1.602Z" style="fill:#fff;fill-rule:nonzero;"/><path d="M31.036,50.072l-0.215,-0.695c-0.008,-0.035 -0.031,-0.126 -0.069,-0.282c-0.037,0.156 -0.066,0.247 -0.075,0.282l-0.211,0.695l0.57,0Zm-0.645,-1.318l0.714,0l0.725,2.099l-0.567,0l-0.108,-0.377l-0.81,0l-0.109,0.377l-0.571,0l0.726,-2.099" style="fill:#fff;fill-rule:nonzero;"/><path d="M32.771,50.462c0.157,-0 0.262,-0.092 0.262,-0.217c0,-0.167 -0.116,-0.217 -0.354,-0.28c-0.376,-0.097 -0.562,-0.25 -0.562,-0.577c-0,-0.391 0.284,-0.683 0.726,-0.683c0.234,0 0.439,0.061 0.618,0.187l-0.178,0.41c-0.129,-0.112 -0.271,-0.167 -0.401,-0.167c-0.14,0 -0.233,0.077 -0.233,0.176c-0,0.151 0.147,0.184 0.335,0.233c0.372,0.099 0.579,0.236 0.579,0.625c0,0.434 -0.311,0.741 -0.803,0.741c-0.297,-0 -0.523,-0.096 -0.747,-0.31l0.26,-0.425c0.168,0.191 0.333,0.287 0.498,0.287" style="fill:#fff;fill-rule:nonzero;"/><path d="M34.815,48.753l0.608,0l0.421,1.174c0.007,0.025 0.032,0.119 0.068,0.282c0.039,-0.163 0.066,-0.257 0.075,-0.282l0.415,-1.174l0.609,0l-0.881,2.101l-0.433,-0l-0.882,-2.101" style="fill:#fff;fill-rule:nonzero;"/><path d="M37.631,50.853l-0,-2.1" style="fill:none;fill-rule:nonzero;stroke:#fff;stroke-width:0.57px;"/><path d="M38.83,49.251l-0.465,-0l-0,-0.497l1.506,0l0,0.497l-0.47,-0l0,1.602l-0.571,0l-0,-1.602Z" style="fill:#fff;fill-rule:nonzero;"/><path d="M41.42,50.072l-0.215,-0.695c-0.007,-0.035 -0.03,-0.126 -0.067,-0.282c-0.041,0.156 -0.066,0.247 -0.074,0.282l-0.211,0.695l0.567,0Zm-0.646,-1.318l0.717,0l0.725,2.099l-0.57,0l-0.105,-0.377l-0.812,0l-0.11,0.377l-0.569,0l0.724,-2.099" style="fill:#fff;fill-rule:nonzero;"/><path d="M29.142,42.188c0.139,0.165 0.233,0.942 -0.441,0.997c-1.161,0.092 -1.717,-0.025 -1.717,-0.025c-0,0 1.555,-0.182 2.158,-0.972" style="fill:#e2a134;fill-rule:nonzero;"/><path d="M34.372,18.36c0.071,-0.951 0.522,-1.174 1.138,-1.16c0.345,0.008 0.87,0.014 2.137,0.003c-0.713,0.064 -1.604,0.439 -1.719,1.368c-0.109,0.861 -0.114,3.85 -0.137,5.123c-0.627,0.024 -1.465,0.001 -1.649,0.049c0.092,-1.322 0.161,-4.431 0.23,-5.383" style="fill:#e2a134;fill-rule:nonzero;"/><rect x="28.015" y="13.478" width="0.31" height="1.19" style="fill:#e2a134;"/><path d="M28.325,13.233l-0.315,-0.894l0,0.89l0.315,0.004Z" style="fill:#e2a134;fill-rule:nonzero;"/></g></svg>