<?xml version="1.0" encoding="UTF-8" standalone="no"?><!DOCTYPE svg PUBLIC "-//W3C//DTD SVG 1.1//EN" "http://www.w3.org/Graphics/SVG/1.1/DTD/svg11.dtd"><svg width="100%" height="100%" viewBox="0 0 56 56" version="1.1" xmlns="http://www.w3.org/2000/svg" xmlns:xlink="http://www.w3.org/1999/xlink" xml:space="preserve" xmlns:serif="http://www.serif.com/" style="fill-rule:evenodd;clip-rule:evenodd;stroke-linejoin:round;stroke-miterlimit:2;"><g><rect id="canvas_background" x="-1" y="-1" width="58" height="58" style="fill:#fff;"/></g><g><rect x="15.882" y="12.239" width="11.599" height="11.465" style="fill:#6e80ad;"/><rect x="29.156" y="12.239" width="24.521" height="11.465" style="fill:#b9c0d9;"/><rect x="2.6" y="12.239" width="11.599" height="11.465" style="fill:#003976;"/><rect x="2.6" y="34.281" width="51.152" height="1.265" style="fill:#b9c0d9;"/><path d="M3.655,30.387l-0,-3.677l-0.703,0l-0,3.601c-0,0.863 -0.411,1.324 -1.131,1.449l0.461,0.461c0.619,-0.109 1.373,-0.679 1.373,-1.834" style="fill:#003976;fill-rule:nonzero;"/><path d="M7.315,29.675c-0,0.678 -0.503,1.13 -1.072,1.13c-0.578,0 -1.081,-0.452 -1.081,-1.13c0,-0.678 0.503,-1.131 1.081,-1.131c0.569,-0.008 1.072,0.444 1.072,1.131m0.67,-0c-0,-1.013 -0.762,-1.708 -1.742,-1.708c-0.98,-0 -1.751,0.695 -1.751,1.708c0,1.005 0.771,1.7 1.751,1.7c0.98,-0 1.742,-0.695 1.742,-1.7" style="fill:#003976;fill-rule:nonzero;"/><path d="M11.552,31.291l0,-2.152c0,-0.729 -0.527,-1.181 -1.248,-1.181c-0.477,0 -0.728,0.117 -0.963,0.343l0,-2.127l-0.661,0l-0,5.109l0.661,-0l0,-2.085c0,-0.335 0.26,-0.679 0.796,-0.679c0.553,0 0.762,0.344 0.762,0.679l0,2.085l0.653,-0l0,0.008Z" style="fill:#003976;fill-rule:nonzero;"/><path d="M15.229,31.291l-0,-2.152c-0,-0.729 -0.528,-1.181 -1.248,-1.181c-0.519,0 -0.762,0.126 -1.013,0.402l-0.026,-0.327l-0.577,0l-0,3.25l0.661,-0l0,-2.085c0,-0.335 0.26,-0.679 0.796,-0.679c0.553,0 0.762,0.344 0.762,0.679l-0,2.085l0.645,-0l-0,0.008Z" style="fill:#003976;fill-rule:nonzero;"/><rect x="17.883" y="26.719" width="0.703" height="4.581" style="fill:#003976;"/><path d="M22.439,31.291l0,-2.152c0,-0.729 -0.527,-1.181 -1.248,-1.181c-0.519,0 -0.762,0.126 -1.013,0.402l-0.025,-0.327l-0.586,0l-0,3.25l0.661,-0l0,-2.085c0,-0.335 0.26,-0.679 0.796,-0.679c0.553,0 0.762,0.344 0.762,0.679l0,2.085l0.653,-0l0,0.008Z" style="fill:#003976;fill-rule:nonzero;"/><path d="M26.116,31.291l-0,-2.152c-0,-0.729 -0.528,-1.181 -1.248,-1.181c-0.519,0 -0.762,0.126 -1.013,0.402l-0.026,-0.327l-0.577,0l-0,3.25l0.661,-0l0,-2.085c0,-0.335 0.26,-0.679 0.796,-0.679c0.553,0 0.762,0.344 0.762,0.679l-0,2.085l0.645,-0l-0,0.008Z" style="fill:#003976;fill-rule:nonzero;"/><path d="M29.164,29.214c0,0.025 0,0.059 -0.008,0.084l-1.658,0c0.083,-0.452 0.527,-0.779 0.946,-0.779c0.435,0.009 0.72,0.369 0.72,0.695m0.67,-0.016c0,-0.603 -0.519,-1.231 -1.424,-1.231c-0.762,-0 -1.633,0.602 -1.633,1.708c0,1.013 0.829,1.7 1.767,1.7c0.444,-0 0.746,-0.084 0.972,-0.209l0.167,-0.695c-0.301,0.217 -0.636,0.326 -1.055,0.326c-0.77,0 -1.147,-0.569 -1.172,-0.971l1.984,-0l0.369,-0.369c0.017,-0.067 0.025,-0.159 0.025,-0.259" style="fill:#003976;fill-rule:nonzero;"/><path d="M32.556,30.404c-0,-0.57 -0.369,-0.863 -1.03,-1.098c-0.327,-0.117 -0.478,-0.226 -0.478,-0.427c0,-0.217 0.185,-0.368 0.461,-0.368c0.36,-0 0.595,0.109 0.745,0.209l0.126,-0.544c-0.126,-0.076 -0.477,-0.209 -0.854,-0.209c-0.654,-0 -1.106,0.385 -1.106,0.929c0,0.528 0.36,0.829 1.014,1.064c0.301,0.109 0.469,0.243 0.469,0.477c-0,0.226 -0.21,0.385 -0.52,0.385c-0.402,0 -0.82,-0.176 -1.088,-0.402l0.15,0.72c0.193,0.126 0.536,0.235 0.922,0.235c0.787,-0 1.189,-0.444 1.189,-0.971" style="fill:#003976;fill-rule:nonzero;"/><path d="M38.636,26.92c-0.285,-0.159 -0.729,-0.302 -1.365,-0.302c-1.156,0 -2.496,0.796 -2.496,2.387c0,1.566 1.332,2.378 2.496,2.378c0.594,0 0.921,-0.075 1.214,-0.226l0.142,-0.67c-0.293,0.176 -0.728,0.285 -1.281,0.285c-0.93,-0 -1.867,-0.586 -1.867,-1.775c-0,-1.198 0.954,-1.784 1.867,-1.784c0.477,-0 0.938,0.159 1.164,0.301l0.126,-0.594Z" style="fill:#003976;fill-rule:nonzero;"/><path d="M41.425,29.214c-0,0.025 -0,0.059 -0.009,0.084l-1.658,0c0.084,-0.452 0.528,-0.779 0.946,-0.779c0.436,0.009 0.721,0.369 0.721,0.695m0.669,-0.016c0,-0.603 -0.519,-1.231 -1.423,-1.231c-0.762,-0 -1.633,0.602 -1.633,1.708c-0,1.013 0.829,1.7 1.767,1.7c0.444,-0 0.745,-0.084 0.971,-0.209l0.168,-0.695c-0.302,0.217 -0.637,0.326 -1.055,0.326c-0.771,0 -1.148,-0.569 -1.173,-0.971l1.985,-0l0.368,-0.369c0.017,-0.067 0.025,-0.159 0.025,-0.259" style="fill:#003976;fill-rule:nonzero;"/><path d="M45.629,31.291l-0,-2.152c-0,-0.729 -0.528,-1.181 -1.248,-1.181c-0.519,0 -0.762,0.126 -1.014,0.402l-0.025,-0.327l-0.578,0l0,3.25l0.662,-0l0,-2.085c0,-0.335 0.26,-0.679 0.796,-0.679c0.552,0 0.762,0.344 0.762,0.679l-0,2.085l0.645,-0l-0,0.008Z" style="fill:#003976;fill-rule:nonzero;"/><path d="M48.551,28.042l-1.164,-0l0,-0.997l-0.653,0.335l0,0.662l-0.645,-0l0,0.527l0.645,0l0,1.784c0,0.645 0.477,0.988 1.072,0.988c0.134,0 0.226,-0.008 0.301,-0.025l0.134,-0.578c-0.1,0.034 -0.226,0.051 -0.36,0.051c-0.268,-0 -0.485,-0.143 -0.485,-0.411l-0,-1.809l1.046,0l0.109,-0.527Z" style="fill:#003976;fill-rule:nonzero;"/><path d="M51.005,28.553l-0.126,-0.553c-0.494,0 -0.946,0.151 -1.122,0.553l-0.025,-0.511l-0.628,-0l0,3.249l0.662,0l-0,-1.532c-0,-0.93 0.636,-1.206 1.172,-1.206l0.067,-0Z" style="fill:#003976;fill-rule:nonzero;"/><path d="M53.509,29.214c0,0.025 0,0.059 -0.008,0.084l-1.658,0c0.083,-0.452 0.527,-0.779 0.946,-0.779c0.435,0.009 0.72,0.369 0.72,0.695m0.67,-0.016c0,-0.603 -0.519,-1.231 -1.424,-1.231c-0.762,-0 -1.633,0.602 -1.633,1.708c0,1.013 0.829,1.7 1.767,1.7c0.444,-0 0.746,-0.084 0.972,-0.209l0.167,-0.695c-0.301,0.217 -0.628,0.326 -1.055,0.326c-0.77,0 -1.147,-0.569 -1.172,-0.971l1.984,-0l0.369,-0.369c0.017,-0.067 0.025,-0.159 0.025,-0.259" style="fill:#003976;fill-rule:nonzero;"/><path d="M53.986,39.825c0,-0.025 0.009,-0.05 0.009,-0.075c-0,-0.101 -0.009,-0.185 -0.025,-0.268c-0.017,-0.084 -0.042,-0.126 -0.067,-0.134c-0.025,-0.009 -0.051,-0.017 -0.067,-0.017c-0.042,-0 -0.084,0.042 -0.126,0.125c-0.025,0.051 -0.042,0.084 -0.059,0.101c-0.184,0.218 -0.335,0.385 -0.443,0.511c-0.26,0.293 -0.419,0.427 -0.453,0.393c-0.008,-0.008 -0.016,-0.041 -0.016,-0.092c-0,-0.1 0.033,-0.31 0.1,-0.628c0.067,-0.326 0.092,-0.494 0.092,-0.519c0,-0.034 -0.025,-0.075 -0.067,-0.101c-0.05,-0.033 -0.084,-0.041 -0.109,-0.033c-0.058,0.017 -0.092,0.084 -0.117,0.201c0,0.008 -0.008,0.084 -0.025,0.243c-0.067,0.452 -0.101,0.687 -0.101,0.695c-0.016,0.134 -0.025,0.243 -0.025,0.343c0,0.21 0.042,0.319 0.134,0.319c0.084,-0 0.226,-0.093 0.411,-0.268c0.125,-0.118 0.276,-0.285 0.469,-0.503c0.075,-0.092 0.142,-0.176 0.217,-0.26c0,0.319 -0.016,0.612 -0.041,0.88c-0.026,0.268 -0.051,0.544 -0.076,0.812c-0.1,0.988 -0.167,1.491 -0.201,1.499c-0.025,0.009 -0.042,0.059 -0.042,0.143c0,0.041 0.017,0.083 0.042,0.108c0.034,0.034 0.084,0.042 0.151,0.042c0.059,0 0.109,-0.008 0.126,-0.033c0.025,-0.025 0.033,-0.05 0.033,-0.092c0,-0.025 -0.008,-0.067 -0.025,-0.109c-0.017,-0.042 -0.034,-0.067 -0.042,-0.084c-0.008,-0.008 0,-0.1 0.025,-0.268c0.042,-0.285 0.076,-0.528 0.092,-0.737c0.051,-0.394 0.092,-0.812 0.134,-1.256c0.025,-0.268 0.051,-0.553 0.084,-0.863c0,-0.025 0,-0.05 0.008,-0.075m-1.423,-0.787c-0.051,-0.017 -0.118,-0.025 -0.201,-0.025c-0.159,-0 -0.335,0.008 -0.519,0.025c-0.059,0.008 -0.134,0.016 -0.227,0.025c0.009,-0.042 0.026,-0.151 0.059,-0.343c0.017,-0.101 0.025,-0.201 0.042,-0.31c0.008,-0.109 0.017,-0.193 0.017,-0.26c-0,-0.126 -0.017,-0.209 -0.042,-0.26c-0.025,-0.05 -0.059,-0.075 -0.109,-0.075c-0.042,0 -0.075,0.017 -0.084,0.05c-0.017,0.034 -0.017,0.084 -0.017,0.143c0,0.008 0,0.042 0.009,0.083c-0,0.042 0.008,0.076 0.008,0.093c0,0.226 -0.017,0.452 -0.058,0.669c-0.009,0.076 -0.034,0.16 -0.059,0.26c-0.142,0.034 -0.243,0.067 -0.293,0.084c-0.05,0.017 -0.159,0.058 -0.318,0.117c-0.126,0.05 -0.201,0.084 -0.235,0.117c-0.025,0.017 -0.042,0.051 -0.059,0.092c-0.008,0.042 0,0.076 0.026,0.101c0.025,0.033 0.067,0.05 0.117,0.067c0.017,-0 0.067,-0.025 0.142,-0.084c0.059,-0.042 0.117,-0.075 0.176,-0.1c0.084,-0.034 0.168,-0.067 0.26,-0.101c0.033,-0.008 0.083,-0.017 0.134,-0.033c-0.009,0.083 -0.025,0.192 -0.034,0.31c-0.017,0.117 -0.025,0.226 -0.033,0.326c-0.025,0.235 -0.042,0.411 -0.042,0.528c-0.009,0.117 -0.009,0.276 -0.009,0.452c0,0.075 0.017,0.142 0.042,0.184c0.025,0.051 0.067,0.067 0.118,0.067c0.05,0 0.083,-0.008 0.1,-0.033c0.017,-0.025 0.025,-0.05 0.025,-0.084c0,-0.017 0,-0.042 -0.008,-0.075c-0.009,-0.034 -0.009,-0.059 -0.009,-0.059c0,-0.159 0.009,-0.368 0.026,-0.645c0.016,-0.276 0.033,-0.519 0.05,-0.737c0.008,-0.1 0.017,-0.192 0.025,-0.293c0.126,-0.025 0.243,-0.05 0.352,-0.067c0.159,-0.025 0.31,-0.033 0.435,-0.033c0.025,-0 0.042,0.008 0.075,0.008c0.026,-0 0.051,0.008 0.084,0.008c0.034,0 0.067,-0.008 0.084,-0.025c0.017,-0.017 0.033,-0.042 0.033,-0.075c0,-0.042 -0.025,-0.076 -0.083,-0.092m-2.488,0.184c-0.075,-0 -0.117,0.042 -0.125,0.126c-0.017,0.083 -0.025,0.217 -0.025,0.41c-0,0.126 -0.009,0.327 -0.017,0.62c-0.017,0.293 -0.017,0.452 -0.017,0.469c0,0.025 0,0.058 0.009,0.117c0.008,0.059 0.016,0.092 0.041,0.109c0.034,0.025 0.067,0.042 0.118,0.042c0.067,-0 0.1,-0.025 0.109,-0.067c0.008,-0.042 0.016,-0.067 0.016,-0.101c-0.016,-0.05 -0.033,-0.1 -0.042,-0.159c-0.008,-0.059 -0.016,-0.126 -0.016,-0.226c-0,-0.067 0.016,-0.268 0.058,-0.595c0.034,-0.326 0.059,-0.502 0.059,-0.536c-0.017,-0.134 -0.067,-0.209 -0.168,-0.209m0.134,-1.474c-0.025,-0.025 -0.05,-0.042 -0.092,-0.042c-0.05,0 -0.083,0.025 -0.1,0.067c-0.017,0.042 -0.042,0.126 -0.084,0.243c-0.05,0.109 -0.084,0.209 -0.084,0.31c0,0.075 0.009,0.117 0.034,0.142c0.017,0.017 0.033,0.017 0.042,0.017c0.033,0 0.067,-0.017 0.092,-0.05c0.017,-0.017 0.033,-0.059 0.042,-0.126c0.008,-0.067 0.025,-0.117 0.042,-0.167c0.016,-0.042 0.041,-0.101 0.083,-0.168c0.034,-0.067 0.051,-0.109 0.051,-0.134c0.008,-0.025 -0,-0.067 -0.026,-0.092m-0.787,1.064c-0.033,-0.017 -0.075,-0.042 -0.134,-0.084c-0.008,-0 -0.016,-0.008 -0.033,-0.017c-0.017,0 -0.042,-0.008 -0.076,-0.008c-0.041,-0 -0.075,0.008 -0.108,0.017c-0.034,0.008 -0.059,0.025 -0.084,0.05c-0.268,0.217 -0.461,0.385 -0.57,0.511c-0.226,0.251 -0.335,0.485 -0.335,0.703c0,0.034 0,0.059 0.009,0.084c0.016,0.176 0.125,0.326 0.326,0.435c0.092,0.051 0.268,0.118 0.52,0.201c0.184,0.059 0.284,0.118 0.293,0.176c0.008,0.067 -0.101,0.159 -0.335,0.268c-0.118,0.059 -0.243,0.117 -0.377,0.176c-0.017,0.025 -0.025,0.05 -0.025,0.067c-0,0.034 0.016,0.067 0.05,0.092c0.033,0.025 0.075,0.034 0.117,0.034c0.05,0.008 0.193,-0.076 0.444,-0.235c0.268,-0.176 0.402,-0.31 0.402,-0.402c0,-0.109 -0.059,-0.192 -0.176,-0.259c-0.125,-0.051 -0.259,-0.101 -0.385,-0.151c-0.251,-0.092 -0.385,-0.143 -0.41,-0.159c-0.118,-0.067 -0.185,-0.159 -0.21,-0.293c-0.008,-0.076 0.009,-0.176 0.067,-0.31c0.059,-0.126 0.143,-0.243 0.251,-0.335c0.109,-0.101 0.21,-0.193 0.319,-0.293c0.1,-0.101 0.192,-0.143 0.276,-0.143c0.008,0 0.034,0.009 0.067,0.025c0.042,0.017 0.075,0.025 0.109,0.025c0.075,0 0.109,-0.033 0.1,-0.1c0,-0 -0.033,-0.034 -0.092,-0.075m-1.39,0.309c-0.025,0 -0.059,-0.008 -0.1,-0.008c-0.126,0 -0.243,0.042 -0.369,0.134c-0.05,0.042 -0.142,0.117 -0.276,0.243c-0.134,0.126 -0.277,0.276 -0.436,0.469c-0.05,0.059 -0.117,0.142 -0.201,0.251l-0.008,-0.569c-0,-0.134 -0.008,-0.235 -0.025,-0.31c-0.017,-0.067 -0.034,-0.126 -0.067,-0.151c-0.034,-0.033 -0.067,-0.05 -0.101,-0.05c-0.025,-0 -0.058,0.008 -0.092,0.033c-0.017,0.009 -0.033,0.034 -0.05,0.051c0.017,0.108 0.033,0.242 0.05,0.385c0.017,0.151 0.034,0.385 0.034,0.695c-0,0.117 -0.009,0.234 -0.025,0.36c-0.017,0.126 -0.034,0.26 -0.051,0.402c0,0.05 0.009,0.092 0.034,0.109c0.033,0.042 0.084,0.059 0.125,0.059c0.042,-0 0.076,-0.017 0.101,-0.051c0.008,-0.016 0.025,-0.109 0.05,-0.284c0.017,-0.176 0.059,-0.319 0.126,-0.419c0.184,-0.277 0.36,-0.503 0.511,-0.67c0.175,-0.193 0.335,-0.335 0.477,-0.411c0.042,-0.025 0.084,-0.033 0.126,-0.033c0.025,-0 0.058,0.008 0.1,0.025c0.042,0.017 0.084,0.017 0.109,0.017c0.075,-0.025 0.109,-0.059 0.109,-0.117c-0,-0.026 -0.009,-0.051 -0.025,-0.076c-0.017,-0.025 -0.034,-0.042 -0.042,-0.042c-0.025,-0.033 -0.059,-0.042 -0.084,-0.042m-3.132,0.536c-0.075,0.051 -0.193,0.101 -0.335,0.151c-0.05,0.017 -0.109,0.034 -0.201,0.05c0.05,-0.05 0.084,-0.092 0.109,-0.117c0.092,-0.084 0.176,-0.151 0.251,-0.184c0.126,-0.067 0.243,-0.109 0.36,-0.126c0.042,-0.008 0.092,-0.008 0.151,-0.008c-0.101,0.075 -0.218,0.159 -0.335,0.234m1.147,0.436c-0.033,-0 -0.067,0.025 -0.1,0.067c-0.017,0.017 -0.034,0.05 -0.059,0.1c-0.05,0.067 -0.201,0.185 -0.444,0.361c-0.301,0.201 -0.527,0.309 -0.686,0.309c-0.093,0 -0.176,-0.025 -0.235,-0.067c-0.059,-0.041 -0.117,-0.1 -0.159,-0.184c-0.05,-0.067 -0.075,-0.134 -0.092,-0.201c-0.017,-0.067 -0.025,-0.125 -0.025,-0.184c-0,-0.034 0.008,-0.075 0.016,-0.126c0,-0.016 0,-0.025 0.009,-0.042c0.192,-0.058 0.293,-0.092 0.31,-0.1c0.184,-0.059 0.318,-0.117 0.41,-0.168c0.176,-0.1 0.335,-0.209 0.486,-0.326c0.058,-0.067 0.125,-0.143 0.184,-0.21c-0.117,-0.083 -0.26,-0.125 -0.435,-0.125c-0.268,-0 -0.536,0.084 -0.788,0.259c-0.259,0.176 -0.41,0.386 -0.46,0.637c-0.009,0.05 -0.017,0.075 -0.017,0.084l0,0.083c0,0.176 0.05,0.352 0.151,0.511c0.1,0.159 0.226,0.277 0.377,0.352c0.058,0.025 0.134,0.042 0.209,0.042c0.176,-0 0.394,-0.075 0.653,-0.226c0.235,-0.143 0.486,-0.31 0.737,-0.519c0.076,-0.051 0.109,-0.109 0.109,-0.176c0,-0.051 -0.025,-0.092 -0.067,-0.126c-0.042,-0.017 -0.067,-0.025 -0.084,-0.025m-2.144,-1.315c-0.033,0 -0.067,0.025 -0.1,0.067c-0.034,0.042 -0.067,0.101 -0.092,0.168c-0,0.016 -0.084,0.125 -0.235,0.326c-0.15,0.201 -0.301,0.402 -0.452,0.603c-0.117,0.159 -0.251,0.344 -0.394,0.561c-0.05,0.067 -0.108,0.151 -0.175,0.252c-0.026,-0.093 -0.051,-0.176 -0.067,-0.235c-0,-0.025 -0.009,-0.059 -0.026,-0.1c-0.025,-0.109 -0.05,-0.201 -0.058,-0.277c-0.034,-0.184 -0.05,-0.293 -0.067,-0.335c-0.034,-0.109 -0.076,-0.201 -0.126,-0.268c-0.05,-0.067 -0.1,-0.1 -0.159,-0.1c-0.025,-0 -0.05,0.008 -0.067,0.025c-0.008,0.008 -0.017,0.033 -0.017,0.058c0,0.042 0.017,0.109 0.042,0.185c0.009,0.033 0.034,0.092 0.067,0.184c0.009,0.042 0.034,0.126 0.067,0.243c0.092,0.385 0.159,0.628 0.184,0.728c0.026,0.101 0.042,0.16 0.051,0.16c0.025,0.075 0.058,0.117 0.1,0.142c0.025,0.008 0.042,0.017 0.067,0.017c0.05,-0 0.101,-0.034 0.151,-0.092c0.033,-0.042 0.059,-0.093 0.092,-0.168c0.05,-0.109 0.209,-0.368 0.486,-0.779c0.301,-0.435 0.494,-0.695 0.594,-0.779c0.076,-0.067 0.134,-0.134 0.185,-0.209c0.05,-0.075 0.075,-0.151 0.075,-0.218c0,-0.05 -0.017,-0.092 -0.05,-0.134c-0.025,-0.008 -0.05,-0.025 -0.076,-0.025m-2.403,0.444c-0.075,-0 -0.117,0.042 -0.126,0.126c-0.016,0.083 -0.025,0.217 -0.025,0.41c0,0.126 -0.008,0.327 -0.017,0.62c-0.008,0.293 -0.016,0.452 -0.016,0.469c-0,0.025 -0,0.058 0.008,0.117c0.008,0.059 0.017,0.092 0.034,0.109c0.033,0.025 0.067,0.042 0.117,0.042c0.067,-0 0.1,-0.025 0.117,-0.067c0.008,-0.042 0.017,-0.067 0.017,-0.101c-0.017,-0.05 -0.034,-0.1 -0.042,-0.159c-0.017,-0.059 -0.017,-0.126 -0.017,-0.226c0,-0.067 0.017,-0.268 0.059,-0.595c0.033,-0.326 0.058,-0.502 0.058,-0.536c-0.016,-0.134 -0.067,-0.209 -0.167,-0.209m0.134,-1.474c-0.025,-0.025 -0.05,-0.042 -0.092,-0.042c-0.05,0 -0.084,0.025 -0.101,0.067c-0.016,0.042 -0.042,0.126 -0.083,0.243c-0.051,0.109 -0.084,0.209 -0.084,0.31c-0,0.075 0.008,0.117 0.033,0.142c0.017,0.017 0.034,0.017 0.042,0.017c0.034,0 0.067,-0.017 0.092,-0.05c0.017,-0.017 0.034,-0.059 0.042,-0.126c0.009,-0.067 0.025,-0.117 0.042,-0.167c0.017,-0.042 0.042,-0.101 0.084,-0.168c0.033,-0.067 0.05,-0.109 0.05,-0.134c0.008,-0.025 -0,-0.067 -0.025,-0.092m-1.474,2.152c-0.276,0.235 -0.603,0.461 -0.972,0.695c-0.318,0.193 -0.485,0.294 -0.502,0.294c-0.025,-0.134 -0.033,-0.243 -0.042,-0.327c-0.025,-0.251 -0.042,-0.486 -0.042,-0.712c0,-0.201 0.009,-0.402 0.025,-0.611c0.017,-0.21 0.059,-0.578 0.118,-1.114c0.033,-0.008 0.058,-0.017 0.092,-0.025c0.092,-0.017 0.201,-0.025 0.335,-0.025c0.377,-0 0.737,0.083 1.08,0.243c0.385,0.175 0.578,0.393 0.578,0.653c-0,0.042 -0.008,0.083 -0.017,0.125c-0.058,0.226 -0.276,0.494 -0.653,0.804m0.318,-1.733c-0.427,-0.218 -0.904,-0.318 -1.449,-0.318c-0.209,-0 -0.418,0.025 -0.628,0.067c-0.209,0.041 -0.36,0.1 -0.452,0.15c-0.042,0.025 -0.059,0.059 -0.059,0.101c0,0.042 0.017,0.084 0.059,0.117c0.042,0.034 0.084,0.05 0.126,0.042l0.351,-0.126l-0.083,1.39c-0,0.143 0.008,0.436 0.025,0.863c-0,0.126 0.008,0.302 0.025,0.519l-0.034,0.118c-0.008,0.033 -0.008,0.058 -0.008,0.067c0,0.075 0.017,0.125 0.05,0.159c0.017,-0 0.042,-0 0.059,0.008c0.017,0.008 0.033,0.017 0.059,0.034c0.083,-0 0.15,-0.017 0.175,-0.059c0.034,-0.042 0.042,-0.092 0.034,-0.142c0.46,-0.277 0.787,-0.486 0.98,-0.612c0.418,-0.285 0.745,-0.536 0.963,-0.77c0.285,-0.302 0.427,-0.57 0.427,-0.821c0.017,-0.31 -0.193,-0.569 -0.62,-0.787m-4.899,0.645c-0.033,-0.017 -0.075,-0.042 -0.134,-0.084c-0.008,-0 -0.017,-0.008 -0.033,-0.017c-0.017,0 -0.042,-0.008 -0.076,-0.008c-0.033,-0 -0.075,0.008 -0.109,0.017c-0.033,0.008 -0.058,0.025 -0.083,0.05c-0.268,0.217 -0.461,0.385 -0.57,0.511c-0.226,0.251 -0.335,0.485 -0.335,0.703c0,0.034 0,0.059 0.008,0.084c0.017,0.176 0.126,0.326 0.327,0.435c0.092,0.051 0.268,0.118 0.519,0.201c0.185,0.059 0.285,0.118 0.293,0.176c0.009,0.067 -0.1,0.159 -0.335,0.268c-0.117,0.059 -0.242,0.117 -0.376,0.176c-0.017,0.025 -0.026,0.05 -0.026,0.067c0,0.034 0.017,0.067 0.051,0.092c0.033,0.025 0.075,0.034 0.117,0.034c0.05,0.008 0.193,-0.076 0.444,-0.235c0.268,-0.176 0.402,-0.31 0.402,-0.402c-0,-0.109 -0.059,-0.192 -0.176,-0.259c-0.126,-0.051 -0.26,-0.101 -0.385,-0.151c-0.252,-0.092 -0.386,-0.143 -0.411,-0.159c-0.117,-0.067 -0.184,-0.159 -0.209,-0.293c-0.017,-0.076 0.008,-0.176 0.067,-0.31c0.059,-0.126 0.142,-0.243 0.251,-0.335c0.109,-0.101 0.21,-0.193 0.318,-0.293c0.101,-0.101 0.193,-0.143 0.277,-0.143c0.008,0 0.033,0.009 0.067,0.025c0.033,0.017 0.075,0.025 0.109,0.025c0.075,0 0.109,-0.033 0.1,-0.1c0,-0 -0.025,-0.034 -0.092,-0.075m-1.549,-0.938c-0,-0.059 -0.017,-0.109 -0.059,-0.143c-0.042,-0.033 -0.084,-0.05 -0.126,-0.05c-0.058,0 -0.092,0.025 -0.1,0.084c-0.017,0.184 -0.05,0.368 -0.092,0.569c-0.025,0.134 -0.059,0.26 -0.101,0.369c-0.008,0.017 -0.008,0.042 -0.008,0.067c-0,0.075 0.025,0.109 0.092,0.109c0.034,-0 0.067,-0.017 0.084,-0.042c0.042,-0.084 0.109,-0.243 0.184,-0.478c0.059,-0.192 0.109,-0.335 0.126,-0.435l-0,-0.05m-1.993,1.783c-0.076,0.051 -0.193,0.101 -0.335,0.151c-0.051,0.017 -0.109,0.034 -0.201,0.05c0.05,-0.05 0.083,-0.092 0.108,-0.117c0.093,-0.084 0.176,-0.151 0.252,-0.184c0.125,-0.067 0.243,-0.109 0.36,-0.126c0.042,-0.008 0.092,-0.008 0.151,-0.008c-0.109,0.075 -0.218,0.159 -0.335,0.234m1.147,0.436c-0.034,-0 -0.067,0.025 -0.101,0.067c-0.008,0.017 -0.033,0.05 -0.058,0.1c-0.05,0.067 -0.201,0.185 -0.444,0.361c-0.302,0.201 -0.528,0.309 -0.687,0.309c-0.092,0 -0.167,-0.025 -0.234,-0.067c-0.059,-0.041 -0.118,-0.1 -0.159,-0.184c-0.051,-0.067 -0.076,-0.134 -0.101,-0.201c-0.017,-0.067 -0.025,-0.125 -0.025,-0.184c-0,-0.034 0.008,-0.075 0.017,-0.126c-0,-0.016 -0,-0.025 0.008,-0.042c0.184,-0.058 0.293,-0.092 0.31,-0.1c0.184,-0.059 0.318,-0.117 0.41,-0.168c0.176,-0.1 0.335,-0.209 0.486,-0.326c0.059,-0.067 0.126,-0.143 0.184,-0.21c-0.117,-0.083 -0.259,-0.125 -0.435,-0.125c-0.268,-0 -0.536,0.084 -0.787,0.259c-0.26,0.176 -0.411,0.386 -0.461,0.637c-0.008,0.05 -0.017,0.075 -0.017,0.084c0,0.025 -0.008,0.058 -0.008,0.083c-0,0.176 0.05,0.352 0.151,0.511c0.1,0.159 0.226,0.277 0.376,0.352c0.067,0.025 0.134,0.042 0.21,0.042c0.176,-0 0.393,-0.075 0.653,-0.226c0.235,-0.143 0.486,-0.31 0.737,-0.519c0.075,-0.051 0.109,-0.109 0.109,-0.176c-0,-0.051 -0.025,-0.092 -0.067,-0.126c-0.025,-0.017 -0.05,-0.025 -0.067,-0.025m-2.136,-0.972c-0.025,0 -0.058,-0.008 -0.1,-0.008c-0.126,0 -0.243,0.042 -0.369,0.134c-0.05,0.042 -0.142,0.117 -0.276,0.243c-0.134,0.126 -0.276,0.276 -0.435,0.469c-0.051,0.059 -0.118,0.142 -0.201,0.251l-0.009,-0.569c0,-0.134 -0.008,-0.235 -0.017,-0.31c-0.016,-0.067 -0.033,-0.126 -0.067,-0.151c-0.033,-0.033 -0.067,-0.05 -0.1,-0.05c-0.025,-0 -0.059,0.008 -0.092,0.033c-0.017,0.009 -0.034,0.034 -0.05,0.051c0.016,0.108 0.033,0.242 0.05,0.385c0.017,0.151 0.033,0.385 0.033,0.695c0,0.117 -0.008,0.234 -0.025,0.36c-0.017,0.126 -0.033,0.26 -0.05,0.402c-0,0.05 0.008,0.092 0.033,0.109c0.034,0.042 0.084,0.059 0.126,0.059c0.042,-0 0.075,-0.017 0.101,-0.051c0.016,-0.016 0.025,-0.109 0.05,-0.284c0.017,-0.176 0.058,-0.319 0.125,-0.419c0.185,-0.277 0.352,-0.503 0.511,-0.67c0.176,-0.193 0.335,-0.335 0.478,-0.411c0.041,-0.025 0.083,-0.033 0.125,-0.033c0.025,-0 0.059,0.008 0.101,0.025c0.042,0.017 0.083,0.017 0.109,0.017c0.075,-0.025 0.108,-0.059 0.108,-0.117c0,-0.026 -0.008,-0.051 -0.025,-0.076c-0.016,-0.025 -0.033,-0.042 -0.042,-0.042c-0.025,-0.033 -0.067,-0.042 -0.092,-0.042m-1.892,0.26c-0.025,-0.067 -0.059,-0.092 -0.118,-0.092c-0.067,-0 -0.108,0.017 -0.125,0.05c-0.017,0.034 -0.025,0.076 -0.025,0.126c-0,0.125 -0.025,0.301 -0.067,0.544c-0.067,0.327 -0.151,0.578 -0.252,0.754c-0.033,0.05 -0.067,0.084 -0.092,0.084c-0.083,-0 -0.159,-0.151 -0.226,-0.453c-0.067,-0.301 -0.092,-0.661 -0.092,-1.088c0,-0.042 -0.008,-0.076 -0.025,-0.109c-0.017,-0.034 -0.059,-0.059 -0.109,-0.067c-0.075,-0.017 -0.117,0.042 -0.117,0.167c-0,0.511 0.05,0.947 0.142,1.307c0.101,0.36 0.235,0.536 0.419,0.536c0.05,-0 0.1,-0.009 0.159,-0.034c0.092,-0.042 0.193,-0.217 0.293,-0.527c0.126,-0.369 0.21,-0.729 0.26,-1.089c-0.009,-0.059 -0.017,-0.092 -0.025,-0.109m-1.282,-0.343c-0.05,-0.017 -0.117,-0.025 -0.201,-0.025c-0.159,-0 -0.335,0.008 -0.519,0.025c-0.058,0.008 -0.134,0.016 -0.226,0.025c0.008,-0.042 0.025,-0.151 0.059,-0.343c0.016,-0.101 0.025,-0.201 0.042,-0.31c0.008,-0.109 0.016,-0.193 0.016,-0.26c0,-0.126 -0.008,-0.209 -0.042,-0.26c-0.025,-0.05 -0.058,-0.075 -0.108,-0.075c-0.042,0 -0.076,0.017 -0.084,0.05c-0.017,0.034 -0.025,0.084 -0.025,0.143c-0,0.008 -0,0.042 0.008,0.083c0,0.042 0.008,0.076 0.008,0.093c0,0.226 -0.016,0.452 -0.058,0.669c-0.009,0.076 -0.034,0.16 -0.059,0.26c-0.142,0.034 -0.243,0.067 -0.293,0.084c-0.05,0.017 -0.159,0.058 -0.318,0.117c-0.126,0.05 -0.201,0.084 -0.235,0.117c-0.025,0.017 -0.042,0.051 -0.058,0.092c-0.009,0.042 -0,0.076 0.025,0.101c0.033,0.033 0.067,0.05 0.117,0.067c0.017,-0 0.067,-0.025 0.142,-0.084c0.059,-0.042 0.118,-0.075 0.176,-0.1c0.084,-0.034 0.168,-0.067 0.26,-0.101c0.033,-0.008 0.084,-0.017 0.134,-0.033c-0.008,0.083 -0.025,0.192 -0.034,0.31c-0.016,0.117 -0.025,0.226 -0.041,0.326c-0.026,0.235 -0.042,0.411 -0.042,0.528c-0.009,0.117 -0.009,0.276 -0.009,0.452c0,0.075 0.017,0.142 0.042,0.184c0.034,0.051 0.067,0.067 0.117,0.067c0.051,0 0.084,-0.008 0.101,-0.033c0.017,-0.025 0.025,-0.05 0.025,-0.084c0,-0.017 0,-0.042 -0.008,-0.075c-0.009,-0.034 -0.009,-0.059 -0.009,-0.059c0,-0.159 0.009,-0.368 0.025,-0.645c0.017,-0.276 0.034,-0.519 0.051,-0.737c0.008,-0.1 0.016,-0.192 0.025,-0.293c0.125,-0.025 0.234,-0.05 0.352,-0.067c0.159,-0.025 0.309,-0.033 0.435,-0.033c0.025,-0 0.05,0.008 0.075,0.008c0.026,-0 0.051,0.008 0.084,0.008c0.034,0 0.067,-0.008 0.084,-0.025c0.017,-0.017 0.033,-0.042 0.033,-0.075c0.009,-0.042 -0.016,-0.076 -0.067,-0.092m-2.822,1.842c-0.142,0.084 -0.259,0.126 -0.36,0.126c-0.042,-0 -0.084,-0.009 -0.117,-0.025c-0.034,-0.017 -0.05,-0.067 -0.05,-0.143c-0,-0.1 0.033,-0.201 0.092,-0.293c0.075,-0.109 0.184,-0.176 0.318,-0.201c0.067,-0.008 0.134,0.05 0.209,0.184c0.025,0.042 0.051,0.118 0.084,0.21c-0.075,0.067 -0.134,0.109 -0.176,0.142m0.57,-0.1c0.058,-0.21 0.083,-0.427 0.083,-0.645c0,-0.21 -0.033,-0.385 -0.092,-0.545c-0.067,-0.184 -0.176,-0.318 -0.326,-0.41c-0.067,-0.042 -0.159,-0.067 -0.26,-0.067c-0.142,0 -0.276,0.034 -0.394,0.109c-0.125,0.067 -0.184,0.142 -0.184,0.226c0,0.034 0.017,0.059 0.05,0.075c0.034,0.017 0.059,0.034 0.084,0.034c0.025,-0 0.042,-0.008 0.042,-0.025c0,-0.034 0.042,-0.076 0.126,-0.117c0.083,-0.042 0.167,-0.067 0.251,-0.067c0.067,-0 0.126,0.016 0.176,0.041c0.05,0.034 0.1,0.084 0.134,0.151c0.058,0.109 0.092,0.21 0.117,0.31c0.025,0.092 0.033,0.193 0.033,0.302c0,0.1 -0.008,0.201 -0.041,0.309c-0.009,0.034 -0.017,0.067 -0.034,0.118c-0.059,-0.176 -0.125,-0.293 -0.201,-0.352c-0.075,-0.059 -0.159,-0.092 -0.251,-0.092c-0.025,-0 -0.042,-0 -0.059,0.008c-0.15,0.025 -0.284,0.109 -0.402,0.268c-0.117,0.159 -0.176,0.31 -0.176,0.469c0,0.117 0.034,0.201 0.101,0.268c0.067,0.067 0.159,0.101 0.276,0.101c0.126,-0 0.26,-0.042 0.427,-0.118c0.051,-0.025 0.118,-0.067 0.201,-0.117c0,0.009 0.009,0.034 0.009,0.05c0.008,0.026 0.016,0.042 0.033,0.067c0.017,0.017 0.05,0.034 0.092,0.034c0.034,-0 0.051,-0.008 0.059,-0.017c0.025,-0.042 0.067,-0.159 0.126,-0.368m-1.726,-0.21c0,-0.008 -0.008,-0.033 -0.025,-0.05c-0.033,-0.251 -0.05,-0.469 -0.05,-0.636c0,-0.051 0.008,-0.193 0.025,-0.436c0,-0.05 0.009,-0.117 0.009,-0.209c0.008,-0.159 0.016,-0.31 0.025,-0.444c0.008,-0.134 0.016,-0.268 0.016,-0.41c0,-0.168 -0.016,-0.302 -0.041,-0.402c-0.026,-0.101 -0.067,-0.151 -0.126,-0.151c-0.109,-0 -0.159,0.058 -0.159,0.184c-0,0.042 0.008,0.126 0.017,0.243c0.008,0.117 0.016,0.226 0.016,0.318l0,1.843c-0.025,-0 -0.058,-0.009 -0.083,-0.026c-0.026,-0.016 -0.059,-0.041 -0.109,-0.067c-0.076,-0.05 -0.176,-0.159 -0.293,-0.326c-0.134,-0.193 -0.294,-0.436 -0.469,-0.737c-0.084,-0.151 -0.168,-0.335 -0.243,-0.553c-0.151,-0.41 -0.251,-0.653 -0.293,-0.737c-0.025,-0.042 -0.059,-0.067 -0.101,-0.067c-0.05,0 -0.092,0.025 -0.134,0.084c-0.025,0.033 -0.042,0.226 -0.05,0.578c-0.017,0.351 -0.025,0.578 -0.042,0.678c-0.025,0.176 -0.059,0.469 -0.092,0.879c-0.034,0.411 -0.05,0.746 -0.05,0.989c-0,0.142 0.008,0.226 0.025,0.234c0.05,0.025 0.084,0.042 0.117,0.042c0.05,0 0.084,-0.025 0.109,-0.084c0.025,-0.058 0.033,-0.117 0.033,-0.192c0,-0.118 -0.016,-0.201 -0.05,-0.235c-0.008,-0.008 -0.017,-0.058 -0.017,-0.134c0,-0.125 0.017,-0.36 0.059,-0.712c0.042,-0.351 0.084,-0.661 0.117,-0.929c0.017,-0.143 0.042,-0.285 0.059,-0.436c0.067,0.159 0.142,0.31 0.209,0.452c0.084,0.176 0.168,0.31 0.235,0.428c0.159,0.251 0.301,0.46 0.427,0.628c0.176,0.251 0.31,0.393 0.393,0.444l0.252,0.159c-0,0.025 -0.009,0.042 -0.009,0.05c0,0.025 -0.008,0.042 -0.008,0.067c-0,0.059 0.008,0.109 0.033,0.142c0.017,0.042 0.059,0.067 0.109,0.076c0.042,0.008 0.076,-0.009 0.101,-0.034c0.025,-0.025 0.033,-0.084 0.033,-0.159c0,-0.017 0,-0.042 -0.008,-0.067c-0,-0.025 -0.008,-0.042 -0.008,-0.05c0.025,-0.034 0.041,-0.084 0.041,-0.159c0.026,-0.009 0.017,-0.042 0,-0.076m-5.343,1.365c0,0.302 -0.125,0.645 -0.368,1.039c-0.092,0.151 -0.226,0.276 -0.385,0.385c-0.159,0.109 -0.327,0.159 -0.494,0.159c-0.143,0 -0.277,-0.042 -0.394,-0.134c-0.176,-0.134 -0.26,-0.285 -0.26,-0.452c0,-0.168 0.084,-0.36 0.26,-0.578c0.176,-0.209 0.394,-0.394 0.67,-0.544c0.193,-0.101 0.402,-0.185 0.62,-0.252c0.15,-0.041 0.234,-0.058 0.276,-0.058c0.05,0.151 0.075,0.293 0.075,0.435m-0.485,-1.582c-0.109,0.117 -0.26,0.217 -0.461,0.301c-0.067,0.025 -0.134,0.05 -0.218,0.067c-0.025,0.008 -0.067,0.017 -0.109,0.025c-0.008,-0.017 -0.016,-0.033 -0.016,-0.042c-0.017,-0.058 -0.025,-0.117 -0.025,-0.167c0.008,-0.067 0.05,-0.168 0.134,-0.293c0.108,-0.176 0.259,-0.344 0.452,-0.52c0.067,0.017 0.117,0.034 0.159,0.059c0.109,0.059 0.176,0.159 0.201,0.293c0.008,0.092 -0.034,0.176 -0.117,0.277m1.784,0.879c-0.093,-0.017 -0.227,-0.025 -0.402,-0.025c-0.143,-0 -0.319,0.008 -0.545,0.025c-0.075,-0 -0.167,0.008 -0.285,0.025c-0.075,-0.109 -0.117,-0.176 -0.134,-0.193c-0.05,-0.058 -0.117,-0.108 -0.201,-0.167c-0.067,-0.05 -0.142,-0.092 -0.226,-0.126c-0.025,-0.008 -0.058,-0.016 -0.1,-0.025c0.151,-0.125 0.259,-0.218 0.318,-0.285c0.084,-0.108 0.126,-0.217 0.126,-0.335c-0,-0.025 -0,-0.058 -0.009,-0.108c-0.008,-0.051 -0.05,-0.126 -0.125,-0.218c-0.025,-0.034 -0.059,-0.067 -0.109,-0.117l0.352,-0.059c0.117,-0.025 0.209,-0.034 0.293,-0.034c0.058,0 0.109,0 0.142,0.009l0.067,-0c0.042,-0.034 0.059,-0.059 0.059,-0.092c-0,-0.042 -0.042,-0.076 -0.109,-0.092c-0.025,-0.009 -0.05,-0.009 -0.084,-0.009c-0.092,0 -0.293,0.017 -0.595,0.059c-0.309,0.033 -0.502,0.058 -0.594,0.058c-0.059,0 -0.092,-0.008 -0.109,-0.016c-0.034,-0.025 -0.067,-0.042 -0.092,-0.042c-0.034,-0 -0.059,0.008 -0.076,0.033c-0.016,0.025 -0.025,0.051 -0.033,0.084c-0,0.025 0.025,0.059 0.067,0.101c0.008,0.008 0.033,0.025 0.067,0.05c-0.075,0.092 -0.184,0.218 -0.31,0.368c-0.142,0.176 -0.218,0.319 -0.218,0.427c0,0.067 0.009,0.134 0.026,0.21c0.008,0.025 0.016,0.05 0.025,0.092c-0.025,0.008 -0.067,0.025 -0.109,0.033c-0.034,0.017 -0.059,0.034 -0.076,0.059c-0.016,0.025 -0.025,0.05 -0.025,0.067c0,0.042 0.025,0.075 0.084,0.101c0.025,0.016 0.05,0.016 0.075,0.016c0.126,-0.033 0.252,-0.067 0.377,-0.109c0.134,-0.033 0.277,-0.05 0.436,-0.05c0.159,0 0.31,0.059 0.435,0.176c0.042,0.042 0.084,0.092 0.134,0.176c-0.385,0.092 -0.678,0.184 -0.879,0.285c-0.268,0.134 -0.528,0.343 -0.787,0.628c-0.109,0.117 -0.185,0.243 -0.235,0.36c-0.05,0.125 -0.075,0.243 -0.075,0.36c-0,0.285 0.125,0.511 0.377,0.67c0.092,0.059 0.184,0.1 0.268,0.126c0.092,0.025 0.175,0.033 0.268,0.033c0.251,0 0.485,-0.092 0.728,-0.285c0.193,-0.159 0.344,-0.343 0.452,-0.561c0.109,-0.218 0.185,-0.419 0.235,-0.62c0.042,-0.15 0.059,-0.301 0.059,-0.452c-0,-0.125 -0.017,-0.234 -0.051,-0.343c0,-0.017 -0.008,-0.034 -0.016,-0.059c0.075,-0.008 0.159,-0.025 0.251,-0.033c0.092,-0.009 0.167,-0.017 0.243,-0.017c0.109,0 0.201,-0.008 0.276,-0.008l0.201,-0c0.017,0.025 0.034,0.058 0.05,0.083c0.017,0.026 0.059,0.042 0.118,0.042c0.083,0 0.15,-0.008 0.217,-0.033c0.059,-0.017 0.084,-0.05 0.059,-0.101c-0.034,-0.05 -0.126,-0.109 -0.276,-0.142m-3.124,0.033c-0,-0.033 -0.009,-0.075 -0.025,-0.125c-0.009,-0.017 -0.025,-0.059 -0.051,-0.109c-0.008,-0.025 -0.016,-0.243 -0.016,-0.662c-0,-0.427 -0.009,-0.72 -0.034,-0.887c-0.033,-0.235 -0.1,-0.369 -0.209,-0.394c-0.126,-0.025 -0.293,0.151 -0.519,0.519c-0.076,0.126 -0.168,0.31 -0.294,0.561c0,-0.016 -0.008,-0.042 -0.008,-0.067c0,-0.016 0,-0.05 0.008,-0.1c0,-0.059 0.009,-0.117 0.009,-0.168c-0,-0.109 0.008,-0.217 0.025,-0.343c0.017,-0.126 0.025,-0.193 0.025,-0.218c0,-0.033 -0.008,-0.058 -0.017,-0.075c-0.042,-0.05 -0.083,-0.076 -0.15,-0.076c-0.059,0 -0.093,0.034 -0.101,0.109c-0.025,0.151 -0.033,0.243 -0.033,0.285c-0.017,0.168 -0.026,0.352 -0.026,0.561c0,0.134 0,0.293 -0.008,0.461c-0.008,0.167 -0.017,0.335 -0.025,0.486c-0,0.058 0.008,0.108 0.033,0.142c0.026,0.033 0.059,0.05 0.101,0.05c0.025,0 0.059,-0.008 0.084,-0.025c0.025,-0.017 0.05,-0.067 0.075,-0.151c0.042,-0.159 0.084,-0.293 0.126,-0.402c0.109,-0.301 0.234,-0.586 0.385,-0.854c0.092,-0.117 0.184,-0.243 0.276,-0.36c0.025,0.025 0.042,0.092 0.042,0.193l0,0.577c0,0.118 0.009,0.26 0.017,0.419c0.008,0.159 0.017,0.302 0.033,0.436c0,0.025 0,0.05 -0.008,0.058c-0.008,0.017 -0.008,0.042 -0.008,0.067c-0,0.059 0.025,0.109 0.067,0.151c0.042,0.042 0.092,0.059 0.142,0.059c0.025,-0 0.05,-0.009 0.067,-0.025c0.008,-0.017 0.017,-0.051 0.017,-0.093m-1.993,-2.043c-0.076,-0 -0.118,0.042 -0.126,0.126c-0.017,0.083 -0.025,0.217 -0.025,0.41c-0,0.126 -0.009,0.327 -0.017,0.62c-0.008,0.293 -0.017,0.452 -0.017,0.469c0,0.025 0,0.058 0.009,0.117c0.008,0.059 0.016,0.092 0.042,0.109c0.033,0.025 0.067,0.042 0.108,0.042c0.067,-0 0.101,-0.025 0.109,-0.067c0.009,-0.042 0.017,-0.067 0.017,-0.101c-0.017,-0.05 -0.033,-0.1 -0.042,-0.159c-0.008,-0.059 -0.017,-0.126 -0.017,-0.226c0,-0.067 0.017,-0.268 0.059,-0.595c0.034,-0.326 0.059,-0.502 0.059,-0.536c-0,-0.134 -0.051,-0.209 -0.159,-0.209m0.142,-1.474c-0.025,-0.025 -0.05,-0.042 -0.092,-0.042c-0.05,0 -0.084,0.025 -0.101,0.067c-0.016,0.042 -0.042,0.126 -0.083,0.243c-0.051,0.109 -0.084,0.209 -0.084,0.31c-0,0.075 0.017,0.117 0.042,0.142c0.016,0.017 0.033,0.017 0.042,0.017c0.033,0 0.067,-0.017 0.092,-0.05c0.016,-0.017 0.033,-0.059 0.042,-0.126c0.008,-0.067 0.025,-0.117 0.041,-0.167c0.017,-0.042 0.042,-0.101 0.084,-0.168c0.034,-0.067 0.05,-0.109 0.05,-0.134c0,-0.025 -0.008,-0.067 -0.033,-0.092m-0.36,2.94c-0.034,-0.017 -0.059,-0.034 -0.101,-0.034c-0.058,0 -0.1,0.017 -0.125,0.059c-0.025,0.042 -0.067,0.075 -0.143,0.109c-0.092,0.05 -0.209,0.067 -0.335,0.067c-0.092,-0 -0.184,-0.009 -0.284,-0.034c-0.101,-0.025 -0.218,-0.059 -0.335,-0.117c-0.335,-0.151 -0.62,-0.327 -0.871,-0.519c-0.084,-0.067 -0.176,-0.151 -0.277,-0.252c0.36,-0.15 0.704,-0.268 1.022,-0.351c0.318,-0.084 0.595,-0.151 0.812,-0.193c0.042,-0.025 0.059,-0.067 0.059,-0.109c0,-0.025 -0.008,-0.05 -0.025,-0.067c-0.017,-0.017 -0.034,-0.033 -0.042,-0.033c-0.126,-0 -0.352,0.041 -0.67,0.125c-0.234,0.059 -0.494,0.134 -0.787,0.235c-0.126,0.042 -0.251,0.083 -0.377,0.125c0.008,-0.092 0.033,-0.217 0.059,-0.377c0.008,-0.05 0.025,-0.134 0.05,-0.259c0.042,-0.21 0.084,-0.385 0.142,-0.536c0.059,-0.151 0.076,-0.243 0.076,-0.268c-0.026,-0.092 -0.076,-0.142 -0.143,-0.142c-0.008,-0 -0.033,0.008 -0.067,0.016c-0.033,0.009 -0.084,0.143 -0.159,0.394c-0.075,0.293 -0.142,0.611 -0.201,0.963c-0.067,0.444 -0.1,0.871 -0.1,1.281c-0,0.478 0.042,0.712 0.125,0.712c0.067,0 0.117,-0.008 0.143,-0.033c0.025,-0.017 0.041,-0.051 0.041,-0.092c0,-0.017 -0.016,-0.084 -0.041,-0.218c-0.009,-0.059 -0.017,-0.109 -0.017,-0.159c-0,-0.168 0.008,-0.352 0.025,-0.536c-0,-0.051 0.008,-0.118 0.025,-0.193c0.327,0.285 0.645,0.494 0.955,0.645c0.31,0.142 0.586,0.218 0.837,0.218c0.109,-0 0.21,-0.017 0.31,-0.042c0.084,-0.034 0.168,-0.067 0.243,-0.101c0.075,-0.033 0.134,-0.058 0.159,-0.083c0.042,-0.034 0.059,-0.076 0.059,-0.126c-0,-0.025 -0.017,-0.05 -0.042,-0.075m-2.739,-0.486c-0.016,-0.025 -0.05,-0.042 -0.075,-0.042c-0.008,-0 -0.025,-0 -0.042,0.008c-0.117,0.067 -0.234,0.134 -0.352,0.201c-0.268,0.151 -0.502,0.277 -0.711,0.36c-0.302,0.126 -0.536,0.193 -0.712,0.193c-0.092,0 -0.168,-0.017 -0.218,-0.05c-0.092,-0.059 -0.142,-0.151 -0.142,-0.26c-0,-0.184 0.108,-0.41 0.318,-0.678c0.184,-0.235 0.318,-0.36 0.402,-0.385c0.025,-0.009 0.067,-0.009 0.109,-0c0.05,0.008 0.075,0.016 0.083,0.016c0.017,0 0.034,-0.008 0.051,-0.016c0.083,-0.059 0.134,-0.126 0.134,-0.21c-0,-0.075 -0.051,-0.117 -0.159,-0.117c-0.034,-0 -0.059,-0 -0.084,0.008c-0.21,0.034 -0.452,0.21 -0.72,0.536c-0.268,0.327 -0.402,0.62 -0.402,0.888c-0,0.109 0.025,0.201 0.083,0.276c0.059,0.076 0.134,0.126 0.218,0.16c0.084,0.033 0.184,0.05 0.293,0.05c0.226,-0 0.511,-0.076 0.846,-0.218c0.251,-0.109 0.503,-0.243 0.754,-0.402c0.218,-0.142 0.326,-0.218 0.326,-0.243c0.034,-0.025 0.025,-0.05 0,-0.075m-2.947,-0.193c-0,0.084 -0.009,0.159 -0.034,0.235c-0.025,0.075 -0.059,0.159 -0.1,0.251c-0.042,0.092 -0.134,0.184 -0.26,0.276c-0.126,0.092 -0.235,0.143 -0.335,0.143c-0.025,-0 -0.059,-0.009 -0.084,-0.017c-0.075,-0.025 -0.134,-0.084 -0.176,-0.176c-0.042,-0.084 -0.058,-0.184 -0.058,-0.285c-0,-0.075 0.008,-0.134 0.025,-0.184c0.084,-0.234 0.184,-0.427 0.31,-0.561c0.075,-0.084 0.184,-0.151 0.318,-0.201l-0.008,-0.025c0.1,0.017 0.167,0.042 0.217,0.084c0.042,0.033 0.076,0.092 0.109,0.167c0.059,0.101 0.076,0.193 0.076,0.293m-0.067,-0.645c-0.118,-0.083 -0.235,-0.134 -0.369,-0.134c-0.126,0 -0.26,0.067 -0.394,0.21c-0.134,0.142 -0.259,0.351 -0.385,0.636c-0.025,0.067 -0.05,0.126 -0.058,0.184c-0.009,0.059 -0.017,0.126 -0.017,0.176c-0,0.151 0.033,0.302 0.109,0.436c0.067,0.117 0.134,0.201 0.226,0.251c0.05,0.025 0.109,0.042 0.176,0.042c0.226,-0 0.444,-0.101 0.661,-0.293c0.243,-0.226 0.36,-0.486 0.36,-0.796l0,-0.084c0,-0.025 0,-0.058 -0.008,-0.083c-0.042,-0.243 -0.142,-0.427 -0.301,-0.545m-1.466,-1.649c-0.034,-0 -0.059,0.008 -0.092,0.041c-0.034,0.026 -0.059,0.151 -0.076,0.369c-0.016,0.218 -0.041,0.452 -0.067,0.703c-0.05,0.553 -0.083,0.905 -0.092,1.056c-0.033,0.452 -0.05,0.804 -0.05,1.063c0,0.117 0.008,0.21 0.017,0.293c0.008,0.076 0.025,0.126 0.042,0.134c0.042,0.034 0.083,0.051 0.109,0.051c0.041,-0 0.067,-0.026 0.083,-0.067c0.017,-0.051 0.025,-0.126 0.025,-0.243l0,-0.252c0,-0.268 0,-0.519 0.009,-0.745c0.008,-0.226 0.025,-0.461 0.058,-0.712c0.034,-0.251 0.076,-0.594 0.143,-1.038c0.033,-0.235 0.05,-0.385 0.05,-0.444c0,-0.059 -0.008,-0.101 -0.033,-0.126c-0.042,-0.058 -0.084,-0.083 -0.126,-0.083m-0.678,3.55c-0,-0.033 -0.009,-0.075 -0.026,-0.125c-0.008,-0.017 -0.025,-0.059 -0.05,-0.109c-0.008,-0.025 -0.017,-0.243 -0.017,-0.662c0,-0.427 -0.008,-0.72 -0.033,-0.887c-0.034,-0.235 -0.101,-0.369 -0.209,-0.394c-0.126,-0.025 -0.293,0.151 -0.52,0.519c-0.075,0.126 -0.167,0.31 -0.293,0.561c0,-0.016 -0.008,-0.042 -0.008,-0.067c-0,-0.016 -0,-0.05 0.008,-0.1c0,-0.059 0.009,-0.117 0.009,-0.168c-0,-0.109 0.008,-0.217 0.025,-0.343c0.017,-0.126 0.025,-0.193 0.025,-0.218c-0,-0.033 -0.008,-0.058 -0.017,-0.075c-0.033,-0.05 -0.084,-0.076 -0.151,-0.076c-0.058,0 -0.092,0.034 -0.1,0.109c-0.025,0.151 -0.034,0.243 -0.034,0.285c-0.016,0.168 -0.025,0.352 -0.025,0.561c0,0.134 0,0.293 -0.008,0.461c-0.008,0.167 -0.017,0.335 -0.025,0.486c-0,0.058 0.008,0.108 0.033,0.142c0.025,0.033 0.059,0.05 0.101,0.05c0.025,0 0.058,-0.008 0.084,-0.025c0.025,-0.017 0.05,-0.067 0.075,-0.151c0.042,-0.159 0.084,-0.293 0.126,-0.402c0.108,-0.301 0.234,-0.586 0.376,-0.854c0.093,-0.117 0.185,-0.243 0.277,-0.36c0.025,0.025 0.042,0.092 0.042,0.193l-0,0.577c-0,0.118 0.008,0.26 0.016,0.419c0.009,0.159 0.017,0.302 0.034,0.436c-0,0.025 -0,0.05 -0.008,0.058c-0.009,0.017 -0.009,0.042 -0.009,0.067c0,0.059 0.025,0.109 0.067,0.151c0.042,0.042 0.092,0.059 0.142,0.059c0.026,-0 0.051,-0.009 0.067,-0.025c0.017,-0.017 0.026,-0.051 0.026,-0.093m-1.608,-3.165c0.008,-0.042 0.016,-0.076 0.016,-0.109c0,-0.059 -0.016,-0.109 -0.05,-0.134c-0.033,-0.034 -0.1,-0.05 -0.184,-0.05c-0.05,-0 -0.092,0.016 -0.109,0.05c-0.017,0.033 -0.025,0.084 -0.025,0.151c-0,0.025 -0,0.067 0.008,0.134c0.009,0.067 0.009,0.109 0.009,0.125c-0,0.185 -0.067,0.461 -0.185,0.838c-0.15,0.46 -0.343,0.837 -0.561,1.147c-0.284,0.394 -0.603,0.603 -0.946,0.637c-0.159,0.016 -0.31,-0.126 -0.444,-0.428c-0.134,-0.301 -0.201,-0.603 -0.201,-0.904c0,-0.226 0.009,-0.452 0.017,-0.678c0.008,-0.226 0.025,-0.444 0.042,-0.637c-0,-0.067 -0.009,-0.109 -0.025,-0.125c-0.017,-0.017 -0.051,-0.034 -0.101,-0.042c-0.109,-0 -0.176,0.042 -0.209,0.125c-0.034,0.084 -0.042,0.252 -0.042,0.511l-0,0.637c-0,0.443 0.084,0.862 0.243,1.247c0.167,0.386 0.36,0.587 0.594,0.587c0.402,-0 0.779,-0.185 1.114,-0.561c0.277,-0.302 0.511,-0.712 0.712,-1.215c0.159,-0.41 0.268,-0.804 0.318,-1.181c-0.008,-0.041 0,-0.083 0.009,-0.125" style="fill:#003976;fill-rule:nonzero;"/></g></svg>