<?xml version="1.0" encoding="UTF-8" standalone="no"?><!DOCTYPE svg PUBLIC "-//W3C//DTD SVG 1.1//EN" "http://www.w3.org/Graphics/SVG/1.1/DTD/svg11.dtd"><svg width="100%" height="100%" viewBox="0 0 56 56" version="1.1" xmlns="http://www.w3.org/2000/svg" xmlns:xlink="http://www.w3.org/1999/xlink" xml:space="preserve" xmlns:serif="http://www.serif.com/" style="fill-rule:evenodd;clip-rule:evenodd;stroke-linejoin:round;stroke-miterlimit:2;"><g><rect id="canvas_background" x="-1" y="-1" width="58" height="58" style="fill:#fff;"/></g><g><path d="M45.753,26.938l-0.004,0.004l-0.007,0.003l0.011,-0.007Z" style="fill:#14877e;fill-rule:nonzero;"/><path d="M49.285,33.49c-0.002,-0 -0.005,-0 -0.008,0.004l-0.003,0l0.011,-0.004Z" style="fill:#14877e;fill-rule:nonzero;"/><path d="M39.848,41.102l0.017,-0l-0.017,-0Z" style="fill:#14877e;fill-rule:nonzero;"/><path d="M43.216,40.965l0.012,0l-0.012,0Z" style="fill:#14877e;fill-rule:nonzero;"/><path d="M47.138,40.753l-0.013,-0l0.013,-0Z" style="fill:#14877e;fill-rule:nonzero;"/><path d="M51.523,40.506l0.016,-0l-0.016,-0Z" style="fill:#14877e;fill-rule:nonzero;"/><path d="M42.056,25.071c0.02,-0.07 0.018,-0.153 0.018,-0.224c0,-0.152 -0.088,-0.293 -0.23,-0.293l-0.045,0l0.309,-3c0.101,0.014 0.213,0.022 0.335,0.025c0.194,-0.004 0.362,-0.025 0.504,-0.057l1.595,2.866l-0.035,0.013c-0.133,0.044 -0.162,0.214 -0.116,0.349c0.024,0.083 0.054,0.159 0.094,0.217l0.97,-0.352c-0.004,-0.062 -0.034,-0.156 -0.057,-0.221c-0.048,-0.132 -0.186,-0.259 -0.323,-0.203l-0.051,0.019l-1.602,-2.869c0.202,-0.121 0.29,-0.251 0.315,-0.294c0.048,-0.101 0.009,-0.134 -0.035,-0.21c-0.049,-0.056 -0.228,-0.286 -0.482,-0.943c-0.082,-0.219 -0.163,-0.372 -0.236,-0.487c-0.007,0.006 -0.013,0.011 -0.026,0.011l-1.029,0c-0.012,0 -0.016,-0.005 -0.021,-0.011c-0.077,0.115 -0.156,0.268 -0.235,0.487c-0.26,0.657 -0.437,0.887 -0.484,0.943c-0.045,0.076 -0.084,0.109 -0.036,0.21c0.03,0.053 0.154,0.237 0.47,0.375l-0.326,3.132l-0.059,0c-0.144,0 -0.231,0.141 -0.231,0.293c0,0.071 0,0.154 0.017,0.224l1.032,-0Z" style="fill:#14877e;fill-rule:nonzero;"/><path d="M48.927,30.942c-0.048,-0.147 -0.179,-0.254 -0.315,-0.199l-0.075,0.027l-2.279,-4.087c0.429,-0.291 0.511,-0.599 0.524,-0.673c0.01,-0.108 -0.039,-0.149 -0.103,-0.183c-0.067,-0.048 -0.31,-0.193 -0.775,-0.731c-0.149,-0.174 -0.279,-0.291 -0.382,-0.383c-0.004,0.009 -0.013,0.015 -0.024,0.015l-0.965,0.357c-0.012,0.004 -0.024,0.004 -0.031,0c-0.025,0.133 -0.054,0.312 -0.057,0.526c-0.016,0.715 -0.106,0.981 -0.133,1.066c-0.022,0.072 -0.036,0.133 0.039,0.203c0.044,0.039 0.222,0.169 0.552,0.194l-0.64,3.777l-2.189,-3.557c0.53,-0.126 0.718,-0.402 0.758,-0.464c0.045,-0.102 0.011,-0.136 -0.039,-0.213c-0.044,-0.055 -0.227,-0.288 -0.48,-0.943c-0.084,-0.217 -0.162,-0.372 -0.233,-0.484c-0.01,0.004 -0.016,0.01 -0.024,0.01l-1.035,0c-0.005,0 -0.017,-0.006 -0.024,-0.01c-0.073,0.112 -0.153,0.267 -0.231,0.484c-0.257,0.655 -0.434,0.888 -0.484,0.943c-0.044,0.077 -0.083,0.111 -0.034,0.213c0.037,0.06 0.203,0.299 0.65,0.435l-0.316,4.378l-0.087,0.004c-0.139,0.004 -0.221,0.16 -0.217,0.295c0.009,0.078 0.009,0.165 0.032,0.233l1.028,-0.05c0.02,-0.058 0.01,-0.153 0.005,-0.226c-0.005,-0.144 -0.097,-0.286 -0.238,-0.282l-0.02,0.001l0.308,-4.269c0.043,0.003 0.088,0.006 0.134,0.008l2.445,3.976c-0.076,0.055 -0.116,0.164 -0.111,0.266c0.002,0.07 0.002,0.167 0.029,0.222l1.03,-0.034c0.016,-0.074 0.007,-0.153 0.005,-0.238c-0.002,-0.142 -0.093,-0.28 -0.226,-0.28l0.719,-4.235c0.102,-0.02 0.21,-0.049 0.328,-0.089c0.026,-0.01 0.048,-0.02 0.071,-0.03l2.243,4.021l-0.019,0.007c-0.137,0.053 -0.168,0.223 -0.116,0.353c0.027,0.07 0.053,0.159 0.09,0.219l0.973,-0.349l0,-0.004c-0.002,-0.074 -0.036,-0.151 -0.061,-0.22Z" style="fill:#14877e;fill-rule:nonzero;"/><path d="M52.79,39.768c-0.052,-0.067 -0.228,-0.288 -0.478,-0.958c-0.084,-0.207 -0.162,-0.353 -0.231,-0.485c-0.012,0.001 -0.014,0.008 -0.027,0.008l-1.026,-0.007c-0.014,0 -0.025,-0.001 -0.031,-0.001c-0.07,0.123 -0.152,0.278 -0.231,0.477c-0.259,0.674 -0.439,0.888 -0.491,0.96c-0.044,0.057 -0.078,0.112 -0.033,0.192c0.05,0.101 0.339,0.536 1.29,0.549c0.946,-0.009 1.247,-0.444 1.295,-0.538c0.044,-0.082 0.01,-0.133 -0.037,-0.197Z" style="fill:#14877e;fill-rule:nonzero;"/><path d="M51.003,37.979c-0,0.069 -0,0.169 0.022,0.222l0.001,0l1.028,0.005c0.023,-0.057 0.02,-0.151 0.02,-0.225c0.003,-0.144 -0.088,-0.296 -0.227,-0.296l-0.155,-0l-2.011,-4.385c0.527,-0.308 0.618,-0.663 0.633,-0.752c0.01,-0.097 -0.039,-0.135 -0.106,-0.169c-0.062,-0.053 -0.311,-0.193 -0.772,-0.732c-0.15,-0.173 -0.277,-0.291 -0.383,-0.385c-0.003,0.01 -0.017,0.016 -0.023,0.016l-0.967,0.36c-0.01,0.002 -0.022,0.002 -0.029,0c-0.028,0.128 -0.049,0.301 -0.056,0.527c-0.017,0.709 -0.108,0.973 -0.132,1.062c-0.019,0.073 -0.038,0.132 0.035,0.195c0.036,0.035 0.159,0.129 0.382,0.177l-1.203,3.92l-1.964,-3.529c0.478,-0.155 0.643,-0.422 0.676,-0.488c0.044,-0.1 0.004,-0.134 -0.043,-0.205c-0.054,-0.053 -0.246,-0.274 -0.528,-0.924c-0.088,-0.208 -0.176,-0.36 -0.252,-0.471c-0.009,0.009 -0.015,0.012 -0.024,0.012l-1.032,0.032c-0.007,0 -0.018,0 -0.023,-0.003c-0.071,0.128 -0.14,0.287 -0.211,0.493c-0.229,0.674 -0.397,0.911 -0.443,0.97c-0.044,0.074 -0.078,0.126 -0.024,0.209c0.045,0.067 0.278,0.39 0.932,0.465l-0.952,3.582l-1.473,-3.396c0.335,-0.152 0.46,-0.359 0.489,-0.421c0.047,-0.088 0.008,-0.14 -0.044,-0.196c-0.049,-0.068 -0.236,-0.273 -0.52,-0.935c-0.092,-0.197 -0.177,-0.346 -0.254,-0.474c-0.01,0.007 -0.015,0.011 -0.027,0.011l-1.029,0.047c-0.01,0 -0.018,0 -0.027,-0.007c-0.061,0.121 -0.14,0.278 -0.21,0.499c-0.229,0.672 -0.398,0.896 -0.442,0.967c-0.044,0.075 -0.078,0.11 -0.025,0.208c0.032,0.048 0.162,0.224 0.474,0.348l-0.457,3.981l-0.064,-0c-0.143,-0 -0.231,0.147 -0.231,0.292c-0,0.071 -0.002,0.166 0.019,0.224l1.031,0.006l0.002,-0c0.018,-0.057 0.013,-0.152 0.013,-0.226c0,-0.144 -0.083,-0.289 -0.225,-0.296l-0.042,-0l0.443,-3.872c0.106,0.011 0.223,0.016 0.351,0.011c0.103,-0.005 0.199,-0.015 0.289,-0.028l1.643,3.77c-0.101,0.036 -0.158,0.158 -0.16,0.273c-0,0.073 -0.002,0.162 0.021,0.226l1.029,0.006c0.023,-0.067 0.019,-0.154 0.019,-0.223c0.004,-0.138 -0.08,-0.278 -0.207,-0.292l1.063,-4.005l2.112,3.8c-0.079,0.053 -0.127,0.159 -0.127,0.264c-0,0.084 -0,0.166 0.02,0.237l1.03,0.004c0.024,-0.073 0.018,-0.151 0.018,-0.235c0.006,-0.142 -0.082,-0.291 -0.221,-0.297l1.326,-4.32c0.134,-0.017 0.283,-0.051 0.447,-0.103l1.921,4.199c-0.089,0.047 -0.137,0.161 -0.144,0.27Z" style="fill:#14877e;fill-rule:nonzero;"/><path d="M40.635,39.419c-0.075,-0.217 -0.154,-0.361 -0.228,-0.483c-0.01,0.003 -0.018,0.006 -0.025,0.006l-1.029,-0.003c-0.014,0 -0.021,-0.003 -0.027,-0.011c-0.075,0.126 -0.156,0.267 -0.234,0.484c-0.26,0.66 -0.439,0.885 -0.485,0.945c-0.05,0.069 -0.088,0.119 -0.042,0.205c0.05,0.087 0.345,0.528 1.289,0.537c0.952,-0.009 1.251,-0.44 1.295,-0.524c0.048,-0.084 0.01,-0.135 -0.035,-0.207c-0.047,-0.058 -0.223,-0.294 -0.479,-0.949Z" style="fill:#14877e;fill-rule:nonzero;"/><path d="M44.002,39.28c-0.076,-0.212 -0.156,-0.371 -0.227,-0.48c-0.012,0 -0.021,0.007 -0.025,0.007l-1.03,-0.007c-0.013,0 -0.024,0 -0.029,-0.007c-0.072,0.115 -0.153,0.273 -0.235,0.484c-0.26,0.661 -0.44,0.884 -0.49,0.944c-0.045,0.068 -0.078,0.12 -0.034,0.205c0.05,0.091 0.342,0.525 1.29,0.539c0.946,-0.011 1.246,-0.445 1.294,-0.525c0.047,-0.09 0.013,-0.137 -0.034,-0.211c-0.051,-0.055 -0.223,-0.287 -0.48,-0.949Z" style="fill:#14877e;fill-rule:nonzero;"/><path d="M47.911,39.063c-0.078,-0.206 -0.156,-0.366 -0.226,-0.477c-0.012,0.006 -0.017,0.007 -0.034,0.007l-1.024,-0.003c-0.01,0 -0.021,-0.003 -0.027,-0.008c-0.074,0.112 -0.152,0.268 -0.233,0.476c-0.261,0.666 -0.436,0.88 -0.491,0.951c-0.046,0.057 -0.079,0.109 -0.033,0.204c0.05,0.085 0.34,0.524 1.292,0.54c0.946,-0.011 1.239,-0.439 1.291,-0.535c0.044,-0.09 0.013,-0.14 -0.04,-0.198c-0.044,-0.073 -0.221,-0.289 -0.475,-0.957Z" style="fill:#14877e;fill-rule:nonzero;"/><path d="M16.147,41.102l-0.012,-0l0.012,-0Z" style="fill:#14877e;fill-rule:nonzero;"/><path d="M12.779,40.965l-0.01,0l0.01,0Z" style="fill:#14877e;fill-rule:nonzero;"/><path d="M8.858,40.753l0.015,-0l-0.015,-0Z" style="fill:#14877e;fill-rule:nonzero;"/><path d="M4.474,40.506l-0.013,-0l0.013,-0Z" style="fill:#14877e;fill-rule:nonzero;"/><path d="M11.515,24.967c0.039,-0.058 0.068,-0.134 0.091,-0.217c0.049,-0.135 0.017,-0.305 -0.114,-0.349l-0.035,-0.013l1.596,-2.866c0.141,0.032 0.307,0.053 0.5,0.057c0.121,-0.003 0.232,-0.011 0.331,-0.025l0.314,3l-0.044,0c-0.145,0 -0.228,0.141 -0.228,0.293c-0,0.071 -0.006,0.154 0.015,0.224l1.032,-0c0.021,-0.07 0.021,-0.153 0.021,-0.224c-0,-0.152 -0.086,-0.293 -0.234,-0.293l-0.058,0l-0.325,-3.134c0.313,-0.137 0.437,-0.32 0.469,-0.373c0.046,-0.101 0.01,-0.134 -0.038,-0.21c-0.048,-0.056 -0.224,-0.286 -0.482,-0.943c-0.08,-0.219 -0.162,-0.372 -0.234,-0.487c-0.007,0.006 -0.015,0.011 -0.023,0.011l-1.032,0c-0.008,0 -0.021,-0.005 -0.025,-0.011c-0.075,0.115 -0.15,0.268 -0.233,0.487c-0.257,0.657 -0.434,0.887 -0.485,0.943c-0.044,0.076 -0.08,0.109 -0.031,0.21c0.022,0.043 0.11,0.173 0.312,0.294l-1.597,2.871l-0.059,-0.021c-0.136,-0.056 -0.268,0.071 -0.318,0.203c-0.022,0.065 -0.056,0.159 -0.058,0.221l0.968,0.352l0.004,0Z" style="fill:#14877e;fill-rule:nonzero;"/><path d="M7.982,31.515c0.036,-0.06 0.067,-0.149 0.093,-0.219c0.046,-0.13 0.017,-0.3 -0.118,-0.353l-0.021,-0.007l2.247,-4.019c0.022,0.009 0.044,0.018 0.068,0.028c0.118,0.04 0.227,0.069 0.329,0.091l0.719,4.233c-0.134,-0.001 -0.219,0.137 -0.225,0.28c-0.007,0.085 -0.014,0.164 0.007,0.238l1.027,0.034c0.02,-0.055 0.027,-0.152 0.029,-0.222c0.005,-0.104 -0.037,-0.215 -0.114,-0.267l2.445,-3.975c0.046,-0.002 0.093,-0.005 0.136,-0.008l0.308,4.269l-0.02,-0.001c-0.141,-0.004 -0.236,0.138 -0.239,0.282c-0.002,0.073 -0.009,0.168 0.008,0.226l1.025,0.05c0.031,-0.068 0.031,-0.155 0.031,-0.233c0.008,-0.135 -0.072,-0.291 -0.218,-0.295l-0.082,-0.004l-0.315,-4.379c0.448,-0.136 0.613,-0.377 0.645,-0.434c0.049,-0.102 0.014,-0.136 -0.03,-0.213c-0.049,-0.055 -0.226,-0.288 -0.486,-0.943c-0.08,-0.217 -0.162,-0.372 -0.234,-0.484c-0.006,0.004 -0.013,0.01 -0.024,0.01l-1.032,0c-0.008,0 -0.017,-0.006 -0.024,-0.01c-0.071,0.112 -0.153,0.267 -0.232,0.484c-0.253,0.655 -0.436,0.888 -0.482,0.943c-0.048,0.077 -0.082,0.111 -0.036,0.213c0.036,0.062 0.227,0.338 0.753,0.464l-2.181,3.554l-0.645,-3.774c0.333,-0.025 0.509,-0.155 0.553,-0.194c0.075,-0.07 0.061,-0.131 0.038,-0.203c-0.024,-0.085 -0.117,-0.351 -0.137,-1.066c-0.004,-0.214 -0.023,-0.393 -0.051,-0.526c-0.012,0.004 -0.022,0.004 -0.029,0l-0.972,-0.357c-0.005,-0 -0.014,-0.006 -0.018,-0.015c-0.106,0.092 -0.235,0.209 -0.383,0.383c-0.462,0.538 -0.708,0.683 -0.776,0.731c-0.065,0.034 -0.114,0.075 -0.098,0.183c0.011,0.074 0.089,0.382 0.518,0.673l-2.279,4.084l-0.071,-0.024c-0.136,-0.055 -0.269,0.052 -0.319,0.199c-0.024,0.069 -0.057,0.146 -0.06,0.22l0,0.004l0.967,0.349l0.005,-0Z" style="fill:#14877e;fill-rule:nonzero;"/><path d="M17.39,40.357c-0.045,-0.06 -0.223,-0.285 -0.485,-0.945c-0.079,-0.217 -0.159,-0.358 -0.231,-0.484c-0.006,0.008 -0.016,0.011 -0.03,0.011l-1.026,0.003c-0.014,0 -0.017,-0.003 -0.028,-0.006c-0.07,0.122 -0.15,0.266 -0.23,0.483c-0.253,0.655 -0.429,0.891 -0.475,0.949c-0.047,0.072 -0.085,0.123 -0.036,0.207c0.05,0.084 0.342,0.515 1.293,0.524c0.95,-0.009 1.24,-0.45 1.287,-0.537c0.048,-0.086 0.01,-0.136 -0.039,-0.205Z" style="fill:#14877e;fill-rule:nonzero;"/><path d="M13.541,39.277c-0.082,-0.211 -0.162,-0.369 -0.234,-0.484c-0.007,0.007 -0.014,0.007 -0.028,0.007l-1.026,0.007c-0.014,0 -0.017,-0.007 -0.028,-0.007c-0.073,0.109 -0.151,0.268 -0.232,0.48c-0.25,0.662 -0.434,0.894 -0.475,0.949c-0.051,0.074 -0.084,0.121 -0.035,0.211c0.049,0.08 0.346,0.514 1.292,0.525c0.946,-0.014 1.241,-0.448 1.29,-0.539c0.043,-0.085 0.012,-0.137 -0.036,-0.205c-0.049,-0.06 -0.229,-0.283 -0.488,-0.944Z" style="fill:#14877e;fill-rule:nonzero;"/><path d="M9.634,39.058c-0.083,-0.208 -0.163,-0.364 -0.237,-0.476c-0.009,0.005 -0.016,0.008 -0.024,0.008l-1.033,0.003c-0.006,0 -0.013,-0.001 -0.02,-0.007c-0.075,0.111 -0.155,0.271 -0.238,0.477c-0.249,0.668 -0.43,0.884 -0.476,0.957c-0.048,0.058 -0.079,0.108 -0.035,0.198c0.047,0.096 0.346,0.524 1.294,0.535c0.948,-0.016 1.24,-0.455 1.292,-0.54c0.046,-0.095 0.009,-0.147 -0.038,-0.204c-0.05,-0.071 -0.228,-0.285 -0.485,-0.951Z" style="fill:#14877e;fill-rule:nonzero;"/><path d="M5.233,38.802c-0.084,-0.199 -0.162,-0.354 -0.234,-0.477c-0.006,0 -0.019,0.001 -0.027,0.001l-1.029,0.007c-0.013,0 -0.017,-0.007 -0.025,-0.008c-0.074,0.132 -0.153,0.278 -0.233,0.485c-0.251,0.67 -0.427,0.891 -0.477,0.958c-0.048,0.064 -0.079,0.115 -0.032,0.197c0.045,0.094 0.342,0.529 1.286,0.538c0.954,-0.013 1.245,-0.448 1.296,-0.549c0.044,-0.08 0.01,-0.135 -0.039,-0.192c-0.049,-0.072 -0.227,-0.286 -0.486,-0.96Z" style="fill:#14877e;fill-rule:nonzero;"/><path d="M15.422,34.422l0.444,3.872l-0.039,-0c-0.145,0.007 -0.231,0.152 -0.226,0.296c0,0.074 -0.005,0.169 0.017,0.226l1.026,-0.006l0.003,0c0.021,-0.058 0.017,-0.153 0.017,-0.224c-0,-0.145 -0.09,-0.292 -0.23,-0.292l-0.062,-0l-0.459,-3.981c0.311,-0.124 0.44,-0.3 0.474,-0.348c0.053,-0.098 0.016,-0.133 -0.025,-0.208c-0.047,-0.071 -0.215,-0.295 -0.442,-0.967c-0.071,-0.221 -0.143,-0.378 -0.211,-0.499c-0.007,0.007 -0.015,0.007 -0.027,0.007l-1.029,-0.047c-0.008,0 -0.015,-0.004 -0.022,-0.011c-0.078,0.128 -0.166,0.277 -0.255,0.474c-0.284,0.662 -0.473,0.867 -0.524,0.935c-0.051,0.056 -0.085,0.108 -0.044,0.196c0.028,0.062 0.153,0.269 0.486,0.421l-1.472,3.394l-0.949,-3.58c0.651,-0.075 0.888,-0.4 0.933,-0.465c0.056,-0.083 0.019,-0.135 -0.027,-0.209c-0.042,-0.059 -0.208,-0.296 -0.439,-0.97c-0.073,-0.206 -0.141,-0.365 -0.214,-0.493c-0.004,0.003 -0.012,0.003 -0.025,0.003l-1.026,-0.032c-0.014,-0 -0.022,-0.003 -0.03,-0.012c-0.073,0.111 -0.159,0.263 -0.248,0.471c-0.284,0.65 -0.477,0.871 -0.523,0.924c-0.053,0.071 -0.087,0.105 -0.047,0.205c0.035,0.066 0.196,0.333 0.674,0.488l-1.962,3.529l-1.204,-3.92c0.223,-0.048 0.344,-0.142 0.381,-0.177c0.074,-0.063 0.059,-0.122 0.04,-0.195c-0.03,-0.089 -0.12,-0.353 -0.141,-1.062c-0.001,-0.226 -0.027,-0.399 -0.051,-0.527c-0.013,0.002 -0.019,0.002 -0.026,0l-0.974,-0.36c-0.004,-0 -0.012,-0.006 -0.017,-0.016c-0.11,0.094 -0.239,0.212 -0.383,0.385c-0.467,0.539 -0.707,0.679 -0.775,0.732c-0.07,0.034 -0.118,0.072 -0.101,0.169c0.013,0.089 0.104,0.444 0.629,0.755l-2.002,4.382l-0.165,-0c-0.143,-0 -0.228,0.152 -0.228,0.296c-0,0.074 -0,0.168 0.02,0.225l1.03,-0.005c0.025,-0.053 0.023,-0.153 0.018,-0.222c0,-0.109 -0.052,-0.223 -0.14,-0.27l1.922,-4.198c0.165,0.053 0.314,0.085 0.446,0.102l1.328,4.32c-0.139,0.006 -0.223,0.155 -0.223,0.297c-0,0.084 -0.003,0.162 0.018,0.235l1.032,-0.004c0.021,-0.071 0.018,-0.153 0.018,-0.237c0,-0.103 -0.047,-0.211 -0.126,-0.262l2.11,-3.802l1.064,4.005c-0.131,0.014 -0.209,0.154 -0.209,0.292c0,0.069 -0.001,0.156 0.023,0.223l1.026,-0.006c0.022,-0.064 0.017,-0.153 0.017,-0.226c-0,-0.113 -0.058,-0.235 -0.156,-0.273l1.644,-3.77c0.089,0.013 0.185,0.023 0.29,0.028c0.127,0.005 0.243,0 0.348,-0.011Z" style="fill:#14877e;fill-rule:nonzero;"/><path d="M21.55,26.958c-0.035,0.082 -0.074,0.187 -0.102,0.271l13.155,-0c-0.031,-0.084 -0.067,-0.189 -0.102,-0.271c-0.338,-0.873 -0.785,-1.667 -1.31,-2.348l-10.328,-0c-0.532,0.681 -0.974,1.475 -1.313,2.348Z" style="fill:#03a1dc;fill-rule:nonzero;"/><path d="M20.801,31.015c-0,0.394 0.023,0.794 0.061,1.174c0.007,0.085 0.02,0.19 0.03,0.275l14.267,-0c0.01,-0.085 0.018,-0.19 0.027,-0.275c0.04,-0.38 0.06,-0.78 0.06,-1.174c-0,-0.395 -0.02,-0.791 -0.06,-1.17l-14.324,-0c-0.038,0.379 -0.061,0.775 -0.061,1.17Z" style="fill:#03a1dc;fill-rule:nonzero;"/><path d="M21.576,35.141c0.336,0.852 0.773,1.608 1.287,2.283l10.324,0c0.515,-0.675 0.949,-1.431 1.284,-2.283c0.044,-0.106 0.088,-0.224 0.13,-0.334l-13.153,-0c0.043,0.11 0.085,0.228 0.128,0.334Z" style="fill:#03a1dc;fill-rule:nonzero;"/><path d="M37.751,28.778c0.199,0.101 0.748,0.101 1.09,0.101c0.349,-0 0.685,-0.663 0.655,-0.836c-0.03,-0.162 0.041,-1.505 0.041,-1.505c0.03,-1.446 -0.923,-1.71 -2.058,-1.71c-0.721,0 -1.32,0.344 -1.751,0.741c-0.082,0.079 -0.196,0.135 -0.315,0.135c-0.263,-0 -0.472,-0.22 -0.472,-0.48c-0,-0.255 0.209,-0.474 0.472,-0.474c0.048,0 0.097,0.009 0.141,0.028c0.032,-0.028 0.922,-0.798 1.421,-1.296c0.508,-0.522 0.092,-0.969 0.092,-0.969l-1.165,-1.923c-0.212,-0.298 -0.401,-0.542 -0.753,-0.542c-0.443,0 -0.797,0.337 -0.797,0.762c-0,0.342 0.222,0.626 0.536,0.728l-0.006,0.006c-0.11,0.048 -0.308,0.11 -0.435,0.11c-0.336,0 -0.661,-0.152 -0.797,-0.404c-0,-0.001 -1.513,-2.93 -2.546,-2.93l-6.252,0c-1.033,0 -2.542,2.933 -2.542,2.933c-0.172,0.281 -0.468,0.406 -0.801,0.406c-0.133,-0 -0.322,-0.063 -0.44,-0.113l-0.003,-0.005c0.31,-0.098 0.535,-0.386 0.535,-0.728c0,-0.424 -0.355,-0.761 -0.791,-0.761c-0.356,0 -0.545,0.245 -0.758,0.538l-1.165,1.931c0,0 -0.413,0.45 0.095,0.964c0.497,0.495 1.376,1.252 1.415,1.298l0.005,-0c0.044,-0.023 0.093,-0.029 0.145,-0.029c0.258,0 0.468,0.219 0.468,0.476c0,0.255 -0.21,0.475 -0.468,0.475c-0.128,0 -0.242,-0.054 -0.323,-0.136c-0.433,-0.396 -1.028,-0.736 -1.746,-0.736c-1.137,-0 -2.088,0.262 -2.058,1.711c-0,-0 0.071,1.337 0.035,1.503c-0.03,0.173 0.315,0.839 0.659,0.839c0.339,-0 0.891,-0 1.094,-0.106c0.203,-0.087 0.547,-0.279 0.639,0.021c0.096,0.299 0.267,0.945 -0.232,1.153c-0.498,0.229 -0.423,-0.054 -0.69,-0.105c-0.261,-0.052 -1.125,-0.072 -1.091,0.42c0.031,0.503 0.075,0.543 0.031,0.895c-0.049,0.347 -0.113,1.23 0.403,1.418c0.517,0.194 0.657,0.233 0.676,0.383c0.015,0.135 -0.491,0.403 -0.598,0.438c-0.814,0.362 -0.85,1.193 -0.85,1.193l0,2.402c0,0.259 0.409,0.463 0.917,0.463c0.263,-0 0.505,-0.048 0.668,-0.143c0.044,-0.017 0.087,-0.054 0.117,-0.084l0.01,-0.013c0.287,-0.261 0.641,-0.427 1.032,-0.427c0.93,0 1.685,0.918 1.685,2.042c-0,0.503 -0.147,0.949 -0.394,1.312l-0.004,-0.003c0.06,-0.086 0.091,-0.197 0.091,-0.302c0,-0.299 -0.24,-0.532 -0.536,-0.532c-0.297,-0 -0.539,0.233 -0.539,0.532c-0,0.006 -0,0.006 0.001,0.013l-0.006,-0c0.036,1.095 0.927,1.976 2.025,1.976c0.658,0 1.244,-0.317 1.606,-0.8l0.014,0c0.011,1.013 0.756,1.826 1.683,1.826c0.329,-0 0.637,-0.104 0.898,-0.292l0.004,-0c0.089,0.738 1.155,1.386 1.72,1.587l0.003,0c0.007,0.003 0.012,0.009 0.019,0.013c0.13,0.068 0.381,0.38 0.496,0.529c0.198,-0.292 0.319,-0.425 0.402,-0.489c0.022,-0.027 0.039,-0.044 0.059,-0.053c0.004,-0.001 0.007,-0.002 0.01,-0.004c0.567,-0.197 1.597,-0.871 1.708,-1.583c0.268,0.186 0.573,0.288 0.905,0.288c0.919,-0 1.67,-0.813 1.684,-1.825l0.007,0c0.37,0.486 0.957,0.803 1.612,0.803c1.099,0 1.989,-0.885 2.025,-1.979l-0.011,-0c0.006,-0.004 0.006,-0.01 0.006,-0.013c0,-0.306 -0.24,-0.535 -0.538,-0.535c-0.295,0 -0.541,0.229 -0.541,0.535c-0,0.107 0.034,0.217 0.095,0.299l-0.003,0.006c-0.253,-0.363 -0.396,-0.81 -0.396,-1.312c-0,-1.125 0.755,-2.042 1.681,-2.042c0.396,0 0.755,0.162 1.04,0.427l0.004,0.01c0.035,0.034 0.074,0.064 0.117,0.087c0.165,0.091 0.407,0.14 0.672,0.14c0.505,0 0.911,-0.203 0.911,-0.461l0,-2.4c0,-0 -0.028,-0.837 -0.847,-1.191c-0.109,-0.038 -0.607,-0.305 -0.593,-0.438c0.016,-0.15 0.155,-0.192 0.67,-0.387c0.516,-0.185 0.456,-1.069 0.408,-1.416c-0.048,-0.354 0,-0.39 0.03,-0.893c0.033,-0.496 -0.83,-0.478 -1.092,-0.42c-0.263,0.048 -0.189,0.326 -0.687,0.102c-0.505,-0.21 -0.332,-0.858 -0.235,-1.157c0.09,-0.294 0.436,-0.108 0.642,-0.016Zm-9.791,11.742c-4.14,-0 -7.5,-4.247 -7.5,-9.503c0,-5.258 3.36,-9.515 7.5,-9.515c4.147,0 7.501,4.257 7.501,9.515c0,5.256 -3.354,9.503 -7.501,9.503Z" style="fill:#fde6bb;fill-rule:nonzero;"/><path d="M28.058,44.832l-0.043,0.06l-0.048,-0.056c-0.157,-0.216 -0.344,-0.44 -0.448,-0.524l0.098,1.789c-0,0.05 0.035,0.081 0.088,0.081l0.062,0l0.148,0.897c-0,-0 0.004,0.081 0.079,0.081c0.074,-0 0.074,-0.081 0.074,-0.081l0.152,-0.897l0.062,0c0.053,0 0.091,-0.031 0.091,-0.081l0.098,-1.795c-0.068,0.052 -0.194,0.181 -0.413,0.526Z" style="fill:#f9a825;fill-rule:nonzero;"/><path d="M33.191,24.614c0.526,0.677 0.971,1.476 1.31,2.342c0.035,0.084 0.069,0.186 0.1,0.273l-13.153,-0c0.028,-0.087 0.065,-0.189 0.101,-0.273c0.342,-0.866 0.784,-1.665 1.311,-2.342l10.331,-0Zm2.055,6.401c-0,0.391 -0.02,0.792 -0.06,1.175c-0.009,0.084 -0.017,0.189 -0.03,0.274l-14.264,-0c-0.01,-0.085 -0.023,-0.19 -0.03,-0.274c-0.038,-0.383 -0.061,-0.784 -0.061,-1.175c-0,-0.39 0.023,-0.797 0.061,-1.17l14.324,-0c0.04,0.373 0.06,0.78 0.06,1.17Zm-0.775,4.122c-0.335,0.856 -0.769,1.612 -1.281,2.289l-10.327,-0c-0.514,-0.677 -0.951,-1.433 -1.287,-2.289c-0.043,-0.102 -0.085,-0.214 -0.128,-0.33l13.151,-0c-0.037,0.116 -0.084,0.228 -0.128,0.33Zm-6.511,-13.631c-4.14,-0 -7.5,4.253 -7.5,9.509c0,5.258 3.36,9.505 7.5,9.505c4.147,-0 7.501,-4.247 7.501,-9.505c0,-5.256 -3.354,-9.509 -7.501,-9.509Z" style="fill:#fff;fill-rule:nonzero;"/><path d="M31.463,10.168c-0.224,-0.244 -0.553,-0.397 -1.167,-0.463c-0.074,-0.093 -0.161,-0.191 -0.264,-0.278c-0.415,-0.361 -0.997,-0.587 -2.072,-0.587c-1.068,0 -1.648,0.23 -2.064,0.594c-0.098,0.08 -0.186,0.178 -0.261,0.274c-0.623,0.063 -0.958,0.221 -1.178,0.466c-0.224,0.218 -0.298,0.463 -0.275,0.712c-0,-0 0.736,-0.125 1.297,-0.222c0.757,-0.099 1.606,-0.175 2.481,-0.175c0.901,-0 1.758,0.079 2.527,0.178c0.549,0.101 1.233,0.224 1.233,0.224l0.01,-0.028c0.022,-0.247 -0.051,-0.472 -0.267,-0.695Zm-1.29,-0.058c-1.112,-0.118 -1.249,-0.122 -2.145,-0.139l-0.068,-0.003l-0.064,0.003c-0.896,0.017 -1.035,0.021 -2.144,0.139l-0.012,-0.112c1.114,-0.119 1.252,-0.121 2.156,-0.139l0.132,-0c0.902,0.018 1.039,0.02 2.157,0.139l-0.012,0.112Z" style="fill:#14877e;fill-rule:nonzero;"/><rect x="27.543" y="17.604" width="0.839" height="0.515" style="fill:#f9a825;fill-rule:nonzero;"/><path d="M31.164,15.133c-0,-0.144 -0.107,-0.287 -0.254,-0.31c-0.031,-0.142 -0.17,-0.258 -0.321,-0.258c-0.156,-0 -0.286,0.116 -0.326,0.261l-1.981,-0l0,-0.971l1.534,0c0.04,0.145 0.172,0.266 0.331,0.266c0.154,-0 0.281,-0.121 0.317,-0.264c0.145,-0.027 0.249,-0.175 0.249,-0.315c-0,-0.156 -0.104,-0.29 -0.249,-0.324c-0.036,-0.146 -0.163,-0.252 -0.317,-0.252c-0.159,-0 -0.291,0.106 -0.331,0.252l-1.534,0l0,-0.796c0.143,-0.034 0.248,-0.171 0.248,-0.32c0,-0.159 -0.105,-0.288 -0.243,-0.317c-0.04,-0.143 -0.169,-0.258 -0.327,-0.258c-0.153,-0 -0.282,0.115 -0.322,0.258c-0.146,0.029 -0.247,0.158 -0.247,0.317c0,0.149 0.101,0.286 0.249,0.32l-0,0.796l-1.536,0c-0.039,-0.146 -0.166,-0.252 -0.323,-0.252c-0.152,-0 -0.285,0.106 -0.321,0.252c-0.143,0.034 -0.249,0.168 -0.249,0.324c-0,0.14 0.106,0.288 0.249,0.315c0.036,0.143 0.169,0.264 0.321,0.264c0.157,-0 0.284,-0.121 0.323,-0.266l1.536,0l-0,0.971l-1.982,-0c-0.039,-0.145 -0.17,-0.261 -0.324,-0.261c-0.156,-0 -0.286,0.116 -0.326,0.258c-0.141,0.023 -0.244,0.166 -0.244,0.31c-0,0.158 0.103,0.289 0.244,0.329c0.04,0.14 0.17,0.246 0.326,0.246c0.154,0 0.285,-0.109 0.324,-0.246l1.982,-0l-0,0.973l0.642,-0l0,-0.973l1.981,-0c0.04,0.137 0.17,0.246 0.326,0.246c0.151,0 0.29,-0.106 0.321,-0.246c0.147,-0.04 0.254,-0.171 0.254,-0.329Z" style="fill:#f9a825;fill-rule:nonzero;"/><path d="M28.411,16.629l-0.899,0c-0.162,0 -0.304,0.146 -0.304,0.333l0,0.104c0,0.183 0.142,0.332 0.304,0.332l0.899,0c0.166,0 0.301,-0.149 0.301,-0.332l0,-0.104c0,-0.187 -0.135,-0.333 -0.301,-0.333Z" style="fill:#f9a825;fill-rule:nonzero;"/><path d="M30.246,23.087c0.258,-0.266 0.684,-0.266 0.947,0c0.262,0.256 0.262,0.681 0,0.937c-0.263,0.26 -0.689,0.26 -0.947,-0c-0.266,-0.256 -0.266,-0.681 -0,-0.937Zm0.996,0.989c0.289,-0.289 0.289,-0.759 -0,-1.044c-0.291,-0.29 -0.759,-0.29 -1.047,0c-0.285,0.285 -0.285,0.755 -0,1.044c0.288,0.291 0.756,0.291 1.047,0Z" style="fill:#ef454e;fill-rule:nonzero;"/><path d="M30.505,22.96c-0.081,0.035 -0.16,0.089 -0.228,0.154c-0.062,0.064 -0.115,0.139 -0.142,0.229l0.37,-0l0,-0.383Z" style="fill:#f9a825;fill-rule:nonzero;"/><path d="M30.93,24.13c0.081,-0.018 0.157,-0.069 0.229,-0.142c0.067,-0.061 0.111,-0.147 0.142,-0.222l-0.371,-0l-0,0.364Z" style="fill:#f9a825;fill-rule:nonzero;"/><path d="M31.301,23.343c-0.031,-0.09 -0.075,-0.165 -0.142,-0.229c-0.066,-0.065 -0.148,-0.119 -0.229,-0.154l-0,0.383l0.371,-0Z" style="fill:#f9a825;fill-rule:nonzero;"/><path d="M30.135,23.766c0.027,0.073 0.08,0.161 0.142,0.222c0.068,0.068 0.147,0.124 0.228,0.142l0,-0.364l-0.37,-0Z" style="fill:#f9a825;fill-rule:nonzero;"/><path d="M30.505,23.766l0,0.364c0.138,0.054 0.288,0.054 0.428,0l-0,-0.364l-0.428,-0Z" style="fill:#ef454e;fill-rule:nonzero;"/><rect x="30.505" y="23.343" width="0.424" height="0.423" style="fill:#f9a825;fill-rule:nonzero;"/><path d="M30.93,23.343l-0,-0.383c-0.137,-0.036 -0.288,-0.036 -0.425,-0l0,0.383l0.425,-0Z" style="fill:#ef454e;fill-rule:nonzero;"/><path d="M30.135,23.766l0.37,-0l0,-0.423l-0.37,-0c-0.048,0.134 -0.048,0.289 0,0.423Z" style="fill:#ef454e;fill-rule:nonzero;"/><path d="M30.93,23.766l0.371,-0c0.054,-0.134 0.054,-0.289 0,-0.423l-0.371,-0l-0,0.423Z" style="fill:#ef454e;fill-rule:nonzero;"/><path d="M28.444,22.338c0.262,0.257 0.262,0.683 -0,0.94c-0.262,0.26 -0.688,0.26 -0.952,-0c-0.26,-0.257 -0.26,-0.683 -0,-0.94c0.264,-0.262 0.69,-0.262 0.952,0Zm-0.997,0.992c0.287,0.288 0.757,0.288 1.039,-0c0.29,-0.291 0.29,-0.759 0,-1.049c-0.282,-0.286 -0.752,-0.286 -1.039,0c-0.289,0.29 -0.289,0.758 -0,1.049Z" style="fill:#ef454e;fill-rule:nonzero;"/><path d="M28.552,22.592c-0.034,-0.071 -0.077,-0.159 -0.144,-0.221c-0.066,-0.073 -0.144,-0.124 -0.226,-0.144l-0,0.365l0.37,0Z" style="fill:#f9a825;fill-rule:nonzero;"/><path d="M27.386,23.015c0.024,0.095 0.075,0.162 0.141,0.23c0.066,0.065 0.146,0.122 0.229,0.15l-0,-0.38l-0.37,0Z" style="fill:#f9a825;fill-rule:nonzero;"/><path d="M28.18,23.395c0.084,-0.028 0.162,-0.083 0.228,-0.15c0.066,-0.068 0.113,-0.139 0.143,-0.226l-0.371,0l0,0.376Z" style="fill:#f9a825;fill-rule:nonzero;"/><path d="M27.756,22.227c-0.083,0.02 -0.163,0.071 -0.229,0.144c-0.066,0.062 -0.114,0.15 -0.141,0.22l0.37,-0l-0,-0.364Z" style="fill:#f9a825;fill-rule:nonzero;"/><path d="M27.756,22.592l-0.37,0c-0.053,0.136 -0.053,0.291 -0,0.423l0.37,0l-0,-0.423Z" style="fill:#ef454e;fill-rule:nonzero;"/><rect x="27.756" y="22.592" width="0.424" height="0.422" style="fill:#f9a825;fill-rule:nonzero;"/><path d="M28.18,23.015l0.371,0c0.049,-0.132 0.049,-0.287 -0,-0.423l-0.371,0l0,0.423Z" style="fill:#ef454e;fill-rule:nonzero;"/><path d="M27.756,22.227l-0,0.364l0.426,-0l-0,-0.364c-0.141,-0.051 -0.291,-0.051 -0.426,0Z" style="fill:#ef454e;fill-rule:nonzero;"/><path d="M27.756,23.015l-0,0.38c0.135,0.043 0.285,0.043 0.426,0l-0,-0.38l-0.426,0Z" style="fill:#ef454e;fill-rule:nonzero;"/><path d="M24.662,24.024c-0.261,-0.258 -0.261,-0.683 -0,-0.944c0.263,-0.259 0.686,-0.259 0.949,0c0.261,0.261 0.261,0.686 -0,0.944c-0.263,0.258 -0.686,0.258 -0.949,-0Zm0.997,-0.992c-0.287,-0.29 -0.756,-0.29 -1.046,0c-0.289,0.288 -0.289,0.759 0,1.043c0.29,0.289 0.759,0.289 1.046,-0c0.285,-0.284 0.285,-0.755 -0,-1.043Z" style="fill:#ef454e;fill-rule:nonzero;"/><path d="M24.551,23.766c0.03,0.073 0.079,0.161 0.145,0.222c0.065,0.068 0.146,0.121 0.229,0.142l0,-0.364l-0.374,-0Z" style="fill:#f9a825;fill-rule:nonzero;"/><path d="M25.718,23.343c-0.031,-0.09 -0.073,-0.165 -0.138,-0.229c-0.071,-0.065 -0.151,-0.119 -0.233,-0.154l-0,0.383l0.371,-0Z" style="fill:#f9a825;fill-rule:nonzero;"/><path d="M24.925,22.96c-0.083,0.035 -0.164,0.089 -0.229,0.154c-0.066,0.064 -0.115,0.139 -0.145,0.229l0.374,-0l0,-0.383Z" style="fill:#f9a825;fill-rule:nonzero;"/><path d="M25.347,24.13c0.082,-0.018 0.162,-0.069 0.233,-0.142c0.061,-0.061 0.107,-0.149 0.138,-0.222l-0.371,-0l-0,0.364Z" style="fill:#f9a825;fill-rule:nonzero;"/><path d="M25.347,23.766l0.371,-0c0.05,-0.134 0.05,-0.289 0,-0.423l-0.371,-0l-0,0.423Z" style="fill:#ef454e;fill-rule:nonzero;"/><rect x="24.921" y="23.343" width="0.426" height="0.423" style="fill:#f9a825;fill-rule:nonzero;"/><path d="M24.925,23.343l-0.374,-0c-0.048,0.136 -0.048,0.289 -0,0.423l0.374,-0l0,-0.423Z" style="fill:#ef454e;fill-rule:nonzero;"/><path d="M25.347,24.13l-0,-0.364l-0.426,-0l0,0.364c0.138,0.054 0.29,0.054 0.426,0Z" style="fill:#ef454e;fill-rule:nonzero;"/><path d="M25.347,23.343l-0,-0.383c-0.136,-0.036 -0.288,-0.036 -0.426,-0l0,0.383l0.426,-0Z" style="fill:#ef454e;fill-rule:nonzero;"/><path d="M22.543,29.043c-0.264,-0.266 -0.264,-0.689 0,-0.95c0.264,-0.257 0.686,-0.257 0.951,-0c0.259,0.261 0.259,0.684 0,0.95c-0.265,0.27 -0.687,0.27 -0.951,0Zm0.996,-0.997c-0.288,-0.292 -0.756,-0.292 -1.045,-0c-0.284,0.288 -0.284,0.757 -0,1.044c0.289,0.288 0.757,0.288 1.045,0c0.287,-0.287 0.287,-0.756 0,-1.044Z" style="fill:#ef454e;fill-rule:nonzero;"/><path d="M22.433,28.777c0.028,0.089 0.078,0.166 0.144,0.239c0.067,0.057 0.148,0.11 0.226,0.144l0,-0.383l-0.37,-0Z" style="fill:#f9a825;fill-rule:nonzero;"/><path d="M23.6,28.355c-0.031,-0.076 -0.079,-0.163 -0.143,-0.224c-0.064,-0.071 -0.148,-0.109 -0.228,-0.142l-0,0.366l0.371,0Z" style="fill:#f9a825;fill-rule:nonzero;"/><path d="M22.809,27.989c-0.084,0.034 -0.165,0.068 -0.232,0.145c-0.066,0.058 -0.116,0.145 -0.143,0.221l0.375,0l-0,-0.366Z" style="fill:#f9a825;fill-rule:nonzero;"/><path d="M23.226,29.16c0.088,-0.034 0.167,-0.087 0.231,-0.144c0.067,-0.076 0.112,-0.148 0.143,-0.238l-0.374,0l-0,0.382Z" style="fill:#f9a825;fill-rule:nonzero;"/><path d="M23.226,28.777l0.374,-0c0.05,-0.135 0.05,-0.288 0,-0.422l-0.371,0l-0.003,0.422Z" style="fill:#ef454e;fill-rule:nonzero;"/><path d="M22.809,28.355l-0,0.422l0.417,-0l0.004,-0.422l-0.421,0Z" style="fill:#f9a825;fill-rule:nonzero;"/><path d="M22.809,28.355l-0.375,0c-0.048,0.134 -0.048,0.29 0,0.422l0.375,-0l-0,-0.422Z" style="fill:#ef454e;fill-rule:nonzero;"/><path d="M23.226,29.16l-0,-0.382l-0.423,0l0,0.382c0.135,0.041 0.291,0.041 0.423,-0Z" style="fill:#ef454e;fill-rule:nonzero;"/><path d="M23.229,28.355l-0,-0.366c-0.135,-0.055 -0.291,-0.055 -0.426,0l0,0.366l0.426,0Z" style="fill:#ef454e;fill-rule:nonzero;"/><path d="M32.313,29.043c-0.265,-0.266 -0.265,-0.689 -0,-0.95c0.26,-0.257 0.687,-0.257 0.952,-0c0.26,0.261 0.26,0.684 0,0.95c-0.265,0.27 -0.692,0.27 -0.952,0Zm0.993,-0.997c-0.286,-0.292 -0.75,-0.292 -1.043,-0.001c-0.285,0.289 -0.285,0.756 0,1.045c0.293,0.288 0.757,0.288 1.043,0c0.292,-0.287 0.292,-0.756 -0,-1.044Z" style="fill:#ef454e;fill-rule:nonzero;"/><path d="M32.204,28.777c0.031,0.089 0.076,0.166 0.141,0.239c0.067,0.057 0.147,0.11 0.228,0.144l-0,-0.383l-0.369,-0Z" style="fill:#f9a825;fill-rule:nonzero;"/><path d="M33.374,28.355c-0.031,-0.076 -0.082,-0.163 -0.15,-0.224c-0.066,-0.071 -0.142,-0.109 -0.224,-0.142l-0,0.366l0.374,0Z" style="fill:#f9a825;fill-rule:nonzero;"/><path d="M32.573,27.989c-0.081,0.034 -0.157,0.068 -0.228,0.145c-0.063,0.058 -0.11,0.145 -0.14,0.221l0.368,0l-0,-0.366Z" style="fill:#f9a825;fill-rule:nonzero;"/><path d="M33,29.16c0.082,-0.034 0.158,-0.087 0.224,-0.144c0.068,-0.076 0.115,-0.148 0.15,-0.238l-0.374,0l-0,0.382Z" style="fill:#f9a825;fill-rule:nonzero;"/><path d="M33,28.777l0.374,-0c0.043,-0.135 0.043,-0.288 0,-0.422l-0.374,0l-0,0.422Z" style="fill:#ef454e;fill-rule:nonzero;"/><rect x="32.573" y="28.357" width="0.426" height="0.42" style="fill:#f9a825;fill-rule:nonzero;"/><path d="M32.573,28.355l-0.368,0c-0.052,0.134 -0.052,0.29 0,0.422l0.368,-0l-0,-0.422Z" style="fill:#ef454e;fill-rule:nonzero;"/><path d="M33,29.16l-0,-0.382l-0.427,0l-0,0.382c0.136,0.041 0.288,0.041 0.427,-0Z" style="fill:#ef454e;fill-rule:nonzero;"/><path d="M33,28.355l-0,-0.366c-0.139,-0.055 -0.291,-0.055 -0.427,0l-0,0.366l0.427,0Z" style="fill:#ef454e;fill-rule:nonzero;"/><path d="M32.313,34.161c-0.265,-0.258 -0.265,-0.681 -0,-0.942c0.26,-0.26 0.687,-0.26 0.952,-0c0.26,0.261 0.26,0.684 0,0.942c-0.265,0.261 -0.692,0.261 -0.952,-0Zm0.993,-0.995c-0.286,-0.288 -0.75,-0.288 -1.043,0c-0.285,0.292 -0.285,0.762 0,1.044c0.293,0.293 0.757,0.293 1.043,0c0.292,-0.282 0.292,-0.752 -0,-1.044Z" style="fill:#ef454e;fill-rule:nonzero;"/><path d="M32.204,33.9c0.031,0.079 0.076,0.166 0.141,0.227c0.067,0.069 0.147,0.121 0.228,0.14l-0,-0.364l-0.369,-0.003Z" style="fill:#f9a825;fill-rule:nonzero;"/><path d="M33.374,33.48c-0.035,-0.085 -0.082,-0.162 -0.15,-0.227c-0.066,-0.068 -0.142,-0.121 -0.224,-0.149l-0,0.376l0.374,-0Z" style="fill:#f9a825;fill-rule:nonzero;"/><path d="M32.573,33.104c-0.081,0.028 -0.157,0.081 -0.228,0.152c-0.063,0.061 -0.11,0.139 -0.141,0.224l0.369,-0l-0,-0.376Z" style="fill:#f9a825;fill-rule:nonzero;"/><path d="M33,34.267c0.082,-0.019 0.158,-0.071 0.224,-0.137c0.068,-0.067 0.115,-0.154 0.15,-0.227l-0.374,-0l-0,0.364Z" style="fill:#f9a825;fill-rule:nonzero;"/><path d="M33,33.9l0.374,-0c0.043,-0.134 0.043,-0.285 0,-0.42l-0.374,-0l-0,0.42Z" style="fill:#ef454e;fill-rule:nonzero;"/><path d="M32.573,33.48l-0,0.423l0.427,-0.003l-0,-0.42l-0.427,-0Z" style="fill:#f9a825;fill-rule:nonzero;"/><path d="M32.573,33.48l-0.369,-0c-0.051,0.135 -0.051,0.286 0.001,0.42l0.368,0.003l-0,-0.423Z" style="fill:#ef454e;fill-rule:nonzero;"/><path d="M33,34.267l-0,-0.364l-0.427,-0l-0,0.364c0.136,0.054 0.288,0.054 0.427,0Z" style="fill:#ef454e;fill-rule:nonzero;"/><path d="M33,33.48l-0,-0.376c-0.139,-0.044 -0.291,-0.044 -0.427,-0l-0,0.376l0.427,-0Z" style="fill:#ef454e;fill-rule:nonzero;"/><path d="M22.545,34.161c-0.266,-0.258 -0.266,-0.681 -0,-0.942c0.264,-0.26 0.686,-0.26 0.95,-0c0.26,0.261 0.26,0.684 0,0.942c-0.264,0.261 -0.686,0.261 -0.95,-0Zm0.994,-0.995c-0.286,-0.288 -0.754,-0.288 -1.04,0c-0.289,0.292 -0.289,0.762 0,1.044c0.286,0.293 0.754,0.293 1.04,0c0.294,-0.282 0.294,-0.752 0,-1.044Z" style="fill:#ef454e;fill-rule:nonzero;"/><path d="M22.437,33.9c0.027,0.079 0.075,0.166 0.143,0.227c0.068,0.069 0.145,0.121 0.229,0.14l-0,-0.367l-0.372,-0Z" style="fill:#f9a825;fill-rule:nonzero;"/><path d="M23.6,33.48c-0.028,-0.088 -0.073,-0.163 -0.143,-0.227c-0.064,-0.068 -0.14,-0.121 -0.226,-0.149l0,0.376l0.369,-0Z" style="fill:#f9a825;fill-rule:nonzero;"/><path d="M22.81,33.104c-0.085,0.028 -0.162,0.081 -0.23,0.152c-0.068,0.061 -0.116,0.139 -0.143,0.224l0.373,-0l-0,-0.376Z" style="fill:#f9a825;fill-rule:nonzero;"/><path d="M23.231,34.267c0.086,-0.019 0.162,-0.071 0.225,-0.137c0.071,-0.067 0.116,-0.154 0.143,-0.23l-0.368,-0l0,0.367Z" style="fill:#f9a825;fill-rule:nonzero;"/><path d="M23.231,33.9l0.368,-0c0.051,-0.135 0.051,-0.285 -0,-0.42l-0.368,-0l0,0.42Z" style="fill:#ef454e;fill-rule:nonzero;"/><rect x="22.809" y="33.48" width="0.422" height="0.42" style="fill:#f9a825;fill-rule:nonzero;"/><path d="M22.81,33.48l-0.373,-0c-0.051,0.135 -0.051,0.286 -0,0.42l0.373,-0l-0,-0.42Z" style="fill:#ef454e;fill-rule:nonzero;"/><path d="M23.231,34.267l0,-0.367l-0.421,-0l-0,0.367c0.133,0.054 0.285,0.054 0.421,0Z" style="fill:#ef454e;fill-rule:nonzero;"/><path d="M23.231,33.48l0,-0.376c-0.136,-0.047 -0.288,-0.047 -0.421,-0l-0,0.376l0.421,-0Z" style="fill:#ef454e;fill-rule:nonzero;"/><path d="M24.671,39.007c-0.264,-0.258 -0.264,-0.686 0,-0.953c0.26,-0.261 0.687,-0.261 0.948,-0c0.264,0.267 0.264,0.695 0,0.953c-0.261,0.26 -0.688,0.26 -0.948,0Zm0.995,-0.991c-0.287,-0.293 -0.755,-0.293 -1.044,-0c-0.282,0.292 -0.282,0.753 -0,1.04c0.289,0.291 0.757,0.291 1.044,-0c0.292,-0.287 0.292,-0.748 -0,-1.04Z" style="fill:#ef454e;fill-rule:nonzero;"/><path d="M24.564,38.749c0.031,0.074 0.073,0.155 0.143,0.223c0.067,0.074 0.145,0.109 0.224,0.147l0,-0.37l-0.367,0Z" style="fill:#f9a825;fill-rule:nonzero;"/><path d="M25.731,38.321c-0.032,-0.082 -0.079,-0.156 -0.144,-0.23c-0.069,-0.058 -0.144,-0.112 -0.229,-0.142l0,0.372l0.373,-0Z" style="fill:#f9a825;fill-rule:nonzero;"/><path d="M24.937,37.949c-0.085,0.03 -0.163,0.084 -0.232,0.142c-0.068,0.074 -0.11,0.148 -0.141,0.23l0.373,-0l-0,-0.372Z" style="fill:#f9a825;fill-rule:nonzero;"/><path d="M25.358,39.119c0.085,-0.036 0.16,-0.073 0.229,-0.145c0.065,-0.07 0.112,-0.151 0.14,-0.222l-0.369,0l0,0.367Z" style="fill:#f9a825;fill-rule:nonzero;"/><path d="M25.358,38.749l0.369,0c0.05,-0.139 0.05,-0.288 0,-0.427l-0.369,0l0,0.427Z" style="fill:#ef454e;fill-rule:nonzero;"/><rect x="24.935" y="38.321" width="0.422" height="0.428" style="fill:#f9a825;fill-rule:nonzero;"/><path d="M24.937,38.321l-0.373,-0c-0.052,0.14 -0.052,0.289 -0,0.428l0.373,0l-0,-0.428Z" style="fill:#ef454e;fill-rule:nonzero;"/><path d="M25.358,39.119l0,-0.367l-0.423,0l0,0.367c0.135,0.049 0.287,0.049 0.423,0Z" style="fill:#ef454e;fill-rule:nonzero;"/><path d="M25.358,38.321l0,-0.372c-0.136,-0.05 -0.288,-0.05 -0.423,-0l0,0.372l0.423,-0Z" style="fill:#ef454e;fill-rule:nonzero;"/><path d="M27.488,39.759c-0.264,-0.272 -0.264,-0.696 -0,-0.959c0.262,-0.258 0.686,-0.258 0.949,0c0.262,0.263 0.262,0.687 -0,0.959c-0.263,0.259 -0.687,0.259 -0.949,0Zm0.998,-0.996c-0.29,-0.289 -0.756,-0.289 -1.047,0c-0.288,0.291 -0.288,0.745 0,1.03c0.291,0.291 0.757,0.291 1.047,0c0.287,-0.285 0.287,-0.739 0,-1.03Z" style="fill:#ef454e;fill-rule:nonzero;"/><path d="M27.38,39.487c0.025,0.086 0.077,0.162 0.143,0.237c0.068,0.054 0.145,0.108 0.227,0.142l0,-0.379l-0.37,-0Z" style="fill:#f9a825;fill-rule:nonzero;"/><path d="M28.545,39.063c-0.032,-0.075 -0.073,-0.159 -0.142,-0.223c-0.068,-0.069 -0.146,-0.112 -0.23,-0.145l-0,0.368l0.372,-0Z" style="fill:#f9a825;fill-rule:nonzero;"/><path d="M27.75,38.695c-0.082,0.033 -0.159,0.076 -0.23,0.145c-0.063,0.064 -0.11,0.148 -0.14,0.226l0.37,-0l0,-0.371Z" style="fill:#f9a825;fill-rule:nonzero;"/><path d="M28.173,39.869c0.084,-0.037 0.162,-0.094 0.23,-0.145c0.069,-0.075 0.11,-0.151 0.142,-0.237l-0.372,-0l-0,0.382Z" style="fill:#f9a825;fill-rule:nonzero;"/><path d="M28.173,39.487l0.372,-0c0.051,-0.135 0.051,-0.292 -0,-0.421l-0.372,-0l-0,0.421Z" style="fill:#ef454e;fill-rule:nonzero;"/><rect x="27.75" y="39.066" width="0.424" height="0.421" style="fill:#f9a825;fill-rule:nonzero;"/><path d="M27.75,39.066l-0.37,-0c-0.053,0.129 -0.053,0.286 -0,0.421l0.37,-0l0,-0.421Z" style="fill:#ef454e;fill-rule:nonzero;"/><path d="M28.173,39.869l-0,-0.382l-0.423,-0l0,0.382c0.139,0.046 0.29,0.046 0.423,-0Z" style="fill:#ef454e;fill-rule:nonzero;"/><path d="M28.173,39.063l-0,-0.368c-0.133,-0.051 -0.284,-0.051 -0.423,0l0,0.371l0.423,-0.003Z" style="fill:#ef454e;fill-rule:nonzero;"/><path d="M30.246,39.007c-0.266,-0.258 -0.266,-0.686 -0,-0.953c0.258,-0.261 0.684,-0.261 0.947,-0c0.262,0.267 0.262,0.695 0,0.953c-0.263,0.26 -0.689,0.26 -0.947,0Zm0.996,-0.991c-0.291,-0.293 -0.759,-0.293 -1.047,-0c-0.285,0.292 -0.285,0.753 -0,1.04c0.288,0.291 0.756,0.291 1.047,-0c0.289,-0.287 0.289,-0.748 -0,-1.04Z" style="fill:#ef454e;fill-rule:nonzero;"/><path d="M30.135,38.749c0.027,0.074 0.08,0.155 0.142,0.223c0.068,0.074 0.147,0.109 0.228,0.147l0,-0.37l-0.37,0Z" style="fill:#f9a825;fill-rule:nonzero;"/><path d="M31.301,38.321c-0.031,-0.082 -0.075,-0.156 -0.142,-0.23c-0.066,-0.058 -0.148,-0.112 -0.229,-0.142l-0,0.372l0.371,-0Z" style="fill:#f9a825;fill-rule:nonzero;"/><path d="M30.505,37.949c-0.081,0.03 -0.16,0.084 -0.228,0.142c-0.062,0.074 -0.115,0.148 -0.142,0.23l0.37,-0l0,-0.372Z" style="fill:#f9a825;fill-rule:nonzero;"/><path d="M30.93,39.119c0.081,-0.036 0.157,-0.073 0.229,-0.145c0.067,-0.07 0.111,-0.151 0.142,-0.222l-0.371,0l-0,0.367Z" style="fill:#f9a825;fill-rule:nonzero;"/><path d="M30.93,38.749l0.371,0c0.054,-0.139 0.054,-0.288 0,-0.427l-0.371,0l-0,0.427Z" style="fill:#ef454e;fill-rule:nonzero;"/><rect x="30.508" y="38.321" width="0.424" height="0.428" style="fill:#f9a825;fill-rule:nonzero;"/><path d="M30.505,38.321l-0.37,-0c-0.048,0.14 -0.048,0.289 0,0.428l0.37,0l0,-0.428Z" style="fill:#ef454e;fill-rule:nonzero;"/><path d="M30.93,39.119l-0,-0.367l-0.425,0l0,0.367c0.137,0.049 0.288,0.049 0.425,0Z" style="fill:#ef454e;fill-rule:nonzero;"/><path d="M30.93,38.321l-0,-0.372c-0.137,-0.05 -0.288,-0.05 -0.425,-0l0,0.372l0.425,-0Z" style="fill:#ef454e;fill-rule:nonzero;"/><path d="M27.322,17.52l-0,0.003c-0.257,0.296 -0.864,0.373 -1.813,0.224c-1.081,-0.167 -2.092,-0.533 -3.103,-1.01c0.475,-0.454 0.742,-1.127 0.715,-1.884l0.001,-0c-0.05,-1.307 -0.645,-1.84 -1.135,-2.049c-1.146,-0.512 -2.857,0.173 -3.958,1.118c-0.111,0.09 -0.236,0.204 -0.375,0.335c-0.058,-0.043 -0.113,-0.09 -0.171,-0.135c0.275,-0.145 0.529,-0.35 0.715,-0.606c0.286,-0.418 0.339,-0.857 0.147,-1.27c-0.207,-0.422 -0.636,-0.627 -1.124,-0.543c-0.516,0.099 -0.906,0.507 -0.945,0.981c-0.036,0.418 0.063,0.79 0.256,1.117c-0.355,-0.078 -0.687,-0.259 -1.029,-0.459c-0.468,-0.27 -0.947,-0.547 -1.546,-0.555c-0.555,-0.006 -1.037,0.207 -1.375,0.64c-0.424,0.537 -0.577,1.352 -0.396,2.075c0.239,0.945 0.663,1.521 1.256,1.717c-0.134,0.605 -0.152,1.184 -0.146,1.545l-0.044,0c-0.144,0 -0.231,0.144 -0.231,0.29c-0,0.083 -0.005,0.163 0.018,0.234l1.03,-0c0.018,-0.071 0.017,-0.151 0.017,-0.234c-0,-0.146 -0.085,-0.29 -0.23,-0.29l-0.052,0c-0.01,-0.342 0.005,-0.906 0.134,-1.478c0.962,-0.028 2.069,-0.86 3.001,-1.687c0.079,0.07 0.166,0.138 0.244,0.236c-0.292,0.112 -0.577,0.3 -0.76,0.546c-0.178,0.238 -0.243,0.509 -0.186,0.796c0.072,0.374 0.337,0.625 0.701,0.682c0.425,0.058 0.886,-0.156 1.084,-0.535c0.205,-0.371 0.159,-0.779 -0.01,-1.154c0.41,0.019 0.737,0.246 1.112,0.482c0.233,0.155 0.475,0.319 0.755,0.431c0.648,0.271 1.226,0.318 1.759,0.128c0.106,-0.037 0.206,-0.084 0.304,-0.136c1.133,0.554 2.261,0.981 3.487,1.17c0.344,0.06 0.639,0.075 0.91,0.075c0.438,0 0.779,-0.068 1.038,-0.21l-0,-0.569c-0.018,-0.005 -0.037,-0.012 -0.055,-0.021Zm-10.549,-4.791c0.024,-0.287 0.291,-0.494 0.541,-0.528c0.032,-0.009 0.076,-0.01 0.122,-0.01c0.144,-0 0.339,0.038 0.455,0.282c0.146,0.297 0.021,0.567 -0.106,0.754c-0.165,0.232 -0.422,0.425 -0.68,0.516c-0.233,-0.29 -0.363,-0.63 -0.332,-1.014Zm-2.683,4.042c0.175,-0.464 0.449,-0.887 0.879,-1.144c0.408,-0.248 0.968,-0.407 1.485,-0.268c-0.765,0.663 -1.644,1.308 -2.364,1.412Zm2.784,-1.788c-0.741,-0.34 -1.575,-0.132 -2.16,0.212c-0.585,0.35 -0.933,0.929 -1.138,1.535c-0.409,-0.145 -0.719,-0.595 -0.9,-1.348c-0.149,-0.579 -0.034,-1.23 0.298,-1.643c0.235,-0.302 0.567,-0.46 0.959,-0.46l0.018,0c0.464,0.006 0.867,0.249 1.295,0.496c0.422,0.231 0.853,0.482 1.361,0.534c0.108,0.013 0.217,0.009 0.331,-0.004c0.107,0.107 0.227,0.209 0.349,0.296c-0.129,0.121 -0.267,0.25 -0.413,0.382Zm0.709,2.109c-0.106,0.214 -0.38,0.303 -0.57,0.275c-0.159,-0.032 -0.253,-0.119 -0.284,-0.284c-0.032,-0.143 0,-0.278 0.098,-0.402c0.143,-0.204 0.404,-0.354 0.665,-0.428c0.158,0.28 0.226,0.594 0.091,0.839Zm2.493,-0.47c-0.24,-0.098 -0.456,-0.237 -0.684,-0.387c-0.462,-0.307 -0.946,-0.627 -1.623,-0.554c-0.016,0.005 -0.033,0.01 -0.054,0.01c-0.126,-0.171 -0.268,-0.316 -0.404,-0.428c0.139,-0.131 0.272,-0.256 0.398,-0.373c0.459,0.279 0.968,0.52 1.415,0.716c0.312,0.145 0.609,0.283 0.84,0.409c0.469,0.265 0.928,0.52 1.382,0.759c-0.377,0.099 -0.793,0.055 -1.27,-0.152Zm1.836,-0.123c-0.556,-0.283 -1.119,-0.592 -1.697,-0.918c-0.255,-0.141 -0.557,-0.283 -0.882,-0.427c-0.408,-0.176 -0.849,-0.384 -1.247,-0.614c0.095,-0.094 0.188,-0.168 0.265,-0.242c0.977,-0.824 2.525,-1.446 3.439,-1.043c0.52,0.234 0.801,0.774 0.831,1.618l0.003,-0.002c0.026,0.683 -0.247,1.274 -0.712,1.628Z" style="fill:#14877e;fill-rule:nonzero;"/><path d="M43.426,13.427c-0.34,-0.433 -0.817,-0.646 -1.38,-0.64c-0.596,0.008 -1.076,0.285 -1.541,0.555c-0.348,0.2 -0.675,0.381 -1.029,0.459c0.186,-0.327 0.287,-0.699 0.257,-1.117c-0.047,-0.474 -0.437,-0.882 -0.956,-0.981c-0.484,-0.084 -0.911,0.121 -1.119,0.543c-0.191,0.413 -0.142,0.852 0.149,1.27c0.186,0.256 0.439,0.461 0.716,0.606c-0.054,0.045 -0.113,0.092 -0.174,0.135c-0.137,-0.131 -0.262,-0.245 -0.374,-0.335c-1.099,-0.945 -2.814,-1.63 -3.962,-1.118c-0.488,0.209 -1.081,0.742 -1.131,2.049c-0.03,0.757 0.238,1.43 0.716,1.884c-1.014,0.477 -2.023,0.843 -3.104,1.01c-0.949,0.149 -1.559,0.072 -1.813,-0.224c-0.01,-0.01 -0.014,-0.024 -0.024,-0.035c-0.033,0.021 -0.067,0.038 -0.105,0.052l-0,0.529c0.268,0.17 0.634,0.251 1.112,0.251c0.267,0 0.571,-0.015 0.908,-0.075c1.227,-0.189 2.357,-0.616 3.49,-1.17c0.097,0.052 0.198,0.099 0.303,0.136c0.532,0.19 1.109,0.143 1.759,-0.128c0.278,-0.112 0.52,-0.276 0.759,-0.431c0.37,-0.236 0.698,-0.463 1.11,-0.487c-0.17,0.38 -0.215,0.788 -0.013,1.159c0.202,0.379 0.659,0.593 1.085,0.535c0.363,-0.057 0.629,-0.308 0.699,-0.682c0.06,-0.287 -0.004,-0.558 -0.183,-0.796c-0.184,-0.246 -0.465,-0.434 -0.759,-0.546c0.078,-0.097 0.161,-0.165 0.244,-0.236c0.931,0.827 2.036,1.656 2.997,1.686c0.13,0.573 0.145,1.137 0.139,1.479l-0.063,0c-0.143,0 -0.231,0.144 -0.231,0.29c0,0.083 -0.003,0.163 0.024,0.234l1.026,-0c0.023,-0.071 0.02,-0.151 0.02,-0.234c-0,-0.146 -0.087,-0.29 -0.231,-0.29l-0.044,0c0.008,-0.361 -0.01,-0.94 -0.142,-1.545c0.594,-0.196 1.017,-0.773 1.254,-1.717c0.184,-0.723 0.031,-1.538 -0.389,-2.075Zm-5.209,-0.2c-0.124,-0.187 -0.249,-0.457 -0.104,-0.754c0.111,-0.244 0.306,-0.282 0.452,-0.282c0.049,-0 0.093,0.001 0.124,0.01c0.248,0.034 0.521,0.241 0.54,0.528c0.033,0.384 -0.096,0.724 -0.331,1.014c-0.259,-0.091 -0.515,-0.284 -0.681,-0.516Zm-4.125,3.272c-0.465,-0.354 -0.736,-0.945 -0.712,-1.626c0.034,-0.844 0.314,-1.384 0.834,-1.618c0.914,-0.403 2.466,0.219 3.438,1.043c0.078,0.074 0.17,0.148 0.265,0.242c-0.401,0.23 -0.838,0.438 -1.243,0.614c-0.326,0.144 -0.628,0.286 -0.878,0.427c-0.58,0.326 -1.145,0.635 -1.704,0.918Zm4.14,-0.818c-0.678,-0.073 -1.161,0.247 -1.624,0.554c-0.226,0.15 -0.442,0.289 -0.674,0.387c-0.484,0.207 -0.899,0.251 -1.276,0.152c0.454,-0.239 0.914,-0.494 1.381,-0.759c0.23,-0.126 0.53,-0.264 0.844,-0.409c0.448,-0.196 0.956,-0.437 1.41,-0.716c0.126,0.117 0.263,0.243 0.402,0.373c-0.139,0.112 -0.281,0.257 -0.409,0.428c-0.021,0 -0.033,-0.005 -0.054,-0.01Zm0.945,1c0.098,0.124 0.128,0.259 0.098,0.402c-0.033,0.165 -0.126,0.252 -0.284,0.284c-0.194,0.028 -0.46,-0.061 -0.572,-0.275c-0.137,-0.245 -0.068,-0.559 0.09,-0.839c0.264,0.074 0.526,0.224 0.668,0.428Zm0.373,-1.322c0.515,-0.139 1.073,0.02 1.485,0.268c0.429,0.257 0.702,0.679 0.876,1.141c-0.718,-0.103 -1.597,-0.748 -2.361,-1.409Zm3.781,0.023c-0.188,0.753 -0.495,1.205 -0.903,1.348c-0.205,-0.604 -0.551,-1.184 -1.136,-1.535c-0.586,-0.344 -1.421,-0.552 -2.163,-0.212c-0.143,-0.132 -0.281,-0.261 -0.41,-0.382c0.122,-0.087 0.241,-0.189 0.346,-0.296c0.115,0.013 0.223,0.017 0.33,0.004c0.513,-0.052 0.941,-0.303 1.358,-0.534c0.429,-0.247 0.835,-0.49 1.303,-0.496l0.014,0c0.393,0 0.723,0.158 0.959,0.46c0.332,0.413 0.451,1.064 0.302,1.643Z" style="fill:#14877e;fill-rule:nonzero;"/><path d="M27.123,14.023l-0.528,-0l0.213,0.637l0.529,-0l-0.214,-0.637Z" style="fill:#14877e;fill-rule:nonzero;"/><path d="M27.474,16.467l-0,-0.84l-0.341,0l0.165,0.497c0.045,0.125 0.078,0.243 0.105,0.356c0.022,-0.006 0.046,-0.01 0.071,-0.013Z" style="fill:#14877e;fill-rule:nonzero;"/><path d="M29.406,14.023l-0.526,-0l-0.215,0.637l0.528,-0l0.213,-0.637Z" style="fill:#14877e;fill-rule:nonzero;"/><path d="M28.447,15.627l-0,0.842c0.051,0.004 0.102,0.015 0.147,0.037c0.027,-0.121 0.063,-0.247 0.108,-0.382l0.166,-0.497l-0.421,0Z" style="fill:#14877e;fill-rule:nonzero;"/><path d="M27.96,10.683c-2.912,-0 -5.275,0.604 -5.275,1.257c0,0.446 1.1,0.83 2.724,1.029c0.094,-0.105 0.227,-0.168 0.372,-0.168c0.18,0 0.346,0.097 0.431,0.247c0.005,0.001 0.01,0.001 0.016,0.001l1.246,0l-0,-0.52c-0.152,-0.081 -0.25,-0.243 -0.25,-0.427c-0,-0.189 0.113,-0.368 0.288,-0.453c0.081,-0.166 0.255,-0.287 0.448,-0.287c0.2,0 0.375,0.121 0.453,0.287c0.171,0.085 0.284,0.264 0.284,0.453c-0,0.184 -0.097,0.346 -0.25,0.427l-0,0.52l1.25,0c0.004,0 0.01,-0.001 0.015,-0.001c0.085,-0.15 0.251,-0.247 0.435,-0.247c0.141,0 0.275,0.063 0.367,0.168c1.626,-0.199 2.727,-0.583 2.727,-1.029c-0,-0.653 -2.364,-1.257 -5.281,-1.257Z" style="fill:#14877e;fill-rule:nonzero;"/></g></svg>