<?xml version="1.0" encoding="UTF-8" standalone="no"?><!DOCTYPE svg PUBLIC "-//W3C//DTD SVG 1.1//EN" "http://www.w3.org/Graphics/SVG/1.1/DTD/svg11.dtd"><svg width="100%" height="100%" viewBox="0 0 56 56" version="1.1" xmlns="http://www.w3.org/2000/svg" xmlns:xlink="http://www.w3.org/1999/xlink" xml:space="preserve" xmlns:serif="http://www.serif.com/" style="fill-rule:evenodd;clip-rule:evenodd;stroke-linejoin:round;stroke-miterlimit:2;"><g><rect id="canvas_background" x="-1" y="-1" width="58" height="58" style="fill:#fff;"/></g><g><path d="M24.432,13.902c-0.255,0.472 -0.436,0.727 -0.4,1.054c0.036,0.363 0.4,0.617 0.581,0.944c0.146,-0.399 0.436,-0.726 0.4,-1.053c-0.073,-0.255 -0.509,-0.691 -0.581,-0.945" style="fill:#231815;fill-rule:nonzero;"/><path d="M30.536,13.902c0.254,0.472 0.436,0.727 0.4,1.054c-0.037,0.363 -0.4,0.617 -0.582,0.944c-0.145,-0.399 -0.436,-0.726 -0.399,-1.053c0.036,-0.255 0.508,-0.691 0.581,-0.945" style="fill:#231815;fill-rule:nonzero;"/><path d="M20.907,13.648c0.218,-0 0.4,-0.182 0.4,-0.4c-0,-0.218 -0.182,-0.4 -0.4,-0.4c-0.218,0 -0.4,0.182 -0.4,0.4c0,0.218 0.182,0.4 0.4,0.4" style="fill:#231815;fill-rule:nonzero;"/><path d="M21.198,14.229c-0,-0.218 -0.182,-0.4 -0.4,-0.4c-0.218,0 -0.4,0.182 -0.4,0.4c0,0.218 0.182,0.4 0.4,0.4c0.218,0.036 0.4,-0.146 0.4,-0.4" style="fill:#231815;fill-rule:nonzero;"/><path d="M21.38,15.246c-0,-0.218 -0.182,-0.399 -0.4,-0.399c-0.218,-0 -0.4,0.181 -0.4,0.399c0,0.218 0.182,0.4 0.4,0.4c0.218,0 0.4,-0.182 0.4,-0.4" style="fill:#231815;fill-rule:nonzero;"/><path d="M23.196,11.686c0.218,-0 0.4,-0.182 0.4,-0.4c-0,-0.218 -0.182,-0.4 -0.4,-0.4c-0.218,0 -0.399,0.182 -0.399,0.4c-0,0.218 0.181,0.4 0.399,0.4" style="fill:#231815;fill-rule:nonzero;"/><path d="M22.179,12.013c0.218,-0 0.4,-0.182 0.4,-0.4c-0,-0.218 -0.182,-0.4 -0.4,-0.4c-0.218,0 -0.4,0.182 -0.4,0.4c-0.036,0.218 0.146,0.4 0.4,0.4" style="fill:#231815;fill-rule:nonzero;"/><path d="M21.38,12.703c0.218,-0 0.399,-0.182 0.399,-0.4c0,-0.218 -0.181,-0.399 -0.399,-0.399c-0.218,-0 -0.4,0.181 -0.4,0.399c-0.037,0.218 0.145,0.4 0.4,0.4" style="fill:#231815;fill-rule:nonzero;"/><path d="M24.286,11.795c0.218,-0 0.4,-0.182 0.4,-0.4c0,-0.218 -0.182,-0.4 -0.4,-0.4c-0.218,0 -0.399,0.182 -0.399,0.4c-0.037,0.218 0.145,0.4 0.399,0.4" style="fill:#231815;fill-rule:nonzero;"/><path d="M25.304,12.085c0.218,0 0.399,-0.181 0.399,-0.399c0,-0.218 -0.181,-0.4 -0.399,-0.4c-0.218,-0 -0.4,0.182 -0.4,0.4c-0.036,0.218 0.145,0.399 0.4,0.399" style="fill:#231815;fill-rule:nonzero;"/><path d="M26.248,12.521c0.218,0 0.4,-0.181 0.4,-0.399c0,-0.218 -0.182,-0.4 -0.4,-0.4c-0.218,-0 -0.399,0.182 -0.399,0.4c-0,0.218 0.181,0.399 0.399,0.399" style="fill:#231815;fill-rule:nonzero;"/><path d="M33.624,13.248c0,0.218 0.182,0.4 0.4,0.4c0.218,-0 0.4,-0.182 0.4,-0.4c-0,-0.218 -0.182,-0.4 -0.4,-0.4c-0.218,-0.036 -0.4,0.146 -0.4,0.4" style="fill:#231815;fill-rule:nonzero;"/><path d="M34.169,13.829c-0.218,0 -0.399,0.182 -0.399,0.4c-0,0.218 0.181,0.4 0.399,0.4c0.218,-0 0.4,-0.182 0.4,-0.4c0,-0.218 -0.182,-0.4 -0.4,-0.4" style="fill:#231815;fill-rule:nonzero;"/><path d="M33.951,14.81c-0.218,0 -0.399,0.182 -0.399,0.4c-0,0.218 0.181,0.4 0.399,0.4c0.218,-0 0.4,-0.182 0.4,-0.4c0.036,-0.182 -0.182,-0.4 -0.4,-0.4" style="fill:#231815;fill-rule:nonzero;"/><path d="M31.735,11.686c0.218,-0 0.4,-0.182 0.4,-0.4c-0,-0.218 -0.182,-0.4 -0.4,-0.4c-0.218,0 -0.4,0.182 -0.4,0.4c0,0.218 0.182,0.4 0.4,0.4" style="fill:#231815;fill-rule:nonzero;"/><path d="M32.752,12.013c0.218,-0 0.4,-0.182 0.4,-0.4c0,-0.218 -0.182,-0.4 -0.4,-0.4c-0.218,0 -0.399,0.182 -0.399,0.4c-0,0.218 0.181,0.4 0.399,0.4" style="fill:#231815;fill-rule:nonzero;"/><path d="M33.588,12.703c0.218,-0 0.4,-0.182 0.4,-0.4c-0,-0.218 -0.182,-0.399 -0.4,-0.399c-0.218,-0 -0.4,0.181 -0.4,0.399c-0.036,0.218 0.146,0.4 0.4,0.4" style="fill:#231815;fill-rule:nonzero;"/><path d="M30.681,11.795c0.218,-0 0.4,-0.182 0.4,-0.4c-0,-0.218 -0.182,-0.4 -0.4,-0.4c-0.218,0 -0.399,0.182 -0.399,0.4c-0.037,0.218 0.145,0.4 0.399,0.4" style="fill:#231815;fill-rule:nonzero;"/><path d="M29.628,12.085c0.218,0 0.399,-0.181 0.399,-0.399c0,-0.218 -0.181,-0.4 -0.399,-0.4c-0.218,-0 -0.4,0.182 -0.4,0.4c-0,0.218 0.182,0.399 0.4,0.399" style="fill:#231815;fill-rule:nonzero;"/><path d="M28.283,12.122c0,0.218 0.182,0.399 0.4,0.399c0.218,0 0.4,-0.181 0.4,-0.399c-0,-0.218 -0.182,-0.4 -0.4,-0.4c-0.218,-0 -0.4,0.182 -0.4,0.4" style="fill:#231815;fill-rule:nonzero;"/><path d="M26.757,14.338l0.472,0l0,-1.78c-0.145,-0.037 -0.327,-0.073 -0.472,-0.146l0,1.926Z" style="fill:#231815;fill-rule:nonzero;"/><path d="M28.174,12.449c-0.145,0.072 -0.291,0.109 -0.472,0.145l-0,1.78l0.472,0l0,-1.925Z" style="fill:#231815;fill-rule:nonzero;"/><path d="M27.193,10.486l0,-1.053c-0.509,0.109 -0.908,0.508 -1.017,1.053l1.017,0Z" style="fill:#231815;fill-rule:nonzero;"/><path d="M27.738,10.486l1.018,0c-0.073,-0.508 -0.473,-0.944 -1.018,-1.053l0,1.053Z" style="fill:#231815;fill-rule:nonzero;"/><path d="M26.212,10.995c0.145,0.582 0.654,1.018 1.272,1.018c0.618,-0 1.126,-0.436 1.272,-1.018l-2.544,0Z" style="fill:#231815;fill-rule:nonzero;"/><path d="M28.174,9.287c-0.291,-0.218 -0.509,-0.581 -0.545,-0.908c0.327,0.073 0.727,0.291 0.945,0.581l-0,-1.417c-0.218,0.291 -0.618,0.545 -0.945,0.582c0.036,-0.327 0.254,-0.654 0.545,-1.018l-1.381,0c0.291,0.364 0.509,0.691 0.545,1.018c-0.327,-0.073 -0.726,-0.291 -0.944,-0.582l-0,1.417c0.218,-0.29 0.617,-0.545 0.944,-0.581c-0.036,0.363 -0.254,0.69 -0.545,0.908l1.381,0Z" style="fill:#231815;fill-rule:nonzero;"/><path d="M28.211,38.864c-0.291,0 -0.509,-0.218 -0.509,-0.509c-0,-0.29 0.218,-0.508 0.509,-0.508c0.29,-0 0.508,0.218 0.508,0.508c0,0.291 -0.218,0.509 -0.508,0.509m-2.435,-0.763c-0.291,0 -0.545,-0.254 -0.545,-0.545c0,-0.291 0.254,-0.545 0.545,-0.545c0.291,0 0.545,0.254 0.545,0.545c0,0.327 -0.218,0.545 -0.545,0.545m-0.836,-2.434l-0.145,-0.109c-0.254,-0.182 -0.472,-0.182 -0.69,-0c-0.109,0.109 -0.218,0.218 -0.291,0.327l-0.145,0.145l0.109,0.073c0.254,0.218 0.29,0.436 0.218,0.581c-0.037,0.036 -0.073,0.073 -0.146,0.109c-0.145,0.036 -0.327,0 -0.508,-0.145l-0.109,-0.073l-0.073,0.109c-0,0.036 -0.036,0.036 -0.036,0.073c-0.037,0.036 -0.037,0.072 -0.073,0.109c-0.109,0.181 -0.182,0.363 -0.182,0.472l0,0.109c0.037,0.145 0.146,0.218 0.255,0.254l0.072,0.037c0.109,0.072 0.291,0.181 0.4,0.254c-0.218,0.145 -0.472,0.145 -0.69,0.036c-0.364,-0.181 -0.582,-0.581 -0.582,-0.763c0,-0.29 0.146,-0.69 0.4,-1.09l0.036,-0.072l-0.036,-0.073c-0.073,-0.109 -0.145,-0.254 -0.182,-0.363c0.146,0.036 0.255,0.036 0.4,0.072l0.073,0l0.036,-0.036c0.145,-0.182 0.69,-0.727 1.199,-0.727c0.218,0 0.472,0.109 0.654,0.327c0.145,0.146 0.218,0.327 0.254,0.509c-0.072,-0.036 -0.145,-0.109 -0.218,-0.145m4.76,1.925c-1.308,-0.327 -2.834,-0.872 -4.287,-1.526c0.036,-0.29 -0.073,-0.617 -0.291,-0.872c-0.218,-0.254 -0.509,-0.399 -0.836,-0.399c-0.145,-0 -0.254,0.036 -0.399,0.072c-0.218,-0.181 -0.4,-0.399 -0.582,-0.617c-0.545,-0.654 -0.981,-1.381 -1.271,-2.217c-0.182,-0.472 -0.291,-0.981 -0.364,-1.453c-0.072,0.436 -0.545,0.981 -1.344,0.981c-0,-0.073 -0,-0.291 -0.073,-0.327c-0.218,0.218 -0.545,0.509 -1.272,0.218c0.109,0.581 0.255,1.126 0.473,1.671c0.436,1.163 1.053,2.217 1.853,3.125c0.254,0.291 0.545,0.581 0.836,0.836l-0,0.181c-0,0.291 0.29,0.8 0.726,0.981c0.364,0.182 0.727,0.109 1.054,-0.109c0.618,0.328 1.417,0.655 2.289,0.909c0.981,0.254 1.926,0.436 2.653,0.436c0.617,-0 1.453,-0.291 2.289,-0.799c0.327,-0.218 0.654,-0.437 0.872,-0.655c0.036,-0.036 0.072,-0.072 0.072,-0.072c-0.654,0.036 -1.598,-0.146 -2.398,-0.364" style="fill:#231815;fill-rule:nonzero;"/><path d="M29.337,42.861c-0.109,-0.182 -0.218,-0.291 -0.363,-0.291c-0.545,0 -0.327,1.381 -0.945,1.381c-0.291,0 -0.436,-0.182 -0.436,-0.363c-0,-0.182 0.145,-0.255 0.145,-0.4c0,-0.145 -0.109,-0.218 -0.254,-0.218c-0.146,0 -0.255,0.073 -0.255,0.218c0,0.145 0.146,0.218 0.146,0.4c-0,0.181 -0.146,0.363 -0.436,0.363c-0.618,0 -0.436,-1.381 -0.945,-1.381c-0.109,0 -0.254,0.109 -0.363,0.291c-0.109,-0.182 -0.182,-0.4 -0.182,-0.545c0,-0.254 0.182,-0.618 0.618,-0.618c0.69,0 0.545,0.981 0.872,0.981c0.145,0 0.254,-0.109 0.254,-0.254c0,-0.291 -0.509,-0.545 -0.509,-0.945c0,-0.399 0.364,-0.726 0.763,-1.053c0.4,0.327 0.764,0.654 0.764,1.053c-0,0.4 -0.509,0.654 -0.509,0.945c-0,0.145 0.109,0.254 0.254,0.254c0.327,0 0.182,-0.981 0.872,-0.981c0.4,0 0.618,0.364 0.618,0.618c0.036,0.145 -0,0.363 -0.109,0.545m-1.853,1.962c-0.182,0 -0.327,-0.145 -0.327,-0.327c-0,-0.182 0.145,-0.327 0.327,-0.327c0.181,0 0.363,0.145 0.363,0.327c-0.036,0.182 -0.182,0.327 -0.363,0.327m1.417,-3.379c-0.109,-0 -0.182,-0 -0.254,0.036l-0,-1.562c-0.691,-0.036 -1.49,-0.145 -2.253,-0.327l-0,1.889c-0.073,-0.036 -0.182,-0.036 -0.291,-0.036c-0.545,-0 -0.872,0.472 -0.872,0.872c0,0.4 0.218,0.763 0.436,1.017c0.109,-0.254 0.182,-0.436 0.327,-0.436c0.254,0 0.145,1.345 0.945,1.381c-0.037,0.073 -0.037,0.145 -0.037,0.218c0,0.327 0.291,0.618 0.618,0.618c0.327,-0 0.618,-0.291 0.618,-0.618c-0,-0.073 -0,-0.145 -0.036,-0.218c0.799,-0.036 0.654,-1.381 0.944,-1.381c0.146,0 0.218,0.182 0.327,0.436c0.218,-0.218 0.436,-0.617 0.436,-1.017c-0.036,-0.436 -0.363,-0.872 -0.908,-0.872" style="fill:#231815;fill-rule:nonzero;"/><path d="M47.105,43.297c-0.037,-0.073 -0.109,-0.109 -0.218,-0.109c-1.817,0.545 -4.07,-0.981 -6.25,-2.434c-1.853,-1.236 -3.561,-2.362 -5.05,-2.362c-0.545,-0 -1.054,0.109 -1.454,0.327c-0.509,0.291 -0.908,0.727 -1.163,1.344c-0.254,0.618 -0.508,1.018 -0.726,1.345c-0.255,0.399 -0.436,0.69 -0.436,1.053c-0,0.291 0.109,0.545 0.363,0.8c0.218,0.218 0.509,0.399 0.945,0.654c0.109,0.036 0.181,0.109 0.29,0.145c0.364,0.182 0.582,0.291 0.618,0.509c-0.727,0.327 -1.635,0.581 -2.689,0.763c-1.199,0.218 -2.507,0.327 -3.888,0.327c-1.38,-0 -2.688,-0.109 -3.887,-0.327c-1.054,-0.182 -1.999,-0.436 -2.726,-0.763c0.037,-0.291 0.255,-0.436 0.655,-0.618c0.109,-0.036 0.181,-0.073 0.29,-0.145c0.364,-0.182 0.691,-0.364 0.945,-0.582c0.254,-0.218 0.363,-0.472 0.363,-0.763c0,-0.363 -0.181,-0.654 -0.436,-1.053c-0.218,-0.327 -0.472,-0.763 -0.726,-1.345c-0.255,-0.617 -0.654,-1.053 -1.163,-1.344c-0.436,-0.218 -0.909,-0.364 -1.454,-0.364c-1.489,0 -3.233,1.163 -5.05,2.362c-2.18,1.454 -4.433,2.943 -6.25,2.435c-0.072,-0.037 -0.181,0.036 -0.218,0.109c-0.036,0.072 0,0.181 0.073,0.218c0.545,0.254 1.054,0.617 1.526,0.981c0.654,0.508 1.272,0.981 1.962,0.981c0.654,-0 1.344,-0.218 2.18,-0.654c0.727,-0.4 1.49,-0.909 2.217,-1.417c1.453,-0.981 2.906,-1.999 4.323,-2.108c-0.145,0.146 -0.29,0.291 -0.436,0.4c-0.399,0.363 -0.763,0.69 -0.763,1.344c0,0.509 0.182,0.872 0.436,1.381c0.073,0.145 0.146,0.327 0.218,0.509c0.146,0.363 0.218,0.618 0.327,1.017c0.037,0.182 0.073,0.364 0.146,0.582c0.072,0.327 0.254,0.944 1.272,1.489c1.199,0.618 3.27,0.909 6.14,0.909c2.871,-0 4.942,-0.327 6.141,-0.909c1.017,-0.508 1.199,-1.162 1.271,-1.489c0.073,-0.218 0.109,-0.4 0.146,-0.582c0.109,-0.399 0.145,-0.654 0.327,-1.017c0.109,-0.255 0.218,-0.473 0.327,-0.654c0.218,-0.4 0.4,-0.727 0.4,-1.199c-0,-0.654 -0.364,-0.981 -0.8,-1.381c-0.145,-0.109 -0.291,-0.254 -0.436,-0.4c1.417,0.109 2.907,1.127 4.324,2.108c0.727,0.508 1.49,1.017 2.216,1.417c0.836,0.436 1.527,0.654 2.181,0.654c0.69,-0 1.308,-0.473 1.962,-0.981c0.472,-0.364 0.944,-0.763 1.526,-0.981c0.109,-0 0.145,-0.109 0.109,-0.182" style="fill:#231815;fill-rule:nonzero;"/><path d="M27.738,29.199l0,-6.831c0.727,0.036 1.417,0.218 2.071,0.545c0.691,0.363 1.345,0.836 1.89,1.49c0.545,0.654 0.981,1.381 1.271,2.216c0.291,0.836 0.436,1.708 0.473,2.58l-5.705,0Zm-0.254,-9.701c-1.926,-0 -3.27,0.581 -4.033,1.09c-0.436,-0.255 -0.654,-0.545 -0.654,-0.836c-0,-1.09 3.088,-1.199 4.687,-1.199c1.562,-0 4.687,0.109 4.687,1.199c0,0.291 -0.182,0.581 -0.654,0.836c-0.763,-0.509 -2.107,-1.09 -4.033,-1.09m-0.109,9.701l-5.814,0c0,-0.908 0.182,-1.78 0.473,-2.58c0.29,-0.835 0.726,-1.562 1.271,-2.216c0.545,-0.654 1.163,-1.127 1.89,-1.49c0.69,-0.327 1.417,-0.509 2.18,-0.545l-0,6.831Zm8.829,-0.436c-0.218,-0.145 -0.545,-0.472 -0.69,-0.799c-0.218,-0.436 -1.127,-2.217 -1.272,-2.471c-0.109,-0.182 -0.182,-0.363 -0.182,-0.545c0,-0.182 0.109,-0.327 0.182,-0.473c0.073,-0.072 0.254,-0.29 0.327,-0.399c0.073,-0.073 0.109,-0.146 0.145,-0.218c-0.327,-0.582 -0.654,-0.981 -1.09,-1.49c-0.545,-0.581 -1.126,-1.09 -1.78,-1.526c0.363,-0.218 0.69,-0.545 0.69,-1.09c0,-0.327 -0.145,-0.581 -0.363,-0.763c0.363,-1.163 1.017,-2.58 1.562,-3.198l-1.162,-0.508c0.29,0.472 0.327,1.017 0.254,1.308c-0.291,-0.218 -0.581,-0.509 -0.654,-0.872c-0.073,0.363 -0.254,0.908 -0.436,1.271c0.327,-0.145 0.618,-0.218 0.945,-0.072c-0.182,0.254 -0.691,0.69 -1.454,0.508c-0.399,-0.109 -0.835,-0.327 -0.799,-0.654c-0,-0.181 0.145,-0.436 0.4,-0.399c0.254,0.036 0.254,0.399 0.181,0.581c0.327,-0.182 0.691,-1.163 0.146,-1.308c-0.4,-0.109 -0.8,0.436 -0.909,0.872c-0.072,-0.509 -0.29,-1.017 -0.69,-0.981c-0.545,0.036 -0.363,1.017 -0.182,1.272c0.037,-0.364 0.218,-0.545 0.4,-0.509c0.145,0 0.327,0.109 0.291,0.436c-0.037,0.327 -0.473,0.509 -1.018,0.509c-0.508,-0 -1.344,-0.146 -1.453,-1.09c0.327,0.072 0.836,0.29 1.054,0.617c-0.073,-0.581 -0.073,-0.981 -0,-1.598c-0.255,0.363 -0.727,0.581 -1.018,0.617c0.073,-0.399 0.436,-0.835 0.836,-1.09l-2.108,0c0.4,0.255 0.763,0.691 0.836,1.09c-0.327,-0.036 -0.763,-0.254 -1.017,-0.617c0.072,0.581 0.072,1.017 -0,1.598c0.218,-0.327 0.69,-0.545 1.017,-0.617c-0.073,0.944 -0.945,1.09 -1.453,1.09c-0.509,-0 -0.981,-0.182 -1.018,-0.509c-0.036,-0.327 0.146,-0.436 0.291,-0.436c0.145,0 0.363,0.182 0.363,0.509c0.182,-0.255 0.364,-1.236 -0.181,-1.272c-0.4,-0.036 -0.618,0.472 -0.727,0.981c-0.145,-0.436 -0.509,-0.981 -0.908,-0.872c-0.509,0.145 -0.182,1.126 0.145,1.308c-0.073,-0.182 -0.073,-0.545 0.182,-0.581c0.254,-0.037 0.399,0.218 0.399,0.399c0.037,0.327 -0.399,0.545 -0.799,0.654c-0.763,0.182 -1.272,-0.218 -1.453,-0.472c0.363,-0.145 0.617,-0.073 0.981,0.073c-0.182,-0.327 -0.364,-0.909 -0.436,-1.272c-0.073,0.4 -0.364,0.69 -0.654,0.908c-0.073,-0.327 -0.037,-0.872 0.254,-1.308l-1.163,0.509c0.545,0.618 1.199,2.035 1.563,3.198c-0.218,0.181 -0.364,0.436 -0.364,0.763c0,0.545 0.364,0.872 0.691,1.09c-0.654,0.436 -1.236,0.944 -1.744,1.526c-0.8,0.908 -1.418,1.925 -1.854,3.125c0.146,0.181 0.872,0.944 1.018,1.126c0.29,0.363 0.472,0.727 0.472,1.017c0,0.545 0.145,0.727 0.4,1.09c0.073,0.109 0.218,0.509 0.218,0.763l5.813,0l0,6.323c-0.218,-0 -0.472,0.072 -0.654,0.327c0.654,0.254 1.308,0.508 1.963,0.726c0.072,-0.399 0.145,-0.654 0.363,-0.908c-0,0 -0.836,-0.073 -1.308,-0.109l-0,-6.322l5.813,-0c-0.036,0.872 -0.181,1.707 -0.472,2.507c-0.291,0.836 -0.727,1.562 -1.272,2.216c-0.545,0.654 -1.162,1.127 -1.889,1.49c-0.109,0.073 -0.109,0.145 -0.218,0.182c-0.109,0.109 -0.182,0.29 -0.291,0.508c-0.072,0.182 -0.109,0.327 -0.145,0.582c0.254,0.072 0.4,0.109 0.654,0.181c1.998,0.509 2.471,0.364 2.58,0.255c0.436,-0.327 0.872,-0.727 1.235,-1.163c0.799,-0.908 1.417,-1.962 1.853,-3.125c0.473,-1.199 0.691,-2.507 0.691,-3.815c0.072,-0.363 0.072,-0.436 0.072,-0.654" style="fill:#231815;fill-rule:nonzero;"/><path d="M30.899,25.13c-0.036,0.036 -0.072,0.109 -0.072,0.145c0.036,0.073 0.072,0.109 0.181,0.109c-0.072,0.036 -0.109,0.145 -0.145,0.254c0.109,0 0.182,0 0.254,-0.072c-0.036,0.109 0,0.145 0.073,0.181c0.036,0.037 0.109,0.037 0.145,0c0.436,0.691 0.727,1.49 0.836,2.289c-0.036,-0.036 -0.109,-0.072 -0.218,-0.072c0,0.109 0.036,0.218 0.109,0.254l-1.417,0c-0,-0.073 -0.036,-0.182 -0.109,-0.182c-0.073,-0.036 -0.109,0 -0.182,0.073c0,-0.073 -0.036,-0.182 -0.109,-0.254c-0.072,0.072 -0.109,0.181 -0.109,0.254c-0.072,-0.073 -0.145,-0.073 -0.181,-0.073c-0.073,0.037 -0.109,0.109 -0.109,0.182l-1.163,0c0.036,-0.073 0.073,-0.145 0.073,-0.254c-0.109,-0 -0.182,0.036 -0.255,0.072l0,-1.962c0.109,0 0.182,-0.036 0.182,-0.109c0.036,-0.072 -0,-0.145 -0.073,-0.181c0.073,-0 0.182,-0.037 0.255,-0.109c-0.073,-0.073 -0.182,-0.109 -0.255,-0.109c0.073,-0.073 0.073,-0.146 0.073,-0.182c-0.036,-0.073 -0.109,-0.109 -0.182,-0.109l0,-1.672c0.037,0.037 0.109,0.073 0.218,0.073c0,-0.109 0,-0.182 -0.072,-0.254c0.363,0.109 0.726,0.29 1.09,0.545c0.436,0.399 0.835,0.763 1.162,1.163m1.599,2.943c0.109,0.072 0.073,0.218 -0.073,0.218c-0.109,-1.018 -0.508,-2.035 -1.09,-2.871c0.109,-0.036 0.218,-0.145 0.255,-0.29c-0.182,-0.037 -0.291,0.072 -0.364,0.145c-0.036,-0.073 -0.072,-0.109 -0.109,-0.145c-0.363,-0.473 -0.763,-0.836 -1.235,-1.163c-0.436,-0.291 -0.908,-0.509 -1.381,-0.618c0,-0.109 0.146,-0.145 0.218,-0.036c0,-0.182 -0.145,-0.255 -0.218,-0.218c-0.036,-0 -0.109,0.072 -0.109,0.145c-0.072,-0.073 -0.145,-0.109 -0.254,-0.145c-0,0.109 0.036,0.218 0.073,0.254c-0.073,0 -0.109,0.036 -0.146,0.073c-0.036,0.072 0,0.254 0.182,0.254c-0.073,-0.073 -0.036,-0.218 0.073,-0.218l-0,2.217c-0.109,-0.037 -0.255,-0.037 -0.364,0.109c0.109,0.109 0.255,0.145 0.364,0.109l-0,2.398c-0.109,-0 -0.146,-0.146 -0.073,-0.218c-0.182,-0 -0.255,0.145 -0.218,0.254c0.036,0.073 0.073,0.109 0.182,0.073c-0.073,0.072 -0.109,0.145 -0.109,0.254c0.109,0 0.181,-0.036 0.254,-0.109c-0,0.109 0.036,0.145 0.109,0.182c0.073,0.036 0.254,-0.037 0.254,-0.218c-0.072,0.109 -0.218,0.072 -0.218,-0.037l1.672,0c-0.037,0.109 -0,0.255 0.109,0.364c0.109,-0.109 0.145,-0.255 0.109,-0.364l1.853,0c-0,0.109 -0.146,0.146 -0.218,0.073c-0,0.182 0.181,0.254 0.254,0.218c0.073,-0.036 0.109,-0.073 0.073,-0.182c0.072,0.037 0.145,0.073 0.254,0.073c0,-0.109 -0.036,-0.182 -0.109,-0.254c0.109,-0 0.145,-0.037 0.182,-0.109c0.072,-0.073 -0,-0.218 -0.182,-0.218" style="fill:#231815;fill-rule:nonzero;"/><path d="M31.517,27.455c0.073,-0.036 0.145,-0.073 0.145,-0.145c-0.072,0.036 -0.145,-0 -0.145,-0.037c0.073,-0.036 0.109,0 0.073,-0.109c-0.073,-0.109 -0.109,-0.109 -0.182,-0.036c-0.073,0.073 -0.509,-0.036 -0.509,-0.363c0.037,0.072 0.073,0.109 0.146,0.145c-0,-0 0.036,-0 0.036,0.036l0.073,0c0.036,0 0.072,0.037 0.145,0.037l0.036,-0c0.109,-0.037 0.182,-0.073 0.182,-0.182c-0,-0.182 -0.145,-0.254 -0.363,-0.436c-0.073,-0.073 -0.146,-0.109 -0.182,-0.182c-0.073,-0.145 -0.036,-0.254 -0.182,-0.508c0,-0.073 -0.036,-0.109 -0.072,-0.218c-0.073,0.145 -0.146,0.472 0.109,0.726c0.181,0.218 0.581,0.4 0.581,0.582c-0,0.036 -0.036,0.072 -0.109,0.072l-0.109,0c-0.036,0 -0.073,0 -0.073,-0.036c-0.036,-0.036 -0.072,-0.073 -0.145,-0.109c-0.182,-0.145 -0.327,-0.4 -0.4,-0.509c-0.181,-0.254 -0.109,-0.472 -0.072,-0.654c0.145,-0.181 -0.073,-0.545 -0.218,-0.654c-0,0 0.036,-0.072 -0,-0.181c-0.037,0.036 -0.073,-0 -0.109,-0c-0.037,-0.073 -0.037,-0.073 -0.109,-0.073c-0.073,-0 -0.073,-0.073 -0.073,-0.073c-0.036,0.037 -0.073,0.073 -0.109,0.073c-0.073,-0 -0.109,-0 -0.109,0.036c-0.036,0.037 -0.073,0.037 -0.145,0.037c-0.073,-0 -0.073,0.036 -0.073,0.109c-0,0.036 -0,0.072 0.073,0.109l0.036,-0l0.073,0.072l0.036,-0.072c0.036,-0.037 0.145,-0.037 0.145,0.036c0,0.036 0.037,0.073 -0.036,0.073l-0.145,-0c-0.037,-0 -0.037,0.072 -0.037,0.109c0,0.036 0.037,0.072 0.146,0.036c0.109,-0.036 0.254,-0.036 0.254,0.036c-0,0.218 -0.218,0.182 -0.291,0.436c-0.072,-0.036 -0.109,-0.072 -0.145,-0.145c-0.036,-0.073 -0.073,-0.145 -0.182,-0.218c-0.036,-0.036 -0.109,-0.109 -0.181,-0.145c-0.073,-0.037 -0.073,-0.073 -0.073,-0.182c-0,-0.073 0.036,-0.145 0.036,-0.218c0,-0 0,-0.036 -0.036,-0.073c-0,-0.036 -0.073,-0.072 -0.109,-0.072c-0,-0 0.036,0.036 0.036,0.072l-0.036,0.037c-0,-0 -0.036,0.036 -0,0.072l-0,0.037c-0.036,-0.037 -0.036,-0.109 -0.073,-0.146l-0.036,0c-0,-0.036 -0.073,-0.109 -0.109,-0.036c-0,-0 0.036,-0 0.036,0.036l0,0.037c0,0.036 0.037,0.072 0.109,0.072l0,0.037c-0.109,-0.037 -0.145,-0 -0.145,0.036l-0,0.036c-0.036,0.037 -0.036,0.073 0.036,0.109l0,-0.072l0.037,0.036l0.109,-0c-0.073,0.073 -0.037,0.109 0.036,0.145c-0.036,0.073 -0.145,0.037 -0.145,-0.072c-0.073,0.145 0.036,0.218 0.145,0.181l-0,0.146c-0,-0 -0,-0.037 0.036,-0.037c0,0.037 0,0.073 0.073,0.073l-0,-0.036c-0,0.036 0.036,0.072 0.036,0.072c0.037,0.109 0.146,0.327 0.4,0.436c-0.109,0.073 -0.218,0.182 -0.291,0.255c-0.072,0.072 -0.181,0.145 -0.218,0.109c-0.036,-0.037 -0.036,-0.037 -0.072,-0.073c-0.037,-0.036 -0.073,-0.036 -0.073,-0.036l-0.036,-0c-0.037,-0 -0.109,-0 -0.109,0.036l0.072,-0l0,0.036c0,0.037 0.037,0.073 0.146,0.037c-0,-0 0.036,-0 -0,-0c-0,-0 -0.037,0.036 -0.073,-0c-0.073,-0 -0.073,-0.073 -0.109,-0c-0,-0 -0,0.036 -0.036,0.036c-0.037,-0 -0.109,0.109 -0.037,0.145c0,0 0,-0.036 0.037,-0.072l0.036,0.036c0.036,0.036 0.073,0.073 0.145,-0.036c0,0.072 -0.072,0.145 0,0.145l0.037,-0c-0,0.073 0.109,0.073 0.145,0.073c-0.036,-0 -0.073,-0.037 -0.073,-0.073l0.037,-0c0.036,-0.036 -0,-0.109 -0,-0.145c-0,0.036 0.036,0.072 0.109,0.036c0.036,-0.036 0.036,-0.036 0.036,-0.073c0.073,-0.036 0.145,-0.072 0.218,-0.036c-0,-0.036 0.036,-0.109 0.145,-0.145c0.073,-0.037 0.146,-0 0.146,0.036c-0,-0.036 0.036,-0.109 0.072,-0.145c0,0.363 0.473,0.363 0.582,0.545c-0.146,-0.073 -0.291,-0.109 -0.4,-0.073c-0.109,0.036 -0.327,0.145 -0.363,0.254c-0.037,0.109 0.109,0.291 0.218,0.364c-0.146,0.036 -0.182,-0 -0.327,-0c-0.109,-0 -0.109,-0.182 -0.255,-0.146c0,0 -0.036,0 -0.036,0.037c-0.036,-0 -0.109,0.072 -0.109,0.109c-0,-0 0.036,-0.037 0.073,-0.037l-0,0.037c-0,0.036 -0,0.036 0.036,0.036l0.036,-0c0,0.036 -0.145,-0.036 -0.145,0.109c-0,-0 -0,0.036 0.036,0.036c0,0.037 0.037,0.073 0.109,0.073l-0.036,-0.036l0.036,-0l0,-0.037l0,0.073c0,0.036 0.073,0.109 0.146,0.036c-0.037,0 -0.073,0 -0.073,-0.036l0.036,-0l0,-0.036l0.073,-0c-0,0.036 0.036,0.072 0.109,0.036c0.036,-0 0.036,-0.036 0.036,-0.036c0.037,-0 0.037,0.036 0.073,0.036c-0,-0.036 0.036,-0.109 0.145,-0.036l0.073,-0.073c-0,-0 0.109,0.036 0.145,-0c0.073,-0.073 0.037,-0.073 0.037,-0.109c-0.037,-0.109 -0.073,-0.109 -0.109,-0.182c-0.037,-0.181 0.218,-0.29 0.363,-0.254c0.036,0.109 0.182,0.4 0.436,0.509c0.145,0.072 0.218,-0.109 0.291,-0.109l0.036,0.036l-0,0.182c-0,0.036 -0.109,-0 -0.182,-0c-0.036,-0 -0.072,0.036 -0.072,0.036c-0.037,-0 -0.109,0.036 -0.109,0.109c0.036,-0 0.036,-0.036 0.109,-0.036l-0,0.036c-0,0.073 0.072,0.109 0.145,0.036c-0,0 0.036,0 -0,0c-0.036,0.037 -0.109,0.109 -0.036,0.109l0.036,0c-0,0.037 0.036,0.073 0.073,0.109l-0,-0.072l0.036,-0c0.036,-0 0.036,-0.073 0.073,-0.109c-0,0.036 -0.037,0.109 0.036,0.109l0.036,-0c0,0.036 0.073,0.072 0.109,0.036c0,-0 -0.036,-0.036 -0.072,-0.036l0.036,-0.037c0.036,-0.109 -0.073,-0.109 -0.073,-0.145c0,-0.036 0.109,-0.036 0.109,-0.109c0.037,-0.036 0.109,-0.073 0.109,-0.109c0,0.254 -0.036,0.218 -0.036,0.218Z" style="fill:#231815;fill-rule:nonzero;"/><path d="M26.212,30.616l-0.073,0c-0.072,0 -0.218,0.036 -0.218,0.145c0,0.109 0.073,0.182 0.182,0.182l0.073,0l-0,0.073c-0.037,0.181 -0.073,0.472 -0.109,0.799l-0.872,-1.235c0.399,-0.146 0.726,-0.327 0.908,-0.327c0.109,-0 0.145,0.072 0.109,0.363m-0.327,2.144l-1.381,-1.962c0.146,-0.037 0.291,-0.073 0.436,-0.146l1.018,1.454c-0,0.254 -0.037,0.472 -0.073,0.654m-0.145,0.908l-1.926,-2.761l0.182,-0c0.109,-0 0.181,-0 0.29,-0.037l1.563,2.217c-0.037,0.218 -0.073,0.4 -0.109,0.581m-2.18,-2.761l2.107,3.052c-1.126,-0.472 -2.253,-1.49 -2.107,-3.052m3.161,-0.255l-0.109,0l-0,-0.109c-0,-0.327 -0.182,-0.581 -0.545,-0.581c-0.327,0 -0.945,0.436 -1.853,0.436c-0.364,0 -0.836,-0.182 -1.09,-0.363l-0.109,0.254l-0,-0.036c-0,-0.109 -0.109,-0.218 -0.218,-0.218c-0.109,-0 -0.218,0.109 -0.218,0.218c-0,0.109 0.109,0.218 0.218,0.218c0.072,-0 0.145,-0.037 0.181,-0.073l-0.109,0.254c0.037,0 0.073,0.037 0.109,0.037c-0.145,1.344 0.872,3.052 2.616,3.561c0.255,-0.073 0.509,-0.037 0.509,0.254c0,0.182 -0.073,0.254 -0.254,0.254c-0.109,0 -0.182,-0.072 -0.182,-0.145c0,-0.109 0.218,-0.036 0.218,-0.145c0.036,-0.109 -0.036,-0.146 -0.145,-0.146c-0.109,0 -0.291,0.073 -0.291,0.291c0,0.254 0.182,0.4 0.4,0.4c0.181,-0 0.617,-0.109 0.545,-0.582c0.109,0 0.181,0 0.218,-0.109l0.036,-0.254l-0.109,-0l0.073,-3.052l0.072,-0c0.109,-0 0.218,-0.037 0.218,-0.146c0,-0.145 -0.072,-0.218 -0.181,-0.218" style="fill:#231815;fill-rule:nonzero;"/><path d="M25.158,24.185c0,-0.037 0.037,-0.037 0.037,-0.037c0.036,0 0.036,0 0.036,-0.036c0,-0.036 0,-0.036 -0.036,-0.073c0.036,0 0.036,0 0.036,-0.036l-0.036,0c-0,0 -0,-0.036 0.036,-0.036l0.036,-0l0.109,0.036c0,0 0.037,0 0.037,0.036l-0,0.037c-0,-0 -0,-0.037 -0.037,-0.037l0,0.037c-0.036,-0 -0.036,-0.037 -0.072,-0l-0,0.109c-0,0.036 -0.037,0.072 -0.073,0.036c-0.073,0.036 -0.073,0 -0.073,-0.036m0.146,-0.291c-0,0.036 -0.073,0.073 -0.073,0.036c-0.036,-0.036 0,-0.036 -0.036,-0.109c0.036,0.037 0.072,0.073 0.109,0.073m0.072,0.073c0,-0 0.109,0.036 0.146,0.036c-0.073,0 -0.037,0.036 -0.073,0.036c-0.073,0 -0.073,-0.036 -0.073,-0.072m-0.29,0.072m1.271,0.436c0.4,0 0.618,-0.145 0.618,-0.254c0,-0.472 -1.126,-0.182 -1.126,-0.472c-0,-0.037 0.036,-0.073 0.072,-0.109c0.582,-0.037 0.582,-0.436 0.981,-0.509c-0.508,-0.073 -0.545,0.327 -0.763,0.327c0.109,-0.036 0.146,-0.182 0.146,-0.254c-0.109,0.145 -0.327,0.145 -0.436,0.29c-0,0.037 -0.037,0.073 -0.037,0.073c-0.072,0.036 -0.109,0.109 -0.109,0.182c0,0.436 1.163,0.145 1.163,0.436c0,0.109 -0.182,0.181 -0.509,0.181c-0.254,0 -0.399,-0.181 -0.835,-0.072c-0,-0.073 0.145,-0.218 0.072,-0.291c0.037,0 0.073,-0.036 0.073,-0.073c-0.036,-0.036 -0.073,-0.036 -0.073,-0.036c0,-0.036 0,-0.036 -0.036,-0.073c0,0 0,-0.036 -0.036,-0.072c-0,-0 -0.037,-0.037 -0.109,-0.073c-0.037,-0.036 -0.073,-0.036 -0.109,-0.036l-0.073,-0c-0.036,-0 -0.073,-0 -0.073,0.036c-0.036,-0.036 -0.036,-0.036 -0.072,-0.036c-0,0.036 -0.037,0.072 -0,0.109c-0.037,-0 -0.073,0.109 -0.109,0.109c-0,0.036 0.036,0.036 0.036,0.036c-0.036,0.073 -0.036,0.145 -0.073,0.145l0.037,0.037c-0.037,0.109 -0.037,0.218 -0.073,0.254c-0.036,-0.036 -0.073,-0.036 -0.109,-0.073c-0.073,-0.036 -0.073,-0.072 -0.036,-0.145c-0,-0.073 0.036,-0.109 0.036,-0.145l0,-0.037c0,-0.036 -0.073,-0.072 -0.073,-0.072c0,-0 0.037,0.036 0.037,0.072l-0.037,0.037c0,-0 -0.036,0.036 0,0.072l0,0.037c0,-0.037 -0.036,-0.109 -0.072,-0.109l-0.037,-0c0,-0.037 -0.036,-0.073 -0.109,-0.037l0.037,0c-0,0 -0,0.037 -0.037,0.037c0,0.036 0.037,0.072 0.073,0.072l-0,0.037c-0.073,-0.037 -0.109,-0 -0.145,0.036l-0,0.036c-0.037,0 -0.037,0.073 -0,0.073c-0,0 -0,-0.036 0.036,-0.036l-0,0.036l0.109,0c-0.073,0.036 -0.073,0.109 -0,0.109c-0.036,0.109 -0.145,0.073 -0.145,0c-0.109,0.109 0.036,0.182 0.145,0.145c-0,0.037 -0,0.037 0.036,0.037c0,-0 0,-0.037 0.037,-0.037c-0,0.037 -0,0.073 0.036,0.073l0,-0.036c0,-0 0.036,0.073 0.109,0.145c-0.109,0.037 -0.254,0.073 -0.254,0.073l-0.218,-0c-0.073,0.036 -0.218,0.109 -0.291,0.036c-0,-0.036 -0,-0.036 -0.036,-0.072c-0,-0.037 -0.037,-0.037 -0.037,-0.037l-0.036,0c-0.036,-0.036 -0.073,-0.036 -0.109,0c0.036,0 0.036,0 0.073,0.037l-0,0.036c-0,0.036 -0,0.036 0.109,0.073l-0.073,-0c-0.036,-0.037 -0.036,-0.073 -0.109,-0.037l-0.036,0c-0.037,0 -0.109,0.037 -0.073,0.109c-0,0 0.036,-0.036 0.073,-0.036l-0,0.036c-0,0.037 0.036,0.109 0.145,0.037c-0.036,0.036 -0.109,0.072 -0.036,0.109l0.036,-0c-0,0.072 0.036,0.109 0.073,0.109c-0,-0 -0.037,-0.037 -0.037,-0.073l0.037,-0c0.036,-0.036 0.036,-0.073 0.036,-0.109c-0,0.036 -0,0.073 0.073,0.073c0.072,-0 0.072,-0.073 0.072,-0.073c0.037,-0 0.037,0.036 0.037,0.073l0.036,-0.037c-0,0.037 -0,0.073 -0.036,0.109c0.036,0 0.072,-0.036 0.109,-0.109c-0,0 -0,0.037 0.036,0.037l0.109,-0l-0,0.072c-0,0 -0,-0.036 0.036,-0.036c0,-0 0,0.073 0.037,0.109c-0,-0.145 0.109,-0.109 0.181,-0.145l-0.036,0.036c0.036,-0 0.109,-0.036 0.109,-0.073c0,0 0.036,-0.036 0.073,-0.036c0.036,-0 0.072,-0 0.109,-0.036c-0,-0 0.036,0.072 -0,0.072c0.109,0 0.218,-0.109 0.254,-0.109c0.218,-0.036 -0.145,-0.218 0.327,-0.181c0.036,-0 0.109,-0.037 0.145,-0.037c-0.036,0.073 -0.036,0.218 0.037,0.218c0.036,0 0.072,0.037 0.109,0.037c-0.037,-0 -0.073,-0 -0.109,0.036c-0.109,0.073 -0.109,-0.145 -0.218,-0.109c-0,-0 -0.037,-0 -0.037,0.036c-0.036,0 -0.109,0.037 -0.109,0.109c0,0 0.037,-0.036 0.073,-0.036l0,0.036c0,0 0,0.037 0.036,0.037l0.037,-0c-0,0.036 -0.146,-0.037 -0.109,0.109c-0,-0 -0,0.036 0.036,0.036c0,0.036 0.036,0.073 0.073,0.036l-0.037,-0.036l0.037,-0l-0,-0.036l-0,0.072c-0,0.037 0.072,0.073 0.109,0.037c-0,-0 -0.037,-0 -0.073,-0.037l0.036,0l0,-0.036l0.073,-0c0,0.036 0.036,0.036 0.073,0.036c0.072,-0.036 -0,-0.072 0.072,-0.109l0.182,0c0,-0.036 0,-0.145 -0.036,-0.181c-0.037,-0 -0,-0.073 -0.037,-0.109c0.073,0.036 0.146,0.036 0.218,0.036c0.146,-0 0,-0.036 0.073,-0.073c0.073,-0.036 0.182,-0.036 0.182,-0.036c0.036,-0 0.036,-0 0.036,0.036l0,0.146c0,0.036 -0.073,-0 -0.145,-0c-0.037,-0 -0.037,-0 -0.037,0.036c-0.036,-0 -0.072,0.036 -0.072,0.073c-0,-0 0.036,-0.037 0.072,-0.037c0,0.073 0.073,0.073 0.109,0.037c0,-0 0.037,-0 0,-0c-0.036,0.036 -0.109,0.072 -0.036,0.109l0.036,-0c0,0.036 0.037,0.072 0.037,0.072l-0,-0.072l0.036,-0c0.036,-0 0.036,-0.073 0.073,-0.073c-0,0.036 -0.037,0.073 -0,0.109l0.036,-0c0,0.036 0.036,0.036 0.109,0.036c0,0 -0.036,0 -0.036,-0.036l0.036,-0.036c0.036,-0.073 -0.036,-0.073 -0.036,-0.109c-0,-0.037 0.072,-0 0.072,-0.109c0,-0 0,-0.037 -0.036,-0.037c0.036,0 0.036,0 0.073,-0.036c-0.073,-0 -0.037,-0.036 -0.037,-0.073c0.037,0 0.037,-0.036 0.037,-0.109c-0.037,0.037 -0.109,0.073 -0.109,0c-0,0 -0,-0.036 -0.073,-0.036c0.073,-0.036 0,-0.109 -0.182,-0.146c-0.036,0.037 -0.036,0.037 0,0" style="fill:#231815;fill-rule:nonzero;"/><path d="M24.468,26.692c-0,-0 -0,-0.036 -0,-0m-0.327,-0.727c-0,-0.036 0.036,-0.036 0.036,-0.036c0.037,-0 0.037,-0 0.037,-0.036c-0,-0.037 -0,-0.037 -0.037,-0.073c0.037,-0 0.037,-0.036 0.037,-0.036l-0.037,-0c0,-0 0,-0.037 0.037,-0.037l0.036,0l0.109,0.073c-0,-0 0.036,-0 0.036,0.036l0,0.037c0,-0 0,-0.037 -0.036,-0.037c-0.036,0 -0.036,0.037 -0,0.037c-0.036,-0 -0.073,-0.037 -0.073,-0l0,0.145c0,0.036 -0.036,0.073 -0.109,0.036c-0.036,-0.036 -0.036,-0.072 -0.036,-0.109m0.145,-0.327c-0.036,0.037 -0.072,0.073 -0.109,0.037c-0.036,-0.037 0,-0.037 -0.036,-0.109c0.073,0.036 0.145,0.072 0.145,0.072m0.109,0.037c0,-0 0.109,0.036 0.146,0.072c-0.073,0 -0.037,0.037 -0.109,0.037c-0.037,-0 -0.037,-0.037 -0.037,-0.109m-0.654,0.581m3.198,-0.218c-0,-0.109 -0.146,-0.218 -0.545,-0.218c-0.4,-0 -1.308,0.145 -1.308,-0.073c-0,-0.109 0.181,-0.109 0.399,-0.072c0,-0 0.037,0.036 0.073,0.036c0.509,0.145 1.126,-0.109 1.453,-0.036c-0.363,-0.291 -0.69,-0 -1.09,-0.073c0.218,-0 0.327,-0.073 0.327,-0.145c-0.181,0.109 -0.508,-0.073 -0.726,0.072c-0,0 -0.037,0 -0.037,0.037c-0.29,-0 -0.508,-0 -0.508,0.181c-0,0.4 1.09,0.182 1.417,0.182c0.327,-0 0.399,0.036 0.399,0.109c0,0.109 -0.327,0.109 -0.545,0.109c-0.29,-0 -1.199,-0.145 -1.707,-0.036c0.036,-0.073 0.145,-0.182 0.072,-0.255c0.037,-0.036 0.073,-0.072 0.073,-0.109c-0.036,-0.036 -0.073,-0.036 -0.109,-0.036c-0,-0.036 -0,-0.036 -0.036,-0.073c-0,0 -0,-0.072 -0.037,-0.072c-0.036,-0 -0.072,-0.037 -0.109,-0.073c-0.072,-0.036 -0.109,-0.036 -0.109,-0.036l-0.072,-0c-0.037,-0 -0.073,-0 -0.073,0.036c-0.036,-0.036 -0.073,-0.036 -0.109,-0.036c-0.036,0.036 -0.036,0.072 -0,0.145c-0.036,-0 -0.109,0.145 -0.145,0.109c-0,0.036 0.036,0.036 0.036,0.036c-0.036,0.073 -0.073,0.146 -0.109,0.146c0.036,0.036 0.036,0.072 0.073,0.072l-0,0.146l-0.073,-0.037l-0.073,0l0.037,0l-0.037,0c-0.036,-0.036 -0.109,-0.109 -0.181,-0.145c-0.073,-0.036 -0.073,-0.073 -0.073,-0.182c-0,-0.072 0.036,-0.145 0.036,-0.218l0,-0.072c0,-0.037 -0.072,-0.073 -0.109,-0.073c0,-0 0.037,0.036 0.037,0.073l-0.037,0.036c0,0.036 -0.036,0.036 0,0.073l0,0.036c0,-0.036 -0.036,-0.109 -0.072,-0.145l-0.037,-0c0,-0.037 -0.036,-0.109 -0.109,-0.037c0,0 0.037,0 0.037,0.037l-0,0.036c-0,0.036 0.036,0.073 0.072,0.073l0,0.036c-0.072,-0.036 -0.145,-0 -0.145,0.036l-0,0.037c-0.036,0.036 -0.036,0.072 -0,0.109c-0,-0 -0,-0.037 0.036,-0.073l0.037,0.036l0.109,0c-0.073,0.073 -0.073,0.109 0.036,0.146c-0,0.109 -0.182,0.109 -0.145,-0.037c-0.073,0.146 0.036,0.218 0.181,0.182c0,0.036 0,0.036 0.037,0.036c-0,0 -0,-0.036 0.036,-0.036c-0,0.036 -0,0.073 0.036,0.073l0,-0.037c0.037,0 0.073,0.073 0.146,0.146c0.072,0.036 0.145,0.109 0.181,0.072c0,0.073 0.073,0.182 0.037,0.182l-0.291,-0c-0.073,0.036 -0.254,0.109 -0.327,0.036c-0.036,-0.036 -0,-0.036 -0.036,-0.109c-0,-0.036 -0.037,-0.036 -0.073,-0.036l-0.036,-0c-0.037,-0.036 -0.109,-0.036 -0.146,-0c0.037,-0 0.037,-0 0.073,0.036c-0,0 -0,0.037 -0.036,0.037c-0,0.036 -0,0.072 0.109,0.109l-0.073,-0c-0.036,-0.037 -0.036,-0.073 -0.109,-0.073c-0,-0 -0.036,-0 -0.036,0.036c-0.037,0 -0.146,0.073 -0.109,0.109c-0,0 0.036,-0.036 0.072,-0.036l0,0.036c0,0.073 0.037,0.109 0.146,0.037c-0.037,0.036 -0.109,0.109 -0.037,0.145l0.037,0.036c-0,0.073 0.072,0.109 0.109,0.109c-0,-0.036 -0.037,-0.036 -0.037,-0.109l0.037,0c0.072,-0.036 0.036,-0.109 0.072,-0.109c0,0.037 0,0.109 0.073,0.073c0.073,-0 0.109,-0.073 0.109,-0.109c0.036,-0 0.036,0.036 0.036,0.073l0.037,-0.037c-0,0.037 -0,0.073 -0.037,0.109c0.037,0 0.109,-0.036 0.109,-0.109l0.037,0.037l0.145,-0l-0,0.072l0.036,-0.036c0.037,-0 0,0.073 0.037,0.109c-0,-0.182 0.109,-0.109 0.218,-0.182c-0,0.037 -0.037,0.037 -0.037,0.073c0.109,0.036 0.327,-0.145 0.364,-0.254l0.109,-0c0.363,0.036 0.109,-0.327 0.69,-0.218c0.036,-0 0.109,-0.037 0.145,-0.073c-0.036,0.073 -0.036,0.218 0.037,0.254c0.036,0 0.109,0.037 0.145,0.073c-0.036,-0 -0.109,-0 -0.109,0.036c-0.109,0.073 -0.109,-0.181 -0.254,-0.145c-0,-0 -0.037,-0 -0.037,0.036c-0.036,0 -0.109,0.073 -0.109,0.109c0,0 0.037,-0.036 0.073,-0.036l0,0.036c0,0 0,0.037 0.036,0.037l0.037,-0c-0,0.036 -0.146,-0.037 -0.146,0.109c0,-0 0,0.036 0.037,0.036c-0,0.036 0.036,0.073 0.109,0.073l-0.037,-0.037l0.037,0l-0,-0.036l-0,0.073c-0,0.036 0.072,0.109 0.145,0.036c-0.036,-0 -0.073,-0 -0.073,-0.036l0.037,-0l-0,-0.037l0.072,0c0,0.037 0.037,0.073 0.109,0.037c0.073,-0.037 0,-0.109 0.073,-0.109l0.218,-0c0.036,-0.037 0,-0.146 -0.073,-0.182c-0.036,-0.036 0,-0.073 -0.036,-0.145c0.073,0.036 0.145,0.072 0.254,0.072c0.182,0 0.218,-0.036 0.327,-0.072c0.109,-0.073 0.182,-0.037 0.218,-0.037c0.037,0 0.037,0 0.037,0.037c-0.037,0.109 -0,0.109 -0,0.145c-0,0.036 -0.109,-0 -0.146,-0c-0.036,-0 -0.072,-0 -0.072,0.036c-0.037,0 -0.109,0.037 -0.109,0.109c-0,0 0.036,-0.036 0.072,-0.036l0,0.036c0,0.073 0.073,0.073 0.109,0.037c0,-0 0.037,-0 0,-0c-0.036,0.036 -0.109,0.072 -0.036,0.109c0,-0 0.036,-0 0.036,0.036c0,0.036 0.037,0.073 0.073,0.073l0,-0.073l0.036,-0c0.037,-0 0.037,-0.073 0.073,-0.109c0,0.036 -0.036,0.109 0,0.109l0.036,-0c0,0.036 0.073,0.073 0.109,0.036l-0.036,-0.036l0.036,-0.036c0.037,-0.109 -0.072,-0.109 -0.072,-0.146c-0,-0.036 0.109,0 0.109,-0.109c-0,-0.036 -0,-0.036 -0.037,-0.072c0.037,-0 0.073,-0 0.073,-0.037c-0.073,0 -0.036,-0.072 -0.073,-0.109c0.037,0 0.037,-0.036 0.037,-0.109c-0.037,0.037 -0.109,0.073 -0.109,0c-0,0 -0,-0.036 -0.073,-0.036c-0.109,-0 -0.218,-0 -0.436,-0.036c0.545,0.036 0.945,-0.037 0.945,-0.182" style="fill:#231815;fill-rule:nonzero;"/><path d="M23.669,27.746c-0,-0.037 0.036,-0.037 0.036,-0.037c0.036,0 0.036,0 0.036,-0.036c0,-0.036 0,-0.036 -0.036,-0.073c0.036,0 0.036,-0.036 0.036,-0.036l-0.036,-0c-0,-0 -0,-0.036 0.036,-0.036l0.037,-0l0.109,0.072c-0,0 0.036,0 0.036,0.037l-0,0.036c-0,-0 -0,-0.036 -0.036,-0.036l-0,0.036c-0.037,-0 -0.073,-0.036 -0.073,-0l-0,0.145c-0,0.037 -0.036,0.073 -0.073,0.037c-0.072,-0.037 -0.072,-0.073 -0.072,-0.109m0.145,-0.291c-0.036,0.036 -0.073,0.073 -0.109,0.036c-0.036,-0.036 -0,-0.036 -0.036,-0.109c0.072,0.037 0.145,0.073 0.145,0.073m0.109,0.036c-0,0 0.109,0.037 0.145,0.073c-0.072,-0 -0.036,0.036 -0.109,0.036c-0.036,0 -0.036,-0.072 -0.036,-0.109m2.834,0.327c0,-0.109 -0.145,-0.181 -0.509,-0.181c-0.399,-0 -1.562,0.145 -1.562,-0.073c0,-0.145 0.4,-0.073 0.69,-0.073c0,0.037 0.037,0.037 0.073,0.073c0.509,0.145 1.017,-0.182 1.381,-0.073c-0.291,-0.254 -0.654,0.037 -1.018,-0.036c0.218,-0 0.436,-0.036 0.473,-0.109c-0.182,0.109 -0.654,-0.073 -0.872,0.036c-0,0 -0.037,0 -0.037,0.037c-0.363,-0 -0.799,-0.037 -0.799,0.181c-0,0.4 1.344,0.146 1.671,0.146c0.327,-0 0.4,0.036 0.4,0.109c0,0.109 -0.327,0.109 -0.509,0.109c-0.29,-0 -1.562,-0.146 -2.071,-0c0.037,-0.073 0.146,-0.218 0.109,-0.291c0.037,-0.036 0.073,-0.073 0.073,-0.109c-0.036,-0.036 -0.073,-0.036 -0.109,-0.036c-0,-0.037 -0,-0.037 -0.036,-0.073c-0,-0 -0,-0.073 -0.037,-0.073c-0.036,0 -0.072,-0.036 -0.109,-0.072c-0.072,-0.037 -0.109,-0.037 -0.109,-0.037l-0.072,0c-0.037,0 -0.073,0 -0.073,0.037c-0.036,-0.037 -0.036,-0.037 -0.073,-0.037c-0.036,0.037 -0.036,0.073 0,0.146c-0.036,-0 -0.109,0.109 -0.145,0.109c-0,0.036 0.036,0.036 0.036,0.036c-0.036,0.073 -0.036,0.145 -0.109,0.145c0,0.037 0.037,0.037 0.037,0.037l-0,0.109l-0.182,-0c-0.073,-0 -0.109,-0.109 -0.218,-0.146c-0.073,-0.036 -0.073,-0.072 -0.073,-0.145c0,-0.073 0.037,-0.145 0.037,-0.182c-0,0 -0,-0.036 -0.037,-0.072c0,-0.037 -0.072,-0.073 -0.109,-0.073c0,-0 0.037,0.036 0.037,0.073l-0.037,0.036c0,-0 -0.036,0.036 0,0.073l0,0.036c0,-0.036 -0.036,-0.109 -0.072,-0.109l-0.037,-0c0,-0.036 -0.072,-0.073 -0.109,-0.036c0,-0 0.037,-0 0.037,0.036l-0,0.036c-0,0.037 0.036,0.073 0.072,0.073l0,0.036c-0.072,-0.036 -0.109,0 -0.109,0.037l0,0.036c-0.036,0.036 -0.036,0.073 0,0.109c0,-0 0,-0.036 0.037,-0.036l0.036,0.036l0.109,-0c-0.073,0.073 -0.036,0.109 0.036,0.109c0,0.109 -0.145,0.073 -0.145,-0.036c-0.073,0.109 0.073,0.218 0.182,0.145c-0,0.036 -0,0.036 0.036,0.036c-0,0 -0,-0.036 0.036,-0.036c0,0.036 0,0.073 0.037,0.073l-0,-0.037c0.036,0 0.109,0.146 0.254,0.218c0.036,0 0.073,0 0.073,-0.036c-0,0 -0,0.036 0.036,0.036c-0,0.073 0.036,0.146 0.036,0.146l-0.327,-0c-0.072,0.036 -0.254,0.109 -0.29,0.036c-0,-0.036 -0,-0.036 -0.037,-0.073c0,-0.036 -0.036,-0.036 -0.072,-0.036l-0.037,0c-0.036,-0.036 -0.109,-0.036 -0.109,0c0.037,0 0.037,0 0.073,0.036c-0,0 -0,0.037 -0.036,0.037c-0,0.036 -0,0.072 0.109,0.109l-0.073,-0c-0.036,-0.037 -0.036,-0.073 -0.109,-0.037l-0.036,0c-0.037,0 -0.109,0.073 -0.109,0.109c-0,0 0.036,-0.036 0.072,-0.036l0,0.036c0,0.073 0.037,0.109 0.146,0.037c-0.037,0.036 -0.109,0.109 -0.037,0.145l0.037,0.036c-0,0.073 0.072,0.109 0.109,0.109c-0,0 -0.037,-0.036 -0.037,-0.109l0.037,0c0.072,-0.036 0.036,-0.072 0.072,-0.109c0,0.037 0,0.109 0.073,0.073c0.073,0 0.109,-0.073 0.073,-0.109c0.036,0 0.036,0.036 0.036,0.073l0.036,-0.037c0,0.037 0,0.073 -0.036,0.109c0.036,0 0.109,-0.036 0.109,-0.109l0.036,0.037l0.146,-0l-0,0.072c-0,0 -0,-0.036 0.036,-0.036c-0,0 -0,0.073 0.036,0.109c0,-0.182 0.218,-0.073 0.327,-0.145c0,0.036 -0.036,0.036 -0.036,0.072c0.036,0 0.109,-0.036 0.145,-0.072l0.182,-0.073l-0,-0.036l0.073,-0c0.109,-0 0.109,-0.073 0.145,-0.073c0.618,0.073 0.254,-0.254 1.017,-0.182c0.037,0 0.037,0 0.073,-0.036c-0.036,0.073 -0.036,0.182 0.036,0.218c0.037,0 0.109,0.036 0.146,0.073c-0.037,-0 -0.109,-0 -0.109,0.036c-0.109,0.073 -0.109,-0.182 -0.255,-0.109c0,0 -0.036,0 -0.036,0.036c-0.036,0 -0.109,0.073 -0.109,0.109c0,0 0.036,-0.036 0.073,-0.036l-0,0.036c-0,0.037 -0,0.037 0.036,0.037l0.036,-0c0,0.036 -0.145,-0.037 -0.109,0.109c0,-0 0,0.036 0.037,0.036c-0,0.036 0.036,0.073 0.109,0.073l-0.037,-0.037l0.037,0l-0,0.073c-0,0.036 0.072,0.109 0.145,0.036c0,0 -0.073,0 -0.073,-0.036l0.037,0l-0,-0.036l0.072,-0c0,0.036 0.037,0.072 0.109,0.036c0.073,-0.036 0,-0.109 0.073,-0.109l0.218,0c0,-0.036 0,-0.145 -0.073,-0.182c-0.036,-0.036 0,-0.072 -0.036,-0.145c0.073,0.036 0.145,0.073 0.254,0.073c0.182,-0 0.218,-0.037 0.291,-0.073c0.073,-0.036 0.182,-0.036 0.218,-0.036c0.036,-0 0.036,-0 0.036,0.036c-0.036,0.109 0,0.109 0,0.145c0,0.037 -0.109,0 -0.145,0c-0.036,0 -0.073,0.037 -0.073,0.037c-0.036,-0 -0.109,0.036 -0.109,0.109c0,-0 0.037,-0.037 0.073,-0.037c0,0.073 0.073,0.073 0.109,0.037c0,-0 0.036,-0 0,-0c-0.036,0.036 -0.109,0.072 -0.036,0.109l0.036,-0c0,0.036 0.036,0.072 0.073,0.072l-0,-0.072l0.036,-0c0.036,-0 0.036,-0.073 0.073,-0.109c-0,0.036 -0.037,0.109 -0,0.109l0.036,-0c0,0.036 0.073,0.072 0.109,0.036c0,0 -0.036,0 -0.036,-0.036l0.036,-0.037c0.036,-0.109 -0.036,-0.109 -0.036,-0.145c-0,-0.036 0.109,0 0.109,-0.109c-0,0 -0,-0.036 -0.037,-0.073c0.037,0 0.037,0 0.073,-0.036c-0.073,0 -0.036,-0.036 -0.073,-0.109c0.037,0 0.037,-0.036 0.037,-0.109c-0.037,0.036 -0.109,0.073 -0.109,0c-0,0 -0,-0.036 -0.073,-0.036c-0.109,-0 -0.182,-0 -0.436,-0.037c0.363,-0.145 0.763,-0.181 0.763,-0.327" style="fill:#231815;fill-rule:nonzero;"/><path d="M29.737,30.907m-0.582,-0.872m0.073,0.29c-0,-0.036 0.036,-0.036 0.036,-0.036c0.037,0 0.037,0 0.037,-0.036c-0,-0.037 -0,-0.037 -0.037,-0.073c0.037,0 0.037,-0.036 0.037,-0.036l-0.037,-0c0,-0 0,-0.037 0.037,-0.037l0.036,0l0.109,0.073c-0,0 0.036,0 0.036,0.036l0,0.037c0,-0 0,-0.037 -0.036,-0.037c-0.036,0 -0.036,0 -0,0.037c-0.036,-0 -0.073,-0.037 -0.073,-0l0,0.145c0,0.036 -0.036,0.073 -0.072,0.036c-0.109,-0.036 -0.109,-0.072 -0.073,-0.109m0.145,-0.29c-0.036,0.036 -0.072,0.072 -0.109,0.036c-0.036,-0.036 0,-0.036 -0.036,-0.109c0.036,0 0.109,0.073 0.145,0.073m0.073,0.036c-0,0 0.109,0.036 0.145,0.073c-0.072,-0 -0.036,0.036 -0.109,0.036c-0.036,0 -0.036,-0.073 -0.036,-0.109m2.798,0.727c-0,-0 -0,-0.037 -0,-0c0.036,-0.037 0.036,-0.073 0.036,-0.109c-0.036,0.036 -0.109,0.072 -0.109,-0c0,-0 0,-0.037 -0.073,-0.037c-0.109,0 -0.218,0 -0.436,-0.036c0,0 -0.036,0 0,0c0.218,0 0.618,-0.036 0.618,-0.182c0,-0.109 -0.145,-0.181 -0.509,-0.181c-0.399,-0 -1.562,0.145 -1.562,-0.073c-0,-0.145 0.4,-0.073 0.69,-0.073c0,0.037 0.037,0.037 0.073,0.037c0.509,0.145 1.054,-0.218 1.381,-0.146c-0.4,-0.145 -0.618,0.109 -1.018,0.037c0.218,-0 0.436,-0.037 0.473,-0.109c-0.182,0.109 -0.654,-0.073 -0.872,0.036c-0,0 -0.037,0 -0.037,0.036c-0.363,0 -0.799,-0.036 -0.799,0.182c-0,0.4 1.344,0.145 1.671,0.145c0.327,0 0.4,0.037 0.4,0.109c0,0.109 -0.327,0.109 -0.509,0.109c-0.29,0 -1.562,-0.181 -2.071,0c0.037,-0.072 0.146,-0.218 0.109,-0.29c0.037,-0.037 0.073,-0.073 0.073,-0.109c-0.036,-0.037 -0.073,-0.037 -0.109,-0.037c-0,-0.036 -0,-0.036 -0.036,-0.072c-0,-0 -0,-0.073 -0.037,-0.073c0,0 -0.072,-0.036 -0.109,-0.073c-0.036,-0.036 -0.109,-0.036 -0.109,-0.036l-0.072,0c-0.037,0 -0.073,0 -0.073,0.036c-0.036,-0.036 -0.073,-0.036 -0.109,-0.036c-0.036,0.036 -0.036,0.073 -0,0.145c-0.036,0 -0.109,0.109 -0.145,0.109c-0,0.037 0.036,0.037 0.036,0.037c-0.036,0.072 -0.036,0.145 -0.109,0.145c0.036,0.036 0.036,0.073 0.073,0.073l-0,0.109l-0.073,-0.037l-0.145,0c-0.073,0 -0.109,-0.109 -0.218,-0.181c-0.073,-0.037 -0.073,-0.073 -0.073,-0.146c-0,-0.072 0.036,-0.109 0.036,-0.181c0,-0 0,-0.037 -0.036,-0.073c-0,-0.036 -0.073,-0.073 -0.109,-0.073c-0,0 0.036,0.037 0.036,0.073l-0.036,0.036l-0,0.109c-0,-0.036 -0.036,-0.109 -0.073,-0.109l-0.036,0c-0,-0.036 -0.036,-0.072 -0.109,-0.036c-0,0 0.036,0 0.036,0.036l0,0.037c0,0.036 0.037,0.072 0.073,0.072l-0,0.037c-0.073,-0.037 -0.109,-0 -0.145,0.036l-0,0.036c-0.037,0.037 -0.037,0.073 0.036,0.109c-0,0 -0,-0.036 0.036,-0.072l0.146,-0c-0.073,0.072 -0.037,0.109 0.036,0.145c-0,0.109 -0.145,0.073 -0.145,-0.036c-0.073,0.109 0.072,0.218 0.181,0.145c0,0.036 0,0.036 0.037,0.036c-0,0 -0,-0.036 0.036,-0.036c-0,0.036 -0,0.073 0.036,0.073l0,-0.037c0.037,0 0.109,0.146 0.255,0.255c-0,-0 0.072,-0.037 0.109,-0.073c-0,0.036 0.036,0.073 0.036,0.073l0.036,-0c0,0.072 0.073,0.145 0.073,0.145c-0.036,0 -0.182,-0.036 -0.218,0c-0.073,0.036 -0.254,0.109 -0.291,0.036c0,-0.036 0,-0.036 -0.036,-0.072c-0,-0.037 -0.036,-0.037 -0.073,-0.037l-0.036,0c-0.036,-0.036 -0.109,-0.036 -0.109,0c0.036,0 0.036,0 0.073,0.037l-0,0.036c-0,0.036 -0,0.073 0.109,0.109l-0.073,0c-0.036,-0.036 -0.036,-0.073 -0.109,-0.036l-0.036,-0c-0.037,-0 -0.109,0.072 -0.109,0.109c-0,-0 0.036,-0.037 0.072,-0.037l0,0.037c0,0.072 0.037,0.109 0.146,0.036c-0.037,0.036 -0.109,0.109 -0.037,0.145l0.037,0.037c-0,0.072 0.072,0.109 0.109,0.109c-0,-0 -0.037,-0.037 -0.037,-0.109l0.037,-0c0.072,-0.037 0.036,-0.109 0.072,-0.109c0,0.036 0,0.109 0.073,0.072c0.073,0 0.109,-0.072 0.073,-0.109c0.036,0 0.036,0.037 0.036,0.073l0.036,-0.036c0,0.036 0,0.072 -0.036,0.109c0.036,-0 0.109,-0.037 0.109,-0.109l0.036,0.036l0.146,0l-0,0.073c-0,-0 -0,-0.037 0.036,-0.037c0.036,0 -0,0.073 0.036,0.109c0,-0.181 0.109,-0.109 0.218,-0.181c0,0.036 -0.036,0.036 -0.036,0.072c0.036,0.037 0.182,-0.072 0.182,-0.145c-0,0 0.072,-0.036 0.109,-0.036c0.109,-0 0.109,-0.073 0.145,-0.073c0.618,0.073 0.254,-0.254 1.017,-0.182c0.037,0 0.037,-0.036 0.073,-0.072c-0.036,0.072 -0.036,0.218 0.036,0.218c0.037,-0 0.109,0.036 0.146,0.036c-0.037,0 -0.073,0 -0.109,0.036c-0.109,0.073 -0.109,-0.181 -0.255,-0.145l-0.036,0.036c-0.036,0 -0.109,0.073 -0.109,0.109c-0,0 0.036,-0.036 0.073,-0.036l-0,0.036c-0,0.037 -0,0.037 0.036,0.037l0.036,-0c0,0.036 -0.145,-0.037 -0.109,0.109c0,-0 0,0.036 0.037,0.036c-0,0.036 0.036,0.073 0.109,0.036l-0.037,-0.036l0.037,0l-0,-0.036l-0,0.072c-0,0.037 0.072,0.109 0.145,0.037c-0.036,-0 -0.073,-0 -0.073,-0.037l0.037,0l-0,-0.036l0.072,0c0,0.036 0.037,0.036 0.109,0.036c0.073,-0.036 0,-0.109 0.073,-0.109l0.218,0c-0,-0.036 -0,-0.145 -0.073,-0.181c-0.036,-0.037 0,-0.073 -0.036,-0.146c0.073,0.037 0.145,0.073 0.254,0.073c0.182,0 0.218,-0.036 0.327,-0.073c0.109,-0.072 0.182,-0.036 0.218,-0.036c0.037,0 0.037,0 0.037,0.036c-0.037,0.109 -0,0.109 -0.037,0.146c0,0.036 -0.109,-0 -0.145,-0c-0.036,-0 -0.036,0.036 -0.036,0.036c-0.037,0 -0.109,0.036 -0.109,0.109c-0,0 0.036,-0.036 0.072,-0.036l0,0.036c0,0.073 0.073,0.073 0.109,0.036c0,0 0.037,0 0,0c-0.036,0.037 -0.109,0.073 -0.036,0.109l0.036,0c0,0.037 0,0.073 0.037,0.073l-0,-0.073l0.036,0c0.036,0 0.036,-0.072 0.073,-0.109c-0,0.037 -0.037,0.109 -0,0.109l0.036,0c0,0.037 0.036,0.073 0.109,0.037c0,-0 -0.036,-0 -0.036,-0.037l0.036,-0.036c0.036,-0.109 -0.036,-0.109 -0.036,-0.145c-0,-0.037 0.109,-0 0.109,-0.109c-0,-0 -0,-0.037 -0.037,-0.073c0.037,0 0.037,0 0.073,-0.036c0.036,0.072 0.073,0.036 0.073,-0" style="fill:#231815;fill-rule:nonzero;"/><path d="M29.446,31.888c-0.036,-0 -0.073,-0.073 -0.036,-0.109c-0,-0 0.109,0.036 0.145,0.073c-0.073,-0 -0.073,0.036 -0.109,0.036m-0.073,0.073c0,-0 0,-0.037 -0.036,-0.037c-0.036,0 -0,0 -0,0.037c-0.036,-0 -0.036,-0.037 -0.073,-0l0,0.145c0,0.036 -0.036,0.073 -0.072,0.036c-0.037,-0.036 -0.037,-0.072 -0.037,-0.072c0,-0.037 0.037,-0.037 0.037,-0.037c0.036,0 0.036,0 0.036,-0.036c-0,-0.036 -0,-0.036 -0.036,-0.073c0.036,0 0.036,-0.036 0.036,-0.036l-0.036,-0c-0,-0 -0,-0.036 0.036,-0.036l0.036,-0l0.109,0.036c0,-0 0.037,-0 0.037,0.036c-0.037,0 -0,0.037 -0.037,0.037m-0.072,-0.218c-0.037,0.036 -0.073,0.072 -0.109,0.036c-0.037,-0.036 -0,-0.036 -0.037,-0.109c0.073,0.036 0.146,0.073 0.146,0.073m1.199,0.036c-0,0.036 0.036,0.036 0.072,0.073c0.473,0.145 1.018,-0.218 1.308,-0.146c-0.363,-0.145 -0.617,0.109 -0.981,0.037c0.218,-0 0.436,-0.037 0.436,-0.109c-0.145,0.109 -0.617,-0.073 -0.799,0.036c-0,-0 -0.036,-0 -0.036,0.036c-0.255,0 -0.473,0 -0.473,0.182c0,0.363 0.981,0.145 1.308,0.145c0.291,0 0.255,0.037 0.255,0.109c-0,0.073 -0.364,0.109 -0.509,0.109c-0.254,0 -1.054,-0.145 -1.562,-0.036c0.036,-0.073 0.145,-0.182 0.072,-0.254c0.037,-0 0.073,-0.037 0.073,-0.109c-0.036,-0.037 -0.073,-0.037 -0.073,-0.037c0,-0.036 0,-0.036 -0.036,-0.072c-0,-0 -0,-0.037 -0.036,-0.073c-0,-0 -0.073,-0.036 -0.109,-0.073c-0.073,-0.036 -0.073,-0.036 -0.109,-0.036l-0.073,-0c-0.036,-0 -0.073,-0 -0.073,0.036c-0.036,-0.036 -0.036,-0.036 -0.072,-0.036c-0.037,0.036 -0.037,0.073 -0,0.145c-0.037,0 -0.073,0.109 -0.146,0.109c0,0.037 0.037,0.037 0.037,0.037c-0.037,0.072 -0.037,0.145 -0.109,0.145c-0,0.036 0.036,0.036 0.036,0.036c-0,0.037 -0.036,0.109 -0.036,0.146l-0.073,-0c-0.073,-0 -0.109,-0 -0.182,-0.073c-0.072,-0.036 -0.072,-0.073 -0.072,-0.145c-0,-0.073 0.036,-0.109 0.036,-0.182l-0,-0.073c-0,-0.036 -0.073,-0.072 -0.109,-0.072c-0,-0 0.036,0.036 0.036,0.072l-0.036,0.037c-0,0.036 -0.036,0.036 -0,0.072l-0,0.037c-0,-0.037 -0.036,-0.109 -0.073,-0.109l-0.036,-0c-0,-0.037 -0.036,-0.073 -0.109,-0.037c-0,0 0.036,0 0.036,0.037l0,0.036c0,0.036 0.037,0.073 0.073,0.073l-0,0.036c-0.073,-0.036 -0.109,-0 -0.109,0.036l-0,0.037c-0.036,0.036 -0.036,0.072 -0,0.109l-0,-0.037l0.036,0.037l0.073,-0l0.036,0.036c-0.072,0.036 -0.036,0.109 0.037,0.109l-0,0.036c-0,0.109 -0.146,0.073 -0.146,-0.036c-0.072,0.109 0.073,0.218 0.146,0.145c-0,0.037 -0,0.037 0.036,0.037c-0,-0 -0,-0.037 0.036,-0.037c0,0.037 0,0.073 0.037,0.073l-0,-0.036c0.036,-0 -0,-0.037 0.145,0.036c-0,0.036 0.036,0.036 0.036,0.036l0.109,0l0,0.182l-0.218,-0c-0.072,0.036 -0.254,0.109 -0.29,0.036c-0,-0.036 -0,-0.036 -0.037,-0.072c0,-0.037 -0.036,-0.037 -0.072,-0.037l0.109,0c-0.037,-0.036 -0.073,-0.036 -0.109,0c0.036,0 0.036,0 0.072,0.037l0,0.036c0,0.036 0,0.073 0.109,0.109l-0.072,-0c-0.037,-0.036 -0.037,-0.073 -0.109,-0.036l-0.037,-0c-0.036,-0 -0.109,0.072 -0.072,0.109c-0,-0 0.036,-0.037 0.072,-0.037l0,0.037c0,0.072 0.037,0.109 0.146,0.036c-0.037,0.036 -0.109,0.109 -0.037,0.145l0.037,0c-0,0.073 0.072,0.109 0.109,0.109c-0,0 -0.037,-0.036 -0.037,-0.109l0.037,0c0.036,-0.036 0.036,-0.072 0.072,-0.109c0,0.037 0,0.073 0.073,0.073c0.073,-0 0.073,-0.073 0.073,-0.073c0.036,0 0.036,0.037 0.036,0.073l0.036,-0.036c0,0.036 0,0.072 -0.036,0.109c0.036,-0 0.073,-0.037 0.109,-0.109l0.036,0.036l0.109,-0l0,0.073c0,-0 0,-0.037 0.037,-0.037c-0,0 -0,0.073 0.036,0.109c-0,-0.145 0.145,-0.109 0.254,-0.181c0,0.036 -0.036,0.036 -0.036,0.036c0.109,0.073 0.218,-0.073 0.254,-0.145l0.037,-0.037c-0,0 -0,0.037 -0.037,0.037c0.109,-0 0.109,-0.073 0.146,-0.073c0.327,0.036 0.072,-0.254 0.581,-0.182c0.036,0 0.109,-0.036 0.145,-0.072c-0.036,0.072 -0.036,0.218 0.037,0.218c0.036,-0 0.109,0.036 0.109,0.036c-0.037,-0 -0.073,-0 -0.109,0.036c-0.109,0.073 -0.109,-0.181 -0.218,-0.109c-0,0 -0.037,0 -0.037,0.037c-0.036,-0 -0.109,0.072 -0.109,0.109c0,-0 0.037,-0.037 0.073,-0.037l-0,0.037c-0,-0 -0,0.036 0.036,0.036l0.037,-0c-0,0.036 -0.146,-0.036 -0.109,0.109c-0,-0 -0,0.036 0.036,0.036c-0,0.037 0.036,0.073 0.073,0.037l-0.037,-0.037l0.037,0l-0,0.073c-0,0.036 0.072,0.073 0.109,0.036c-0.037,0 -0.073,0 -0.073,-0.036l0.036,-0l0,-0.036l0.073,-0c-0,0.036 0.036,0.036 0.073,0.036c0.072,-0.036 -0,-0.109 0.072,-0.109l0.218,-0c0,-0.036 0,-0.145 -0.072,-0.182c-0.037,0 -0,-0.072 -0.037,-0.109c0.073,0.037 0.146,0.073 0.218,0.073c0.182,-0 0.255,-0.036 0.327,-0.073c0.109,-0.036 0.182,-0.036 0.218,-0.036c0.037,-0 0.037,-0 0.037,0.036c-0.037,0.073 -0,0.109 -0.037,0.146c-0.036,0.036 -0.072,-0 -0.145,-0c-0.036,-0 -0.073,0.036 -0.073,0.036c-0.036,-0 -0.109,0.036 -0.109,0.109c0,-0 0.037,-0.036 0.073,-0.036l-0,0.036c-0,0.073 0.036,0.073 0.109,0.036c-0,0 0.036,0 -0,0c-0.036,0.037 -0.109,0.073 -0.073,0.109l0.037,0c-0,0.037 -0,0.073 0.036,0.073c-0,-0.036 -0,-0.036 0.036,-0.073l0.037,0c0.036,0 0.036,-0.072 0.072,-0.109c-0.036,0.037 -0.036,0.109 0,0.109l0.037,0c-0,0.037 0.036,0.073 0.109,0.037l-0.037,-0.037l0.037,-0.036c0.036,-0.109 -0.037,-0.109 -0.037,-0.145c0,-0.037 0.109,-0 0.109,-0.109c0,-0 0,-0.037 -0.036,-0.073c0.036,-0 0.036,-0 0.073,-0.036c-0.073,-0 -0.037,-0.037 -0.037,-0.073c0.037,-0 0.037,-0.036 0.037,-0.109c-0.037,0.036 -0.109,0.073 -0.109,-0c-0,-0 -0,-0.036 -0.073,-0.036c-0.109,-0 -0.291,-0 -0.472,-0.037c-0,0 -0.037,0 -0,0c0.218,0 0.654,-0.036 0.654,-0.181c-0,-0.109 -0.037,-0.182 -0.4,-0.182c-0.363,-0 -1.199,0.145 -1.199,-0.073c0.145,-0.29 0.327,-0.29 0.509,-0.254" style="fill:#231815;fill-rule:nonzero;"/><path d="M29.01,33.741c-0,-0.036 0.036,-0.036 0.036,-0.036c0.037,-0 0.037,-0 0.037,-0.037c-0,-0.036 -0,-0.036 -0.037,-0.036c0.037,-0 0.037,-0.036 0.037,-0.036l-0.037,-0c0,-0 0,-0.037 0.037,-0.037l0.036,0l0.109,0.037c-0,-0 0.036,-0 0.036,0.036l0,0.036c0,0 0,-0.036 -0.036,-0.036l-0,0.036c-0.036,0 -0.036,-0.036 -0.073,0l0,0.146c0,0.036 -0.036,0.072 -0.072,0.036c-0.073,-0.036 -0.073,-0.073 -0.073,-0.109m0.145,-0.291c-0.036,0.037 -0.072,0.073 -0.072,0.037c-0.037,-0.037 -0,-0.037 -0.037,-0.109c0,0.036 0.073,0.072 0.109,0.072m0.073,0.073c-0,-0 0.109,0.036 0.145,0.036c-0.072,0 -0.036,0.037 -0.072,0.037c-0.073,-0 -0.073,-0.037 -0.073,-0.073m0.872,-0.073c-0,0.037 0.036,0.037 0.073,0.073c0.472,0.145 1.017,-0.218 1.308,-0.145c-0.364,-0.146 -0.618,0.109 -0.981,0.036c0.218,-0 0.436,-0.036 0.436,-0.109c-0.146,0.109 -0.618,-0.073 -0.8,0.036l-0.036,0.037c-0.145,0.036 -0.254,0.109 -0.254,0.218c-0,0.327 1.199,0.072 1.199,0.181c-0,0.073 -0.255,0.146 -0.545,0.146c-0.255,-0 -0.654,-0.146 -1.199,-0.037c0.036,-0.072 0.145,-0.218 0.109,-0.29c0.036,-0 0.072,-0.037 0.072,-0.073c-0.036,-0.036 -0.072,-0.036 -0.072,-0.036c-0,-0.037 -0,-0.037 -0.037,-0.073c0,-0 0,-0.036 -0.036,-0.073c-0,0 -0.036,-0.036 -0.109,-0.072c-0.036,-0.037 -0.073,-0.037 -0.109,-0.037l-0.073,0c-0.036,0 -0.072,0 -0.072,0.037c-0.037,-0.037 -0.037,-0.037 -0.073,-0.037c-0.036,0.037 -0.036,0.073 -0,0.109c-0.036,0 -0.073,0.109 -0.109,0.109c-0,0.037 0.036,0.037 0.036,0.037c-0.036,0.072 -0.036,0.145 -0.072,0.145c-0,0.036 0.036,0.036 0.036,0.036c-0.036,0.109 -0.036,0.218 -0.036,0.291c-0.073,-0.073 -0.182,-0.254 -0.255,-0.291c-0.072,-0.036 -0.072,-0.072 -0.072,-0.145c-0,-0.073 0.036,-0.109 0.036,-0.182l-0,-0.072c-0,-0.037 -0.073,-0.073 -0.109,-0.073c-0,-0 0.036,0.036 0.036,0.073l-0.036,0.036c-0,-0 -0.036,0.036 -0,0.073l-0,0.036c-0,-0.036 -0.036,-0.109 -0.073,-0.109l-0.036,-0c-0,-0.036 -0.036,-0.073 -0.109,-0.036c-0,-0 0.036,-0 0.036,0.036l0,0.036c0,0.037 0.037,0.073 0.073,0.073l-0,0.036c-0.073,-0.036 -0.109,0 -0.109,0.037l-0,0.036c-0.036,0.036 -0.036,0.073 -0,0.109l-0,-0.036l0.036,0.036l0.073,-0c-0.036,0.036 -0.036,0.109 0.036,0.109c0,0.109 -0.145,0.073 -0.145,-0.036c-0.073,0.109 0.073,0.218 0.145,0.145c0,-0 0,0.036 0.037,0.036c-0,0 -0,-0.036 0.036,-0.036c-0,0.036 -0,0.073 0.036,0.073l0,-0.037c0,0 0,0.146 0.146,0.218c0.036,0.073 0.109,0.146 0.181,0.109c0.037,0.073 0.073,0.109 0.037,0.109l-0.218,0c-0.037,0.037 -0.109,0.037 -0.146,0.037c-0.036,-0 -0.109,-0 -0.109,-0.037c0,-0.036 0,-0.036 -0.036,-0.072c-0,-0.037 -0.036,-0.037 -0.036,-0.037l-0.037,0c-0.036,-0.036 -0.072,-0.036 -0.109,0c0.037,0 0.037,0 0.073,0.037l-0,0.036c-0,0.036 -0,0.073 0.109,0.073l-0.073,-0c-0.036,-0.037 -0.036,-0.073 -0.109,-0.037l-0.036,0c-0.037,0 -0.109,0.037 -0.073,0.109l0.036,-0.036l0,0.036c0,0.037 0.037,0.109 0.146,0.037c-0.036,0.036 -0.109,0.072 -0.036,0.109l0.036,-0c-0,0.072 0.073,0.109 0.073,0.109c-0,-0 -0.037,-0.037 -0.037,-0.073l0.037,-0c0.036,-0.036 0.036,-0.073 0.036,-0.109c-0,0.036 -0,0.073 0.073,0.073c0.072,-0 0.072,-0.073 0.072,-0.073c0.037,-0 0.037,0.036 0.037,0.073l0.036,-0.037c-0,0.037 -0,0.073 -0.036,0.109c0.036,0 0.072,-0.036 0.109,-0.109l0.036,0.037l0.109,-0l-0,0.072c-0,0 -0,-0.036 0.036,-0.036c0,-0 0,0.073 0.037,0.109c-0,-0.145 0.109,-0.109 0.181,-0.145l-0.036,0.036c0.036,-0 0.145,-0.036 0.145,-0.109c0,-0.036 0.073,-0.073 0.073,-0.254l0.036,-0c0.146,-0 0.182,-0.109 0.327,-0.109c-0.036,0.036 -0.036,0.109 -0.036,0.181c-0,0.073 0.109,0.146 0.109,0.182c-0.036,-0 -0.073,-0 -0.109,0.036c-0.109,0.073 -0.109,-0.145 -0.218,-0.109c-0,0 -0.036,0 -0.036,0.037c-0.037,-0 -0.109,0.036 -0.109,0.109c-0,-0 0.036,-0.037 0.072,-0.037l0,0.037c0,0.036 0,0.036 0.037,0.036l0.036,-0c-0,0.036 -0.145,-0.036 -0.109,0.109l-0,0.036c-0,0.037 0.036,0.073 0.073,0.037l-0.037,-0.037l0.037,0l-0,-0.036l-0,0.073c-0,0.036 0.036,0.072 0.109,0.036c-0,-0 -0.073,-0 -0.073,-0.036l0.036,-0l0,-0.037l0.073,0c-0,0.037 0.036,0.037 0.073,0.037c0.072,-0.037 -0,-0.073 0.072,-0.109l0.037,-0c0.072,-0 0.109,0.036 0.109,-0c-0,-0.037 -0,-0.146 -0.073,-0.182c-0.036,-0.036 0.036,-0.254 -0.109,-0.363c0.073,0.036 0.363,0.072 0.4,-0c0.072,0.036 0.181,0.072 0.181,0.072l0,0.037c-0.072,0.036 -0.072,0.072 -0.109,0.072c-0.036,-0.036 -0.036,-0.072 -0.072,-0.072l-0.073,-0c-0.036,-0 -0.109,-0 -0.109,0.036l0.073,-0l-0,0.036c-0.037,0 -0.109,0 -0.109,0.037l-0,0.036c-0.037,0.036 -0.037,0.073 -0,0.073c-0,-0.037 -0,-0.037 0.036,-0.037l-0,0.037c0.036,0.036 0.073,-0.037 0.109,-0.037c-0.036,0 -0.073,0.037 -0.073,0.073l0,0.036c0,0.037 0,0.073 0.037,0.109l-0,-0.072l0.036,-0c0.073,-0.037 0.036,-0.109 0.073,-0.109c0.036,-0.037 0.072,0.036 0.145,-0c-0,-0 0.036,-0.037 -0,-0.073c-0,-0 0.036,0.036 0.073,0.036c-0.037,-0.036 -0,-0.072 0.036,-0.109c0.036,0 0.036,0 0.073,-0.036c-0.037,-0 -0.146,-0.036 -0.073,-0.073c0.073,-0.036 0.109,-0.072 0.073,-0.109c-0.073,-0.072 -0.182,-0.109 -0.182,-0.181l0.109,-0c0.4,-0 0.654,-0.109 0.654,-0.255c-0,-0.29 -1.235,0.037 -1.235,-0.181c0.436,0.072 0.508,-0 0.581,-0.037" style="fill:#231815;fill-rule:nonzero;"/><path d="M10.297,12.158c0,-0.145 -0.145,-0.291 -0.29,-0.291c-0.146,0 -0.291,0.146 -0.291,0.291c-0,0.145 0.145,0.291 0.291,0.291c0.181,-0 0.29,-0.146 0.29,-0.291" style="fill:#231815;fill-rule:nonzero;"/><path d="M10.188,11.359c0,-0.146 -0.145,-0.291 -0.29,-0.291c-0.146,-0 -0.291,0.145 -0.291,0.291c-0,0.145 0.145,0.29 0.291,0.29c0.181,0 0.29,-0.109 0.29,-0.29" style="fill:#231815;fill-rule:nonzero;"/><path d="M10.37,10.995c0.182,0 0.291,-0.145 0.291,-0.29c-0,-0.146 -0.146,-0.291 -0.291,-0.291c-0.145,-0 -0.291,0.145 -0.291,0.291c0,0.181 0.146,0.29 0.291,0.29" style="fill:#231815;fill-rule:nonzero;"/><path d="M11.169,10.959c0.182,-0 0.291,-0.145 0.291,-0.291c0,-0.145 -0.145,-0.291 -0.291,-0.291c-0.145,0 -0.29,0.146 -0.29,0.291c-0,0.146 0.109,0.291 0.29,0.291" style="fill:#231815;fill-rule:nonzero;"/><path d="M14.512,10.414c0.109,0.109 0.291,0.109 0.436,-0c0.109,-0.109 0.109,-0.291 0,-0.4c-0.109,-0.109 -0.29,-0.109 -0.436,0c-0.109,0.073 -0.109,0.291 0,0.4" style="fill:#231815;fill-rule:nonzero;"/><path d="M14.476,9.76c0.109,-0.109 0.109,-0.291 -0,-0.436c-0.109,-0.109 -0.291,-0.109 -0.436,-0c-0.109,0.109 -0.109,0.29 -0,0.436c0.109,0.145 0.291,0.145 0.436,-0" style="fill:#231815;fill-rule:nonzero;"/><path d="M13.676,9.651c0.109,-0.109 0.109,-0.291 0,-0.436c-0.109,-0.109 -0.29,-0.109 -0.436,-0c-0.109,0.109 -0.109,0.29 0,0.436c0.146,0.109 0.327,0.109 0.436,-0" style="fill:#231815;fill-rule:nonzero;"/><path d="M12.986,10.159c0.109,-0.109 0.109,-0.29 0,-0.436c-0.109,-0.109 -0.291,-0.109 -0.436,0c-0.109,0.109 -0.109,0.291 0,0.436c0.145,0.109 0.327,0.109 0.436,0" style="fill:#231815;fill-rule:nonzero;"/><path d="M11.097,9.723l0.254,0.509l0.291,-0.363l0.036,-0c0.036,0.181 0.036,0.472 0.036,0.654c0,0.218 0.182,0.363 0.364,0.363c0.218,0 0.363,-0.181 0.363,-0.363c0,-0.146 -0.073,-0.255 -0.218,-0.327c-0.145,-0.109 -0.327,-0.255 -0.436,-0.4l0,-0.036l0.509,0.036l-0.182,-0.545l-0.363,0.327l-0.037,0l-0.036,-0.545l-0.509,0.182l0.364,0.399c-0,0 -0,0.037 -0.037,0.037l-0.399,0.072Z" style="fill:#231815;fill-rule:nonzero;"/><path d="M14.549,10.668c0.109,0.182 0.145,0.255 0.181,0.4c-0.072,-0.036 -0.181,-0.145 -0.29,-0.291l0.072,0.691c0.073,-0.109 0.146,-0.218 0.255,-0.255c-0.037,0.436 -0.218,0.618 -0.364,0.654c-0.181,0.037 -0.327,-0.072 -0.363,-0.218c-0.037,-0.218 0.145,-0.327 0.327,-0.145c0.036,-0.4 -0.291,-0.4 -0.436,-0.218c0.181,-0.4 0.109,-0.654 -0.255,-0.872c-0.218,0.363 -0.145,0.618 0.146,0.908c-0.291,-0.145 -0.509,0.109 -0.291,0.4c0.036,-0.254 0.291,-0.218 0.327,-0c0.036,0.182 -0.145,0.4 -0.436,0.509c-0.436,0.145 -0.545,-0.146 -0.654,-0.364c0.109,-0.072 0.327,-0.036 0.545,0.109l-0.218,-0.69c-0.109,0.254 -0.254,0.327 -0.4,0.4c0,-0.182 0.146,-0.582 0.146,-0.582l-0.8,0.327c0,0 0.364,0.182 0.509,0.327c-0.182,0.073 -0.327,0.109 -0.581,0l0.327,0.618c0.072,-0.291 0.218,-0.436 0.327,-0.472c0.072,0.254 0.181,0.545 -0.218,0.726c-0.291,0.146 -0.545,0.109 -0.654,-0.072c-0.109,-0.182 -0,-0.4 0.254,-0.255c-0.036,-0.399 -0.363,-0.399 -0.472,-0.109c-0,-0.399 -0.109,-0.654 -0.509,-0.763c-0.109,0.4 0.036,0.654 0.436,0.8c-0.218,-0.037 -0.472,0.218 -0.145,0.472c-0,-0.254 0.218,-0.291 0.327,-0.109c0.072,0.109 0.072,0.291 -0.109,0.4c-0.146,0.072 -0.4,0.072 -0.727,-0.218c0.109,-0.037 0.218,-0.037 0.363,-0l-0.436,-0.545c0.037,0.181 0,0.327 -0.036,0.399c-0.109,-0.109 -0.109,-0.181 -0.182,-0.399l-0.327,0.29c0.327,0.182 0.691,0.509 1.127,1.09c0.472,-0.29 1.308,-0.69 1.816,-0.908c0.509,-0.218 1.381,-0.509 1.926,-0.618c-0.109,-0.726 -0.072,-1.199 0.037,-1.562l-0.545,0.145Z" style="fill:#231815;fill-rule:nonzero;"/><path d="M15.493,14.592c-0.399,0.327 -0.981,0.037 -1.199,-0.399c0.582,-0.218 1.236,-0.509 1.672,-0.763c-0.436,0.617 -0.146,0.908 -0.473,1.162m-0.109,4.288c-0.545,0.218 -0.944,-0.254 -1.053,-0.545c-0.109,-0.327 -0.182,-0.581 -0.073,-0.69c0.218,-0.219 0.291,-0.4 0.145,-0.691c-0.145,-0.327 -0.509,-0.182 -0.872,-0.073c0.182,-0.327 0.182,-0.545 -0.036,-0.508c-0.291,0.036 -0.291,0.508 -0.436,0.436c-0.146,-0.037 -0.073,-0.327 -0.073,-0.473c0,-0.181 0.145,-0.254 0.327,-0.363l1.563,-0.581c0.181,-0.073 0.327,-0.109 0.472,0.036c0.109,0.109 0.363,0.218 0.254,0.363c-0.072,0.146 -0.399,-0.181 -0.617,0c-0.182,0.146 -0.037,0.291 0.327,0.4c-0.327,0.182 -0.691,0.327 -0.582,0.654c0.109,0.291 0.255,0.363 0.582,0.363c0.181,0 0.29,0.255 0.436,0.546c0.181,0.327 0.218,0.908 -0.364,1.126m-2.943,-3.089c-0.4,0.037 -0.4,-0.363 -1.126,-0.545c0.508,-0.109 1.162,-0.363 1.744,-0.581c0.109,0.472 -0.073,1.054 -0.618,1.126m8.611,13.735c0.11,-0.327 -0.472,-0.69 -0.545,-1.126c-0.072,-0.473 0,-0.872 -0.545,-1.49c-0.508,-0.581 -2.289,-2.507 -2.834,-3.089c0.146,0 0.436,-0.072 0.763,0.218c0.182,0.182 0.582,0.546 0.909,0.873c0.472,-1.2 1.053,-2.108 1.889,-3.016c0.109,-0.109 0.218,-0.255 0.327,-0.364c-0.291,0.109 -0.763,0.182 -1.054,0.364c-0.036,-0.509 0.037,-0.945 -0.327,-1.272c0.146,-0.727 0,-1.599 -1.598,-2.689c0.835,0.218 1.344,0.945 1.962,0.364c-0.582,-0 -0.582,-1.272 -2.653,-2.29c0.8,0 1.417,1.272 2.326,0.545c-0.872,-0.109 -1.163,-1.635 -2.689,-2.107c0.545,0.073 1.09,0.327 1.562,-0.291c-0.545,0.146 -0.872,-0.363 -1.453,-0.399c0.218,-0.654 0.182,-1.09 -0.073,-1.599c-0.399,0.036 -0.835,0.145 -1.126,0.4c-0.036,-0.364 -0.436,-0.4 -0.763,-0.364c-0,0.146 0.109,0.4 -0.073,0.436c-0.29,0.037 -1.199,0.291 -1.926,0.582c-0.726,0.29 -1.526,0.799 -1.78,0.944c-0.145,0.109 -0.254,-0.145 -0.363,-0.254c-0.255,0.218 -0.509,0.509 -0.327,0.763c-0.4,0.036 -0.836,0.145 -1.199,0.436c-0,0.472 0.399,0.908 0.944,1.163c-0.944,0.944 -0.109,1.853 -0.944,2.652c1.199,0.037 0.981,-1.599 1.598,-1.853c-0.072,1.163 -0.726,1.381 -0.726,2.616c-0,0.654 0.399,1.381 0.036,1.853c0.981,-0.29 0.727,-2.47 1.344,-3.124c0.109,0.363 0.037,0.726 -0.072,1.126c-0.364,1.017 0.036,2.434 -0.509,2.87c1.017,-0.109 1.126,-1.744 1.962,-2.325c-0.727,1.453 -1.453,4.578 -2.507,6.141c-1.744,2.325 -2.761,5.195 -4.324,5.195c-0.69,0 -1.235,-0.436 -1.235,-1.308c-0,-2.652 4.542,-4.469 4.542,-7.303c-0,-1.272 -1.018,-1.744 -1.672,-1.744c-0.436,-0 -0.945,0.218 -1.381,0.581c-0.181,-0.072 -0.363,-0.109 -0.545,-0.109c-1.598,0 -1.199,2.907 -2.579,2.871c0.545,0.327 1.526,-0.291 2.071,-1.09c-0.218,1.889 -2.943,1.381 -2.725,3.633c0.363,-1.78 4.687,-1.489 4.687,-4.178c-0,-0.291 -0.145,-0.545 -0.364,-0.763c0.328,-0.218 0.618,-0.291 0.909,-0.291c0.509,0 0.981,0.4 0.981,1.126c-0,2.362 -4.542,4.361 -4.542,7.267c0,0.509 0.145,0.909 0.363,1.236c-0.327,0.145 -0.654,0.072 -0.908,-0.255c-0.036,0.764 1.054,1.236 1.708,0.836c0.145,0.037 0.29,0.073 0.472,0.109c-0.218,0.545 -0.908,0.727 -1.272,0.691c1.127,0.872 3.053,-0.291 2.944,-1.272c0.872,-0.727 1.453,-1.926 2.071,-2.725c-0.037,0.181 -0.073,0.363 -0.109,0.545c-0.654,1.162 -1.272,2.253 -1.417,3.779c-0.146,1.308 -0.8,2.47 -1.708,2.47c-0.218,0 -0.545,-0.254 -0.691,-0.145c-0.29,0.254 0,0.509 0,0.727c0,0.363 -0.726,0.726 -0.726,1.889c-0,0.509 0.29,1.127 0.181,1.454c0.291,-0.146 0.691,-0.654 0.836,-1.272c0.327,1.526 -0.654,1.453 0.036,2.798c0.073,-0.436 0.545,-0.618 0.8,-0.436c0.254,0.181 0.145,0.327 -0.073,0.508c-0.218,0.182 -0.4,1.199 0.545,1.127c-0.181,-0.109 -0.181,-0.364 0.255,-0.473c0.617,-0.109 0.799,0.146 1.489,0.146c0.4,-0 0.545,-0.545 0.872,-0.545c0.327,-0 0.327,0.254 0.218,0.436c0.545,-0.146 0.618,-0.436 0.618,-0.727c0,-0.291 -0.254,-0.472 -0.073,-0.581c0.182,-0.109 0.8,-0 0.545,0.508c0.327,-0.072 0.473,-0.29 0.473,-0.654c-0,-0.363 -0.436,-0.617 -0.872,-0.545c-0.073,-0.254 -0.436,-0.363 -0.763,-0.363c-0.727,-0 -0.618,0.581 -1.127,0.581c-0.799,0 -1.598,-1.053 -1.598,-2.834c-0,-0.945 1.017,-1.199 1.744,-1.526c0.726,-0.327 1.998,-1.09 2.761,-2.398c0.618,-1.017 0.618,-2.108 0.545,-3.416c1.017,0.582 1.163,1.417 1.163,2.035c-0,0.8 -0.4,1.127 -0.727,1.272c-0.291,0.145 -0.363,0.073 -0.4,0.254c-0.036,0.218 0.109,0.327 0.218,0.4c0.364,0.182 0.291,0.545 0.4,0.945c0.109,0.399 0.436,0.981 1.018,1.417c0.072,-0.255 0.036,-0.618 -0,-1.127c0.799,0.4 0.145,1.962 1.671,1.962c-0.291,-0.145 -0.218,-0.581 -0.036,-0.617c0.145,-0.073 0.363,0.109 0.654,0.508c0.29,0.4 0.218,0.364 0.944,0.364c0.727,-0 0.4,-0.255 0.763,-0.255c0.4,0 0.364,0.436 0.146,0.763c0.654,-0.181 0.835,-0.69 0.617,-1.199c0.582,-0.29 0.872,0.146 0.945,0.436c0.545,-0.545 0,-1.235 -0.436,-1.271c0,-0.218 -0.182,-0.436 -0.4,-0.436c-0.218,-0 -0.472,-0.037 -0.726,-0c-0.255,-0 -0.4,0.399 -0.727,0.399c-0.945,0 -2.87,-1.744 -2.87,-2.507c-0,-0.763 1.816,-1.199 1.816,-2.362c0,-1.526 -1.489,-2.034 -2.761,-3.015c0.436,-0.509 1.78,-0.618 2.507,-0.255c0.073,-0.436 0.363,-0.327 0.472,-1.053c0.255,0.654 0,1.199 0.255,1.489c0.218,-0.327 0.763,-0.254 0.726,-1.053c0.182,0.508 -0.218,1.271 0.182,1.598c0.073,-0.399 0.327,-0.472 0.472,-0.472c0.146,-0 0.291,0.109 0.291,0.363c0,0.618 -0.763,0.327 -0.763,1.018c0,0.29 0.363,0.399 0.363,0.581c0,0.182 -0.29,0.472 -0.654,0.218c0.109,0.254 0.364,0.509 0.691,0.509c0.327,-0 0.69,-0.255 0.835,-0.618c0.182,0.436 0.037,0.908 -0.29,0.981c0.327,0.182 1.126,0 1.017,-1.017c0.436,0.072 0.69,0.363 0.4,0.908c0.363,-0.073 0.69,-0.254 0.69,-0.654c0.218,-0.291 -0.109,-0.363 0.036,-0.763" style="fill:#231815;fill-rule:nonzero;"/><path d="M50.375,36.829c-0,-0.508 0.436,-0.944 0.945,-0.944c0.508,-0 0.944,0.436 0.944,0.944c0,0.509 -0.436,0.945 -0.944,0.945c-0.509,0.036 -0.945,-0.4 -0.945,-0.945m-0.327,0c-0,0.691 0.581,1.272 1.272,1.272c0.69,0 1.271,-0.581 1.271,-1.272c0,-0.69 -0.581,-1.271 -1.271,-1.271c-0.691,-0 -1.272,0.581 -1.272,1.271" style="fill:#231815;fill-rule:nonzero;"/><path d="M45.869,39.155c-0.363,-0.073 -0.617,-0.327 -0.581,-0.618c0.036,-0.145 0.109,-0.218 0.182,-0.254c0.145,-0.109 0.363,-0.146 0.581,-0.109c0.327,0.072 0.581,0.291 0.581,0.545l0,0.073c-0.072,0.254 -0.399,0.436 -0.763,0.363m-0.581,-1.127c-0.182,0.109 -0.291,0.291 -0.327,0.473c-0.036,0.218 0.036,0.436 0.182,0.654c0.145,0.182 0.399,0.291 0.654,0.363c0.254,0.037 0.508,0 0.726,-0.109c0.218,-0.109 0.364,-0.29 0.4,-0.545c0.073,-0.436 -0.291,-0.872 -0.836,-0.981c-0.29,-0.073 -0.581,-0.036 -0.799,0.145" style="fill:#231815;fill-rule:nonzero;"/><path d="M38.166,20.806c0,-0.182 0.109,-0.364 0.255,-0.473c0.145,-0.109 0.327,-0.181 0.472,-0.145c0.073,-0 0.182,0.036 0.254,0.145c0.073,0.073 0.073,0.182 0.073,0.255c-0.036,0.145 -0.109,0.327 -0.254,0.436c-0.255,0.181 -0.582,0.218 -0.727,0.036c-0.036,-0.109 -0.073,-0.182 -0.073,-0.254m0.073,-0.727c-0.4,0.327 -0.509,0.836 -0.254,1.163c0.254,0.327 0.799,0.327 1.199,0.036c0.218,-0.182 0.363,-0.4 0.399,-0.654c0.037,-0.182 -0.036,-0.363 -0.145,-0.509c-0.109,-0.145 -0.254,-0.218 -0.472,-0.254c-0.255,-0.036 -0.509,0.036 -0.727,0.218" style="fill:#231815;fill-rule:nonzero;"/><path d="M44.271,37.338c-0.146,0 -0.218,-0.073 -0.291,-0.145c-0.109,-0.146 -0.182,-0.327 -0.182,-0.545c0,-0.218 0.073,-0.4 0.218,-0.545c0.073,-0.073 0.146,-0.146 0.291,-0.146c0.254,0 0.472,0.327 0.472,0.691c0,0.218 -0.072,0.399 -0.218,0.545c-0.036,0.072 -0.145,0.145 -0.29,0.145m-0.473,-1.453c-0.181,0.181 -0.29,0.472 -0.327,0.763l0,0.036c0,0.291 0.109,0.581 0.291,0.763c0.145,0.145 0.327,0.218 0.509,0.218c0.181,0 0.363,-0.073 0.508,-0.218c0.182,-0.182 0.291,-0.472 0.327,-0.763c0,-0.254 -0.072,-0.509 -0.218,-0.69c-0.145,-0.218 -0.363,-0.327 -0.581,-0.327c-0.182,-0 -0.363,0.072 -0.509,0.218" style="fill:#231815;fill-rule:nonzero;"/><path d="M37.767,26.801c-0.327,-0.145 -0.509,-0.472 -0.4,-0.727c0.073,-0.109 0.145,-0.181 0.254,-0.218c0.182,-0.072 0.364,-0.036 0.582,0.037c0.181,0.109 0.327,0.254 0.399,0.399c0.037,0.073 0.037,0.218 0,0.327c-0.072,0.109 -0.181,0.182 -0.254,0.218c-0.182,0.073 -0.363,0.073 -0.581,-0.036m-0.255,-1.235c-0.181,0.072 -0.363,0.218 -0.436,0.363c-0.181,0.4 0.037,0.945 0.545,1.163c0.291,0.145 0.582,0.145 0.836,0.072c0.182,-0.072 0.363,-0.181 0.436,-0.363c0.073,-0.182 0.073,-0.363 0.036,-0.581c-0.072,-0.255 -0.29,-0.473 -0.581,-0.618c-0.291,-0.109 -0.581,-0.145 -0.836,-0.036" style="fill:#231815;fill-rule:nonzero;"/><path d="M46.778,31.379c-0.218,0.291 -0.582,0.4 -0.8,0.218c-0.218,-0.182 -0.254,-0.545 -0.036,-0.836c0.218,-0.29 0.581,-0.399 0.799,-0.254c0.255,0.218 0.255,0.581 0.037,0.872m-1.49,2.398c-0.218,0.291 -0.581,0.4 -0.799,0.255c-0.218,-0.182 -0.255,-0.545 -0.037,-0.836c0.218,-0.291 0.582,-0.4 0.8,-0.254c0.218,0.145 0.254,0.508 0.036,0.835m-5.16,-13.044c0.182,-0.545 0.509,-1.671 0.509,-1.671l0.581,0.218c-0.181,0.072 -0.363,0.218 -0.545,0.399c0.146,0.073 0.364,0.073 0.509,-0.036l-0.218,0.581c-0.036,-0.109 -0.218,-0.29 -0.363,-0.327c-0.109,0.473 0.181,0.654 0.399,0.763c0.364,0.182 0.582,0.218 0.691,0.037c0.109,-0.218 -0.109,-0.473 -0.436,-0.364c-0.037,-0.29 0.145,-0.472 0.327,-0.472c0.145,-0 0.29,0.145 0.327,0.327c-0.037,-0.509 0.218,-0.872 0.654,-1.017c0.182,0.472 0.036,0.799 -0.327,1.162c0.182,-0.072 0.4,-0.072 0.509,0.073c0.109,0.182 0.072,0.4 -0.182,0.545c-0.073,-0.327 -0.436,-0.327 -0.545,-0.145c-0.109,0.218 0.036,0.399 0.363,0.581c0.364,0.218 0.691,0.073 0.872,-0.254c-0.109,-0.037 -0.327,-0 -0.545,0.109l0.4,-0.727c0.036,0.109 0.073,0.291 0.254,0.436c0.073,-0.145 0.146,-0.436 0.037,-0.69l0.835,0.472c-0.29,0.036 -0.472,0.254 -0.581,0.363c0.218,0.073 0.4,0.037 0.472,0l-0.436,0.691c0,-0.255 -0.072,-0.436 -0.181,-0.509c-0.182,0.327 -0.146,0.654 0.218,0.872c0.327,0.182 0.581,0.218 0.69,0.036c0.109,-0.181 -0.073,-0.508 -0.4,-0.399c0,-0.291 0.182,-0.473 0.364,-0.436c0.145,-0 0.29,0.181 0.327,0.399c0.109,-0.472 0.327,-0.763 0.835,-0.872c0.109,0.473 -0.109,0.836 -0.545,1.09c0.182,-0.072 0.4,-0.036 0.473,0.109c0.109,0.182 0.036,0.4 -0.218,0.545c-0.037,-0.327 -0.4,-0.399 -0.509,-0.181c-0.109,0.181 0.036,0.363 0.4,0.581c0.218,0.145 0.508,0.291 0.835,-0.036c-0.109,-0.146 -0.363,-0.146 -0.472,-0.146l0.4,-0.508c-0,0.181 0.109,0.399 0.218,0.472c0.072,-0.254 0.109,-0.509 0.072,-0.69l0.473,0.399c-0,0 -0.8,0.836 -1.163,1.272l-5.378,-3.052Zm6.25,7.122c0,-0.073 0.036,-0.218 0.109,-0.291c0.109,-0.073 0.218,-0.109 0.291,-0.109c0.181,-0 0.363,0.109 0.508,0.254c0.146,0.146 0.218,0.364 0.218,0.545c0,0.073 -0.036,0.182 -0.109,0.291c-0.109,0.073 -0.218,0.109 -0.29,0.109c-0.182,0 -0.364,-0.109 -0.509,-0.254c-0.145,-0.182 -0.218,-0.4 -0.218,-0.545m2.289,10.537c0.036,-0.182 0.145,-0.364 0.327,-0.473c0.182,-0.109 0.4,-0.181 0.582,-0.145c0.072,0.036 0.181,0.073 0.254,0.182c0.073,0.109 0.073,0.218 0.036,0.327c-0.036,0.182 -0.145,0.363 -0.327,0.472c-0.327,0.218 -0.69,0.182 -0.836,-0.036c-0.072,-0.145 -0.036,-0.254 -0.036,-0.327m-10.9,-15.879c-0,0.182 -0.073,0.364 -0.182,0.436c-0.036,0.037 -0.145,0.109 -0.254,0.109c-0.218,0 -0.4,-0.254 -0.4,-0.545l-0,-0.036c-0,-0.182 0.073,-0.363 0.182,-0.436c0.036,-0.036 0.145,-0.109 0.254,-0.109c0.109,0 0.182,0.073 0.218,0.109c0.145,0.109 0.182,0.291 0.182,0.472m3.379,-6.94c0.181,-0.327 -0,-0.872 0.617,-0.872c0.291,0 0.582,0.291 0.945,0.436c-0.581,0.037 -1.126,0.182 -1.562,0.436m9.81,8.684c0.4,1.127 1.236,1.563 1.89,1.272c-1.417,-0.181 -0.255,-2.58 -2.071,-2.58c-0.109,0 -0.218,0 -0.291,0.037c-0.327,-0.327 -0.654,-0.473 -1.199,-0.473c-0.763,0 -2.108,0.727 -2.108,2.29c0,3.306 3.852,3.597 3.852,6.503c-0,0.873 -0.654,1.381 -1.381,1.381c-0.654,0 -1.163,-0.726 -1.708,-1.853c-0.254,-0.545 -0.799,-1.272 -1.417,-2.035c0.182,0.109 0.364,0.182 0.582,0.182c0.218,0 0.399,-0.073 0.545,-0.182c0.145,-0.145 0.218,-0.327 0.218,-0.508l-0,-0.037c-0,-0.254 -0.109,-0.545 -0.327,-0.726c-0.218,-0.218 -0.473,-0.364 -0.763,-0.364c-0.218,0 -0.4,0.073 -0.545,0.182c-0.146,0.145 -0.218,0.327 -0.218,0.509l-0,0.036c-0,0.109 0.036,0.218 0.072,0.327c-0.835,-1.09 -1.598,-2.144 -1.598,-2.725c-0,-0.509 0.363,-0.945 0.799,-1.49c0.036,0 0.145,0.073 0.145,0.073l0.109,-0.146c0.146,-0.181 0.473,-0.508 1.127,-1.235l0.036,-0.036l0.145,-0.182l-0.399,-0.327c0.109,-0.254 0.218,-0.509 0.29,-0.799c0.146,0.545 0.4,0.872 0.763,0.763c-0.254,-0.545 0.255,-1.272 -0.072,-2.616c0.327,0.508 0.763,0.799 1.09,0.69c-0.836,-0.763 0.254,-1.817 -0.836,-3.416c0.363,0.109 0.618,0.037 0.763,-0.145c-1.017,-0.145 -0.545,-1.417 -2.325,-1.889c0.436,-0.073 0.69,-0.327 0.617,-0.582c-0.472,0.327 -0.872,-0.617 -2.398,-0.617c-0.109,-0.582 -0.617,-1.163 -1.235,-1.454c0.109,0.436 -0,0.836 -0.109,1.163l-5.014,-4.905c-0.146,-0.146 -0.218,-0.182 -0.255,-0.109c-0.036,0.036 -0.036,0.145 0.073,0.254l4.288,5.378c-0.328,0.109 -0.655,0.254 -0.982,0.363c-0.218,0.073 -0.363,0.291 -0.363,0.545c-0.799,0.4 -1.49,0.872 -1.853,1.199c-0.254,0.254 -0.472,0.291 -0.254,0.836c0.072,0.218 -0.182,0.726 0.436,0.327c0.399,-0.255 1.344,-0.763 1.453,-0.436c0.073,0.181 -0.4,0.399 -0.69,0.508c-0.327,0.109 -0.654,0.364 -0.618,0.473c0.036,0.109 0.291,-0 0.327,0.109c0,0.145 0.109,0.254 0.254,0.254c0.109,0 0.291,-0.254 0.4,-0.181c0.109,0.072 -0.036,0.69 -0.145,0.835c0.472,-0.072 0.799,-0.508 0.799,-0.872c0,-0.363 0.109,-0.436 0.182,-0.509c0.072,-0.036 0.145,0.4 0.072,0.655c0.255,-0.037 0.509,-0.4 0.473,-1.018c0.145,-0.109 0.254,-0.182 0.363,-0.182c0.146,0 0.473,0.436 0.945,0.436c0.836,0 1.308,-0.69 1.381,-1.017c0.036,-0.254 0.036,-0.509 -0.109,-0.69c0.29,0.254 0.399,0.617 0.399,0.908c0,1.199 -2.143,1.781 -3.016,2.616c-0.036,0.037 -0.072,0.073 -0.109,0.073l-1.017,-0.4l-0.073,0.218c0,0 0,0.037 -0.072,0.182c-0.109,0.327 -0.327,1.054 -0.473,1.453l-0.036,0.146l0.073,0.036c-0.582,0.799 -1.054,1.671 -1.163,2.58c-0.254,-0.255 -0.472,-0.436 -0.727,-0.654c0.037,-0.073 0.037,-0.182 0.037,-0.291c-0,-0.254 -0.073,-0.509 -0.218,-0.69c-0.109,-0.146 -0.291,-0.218 -0.473,-0.218c-0.181,-0 -0.363,0.036 -0.472,0.181c-0.036,0.037 -0.073,0.073 -0.073,0.109c-0.036,-0.036 -0.072,-0.072 -0.109,-0.072c-0.327,-0.255 -0.726,-0.545 -0.981,-0.836c-0.109,-0.109 -0.218,-0.182 -0.436,-0.182l-0.436,0c-0.145,0 -0.218,0.109 -0.4,0.255c-0.072,0.072 -0.327,0.254 -0.581,0.436c0.109,0.109 0.254,0.254 0.363,0.399c0.073,0.073 0.109,0.146 0.182,0.218c0.073,-0.036 0.145,-0.109 0.182,-0.145c0.109,-0.073 0.254,-0.109 0.363,-0.109c0.146,0 0.327,0.109 0.436,0.291c0.073,0.145 0.909,1.199 1.563,1.925c-0.073,0.037 -0.146,0.037 -0.218,0.073c-0.291,0.109 -0.945,0.109 -1.236,0.073c-0.29,-0.037 -0.327,-0.109 -0.545,0.218c-0.073,0.109 -0.182,0.254 -0.254,0.363c-0.109,0.109 -0.182,0.255 0.036,0.582c0.291,0.508 1.018,1.816 1.272,2.398c0.254,0.581 0.545,0.69 0.981,0.872c0.472,0.181 1.272,0.654 1.344,0.763l0.037,-0.436c-0.146,-0.146 -0.582,-0.291 -0.763,-0.364c-0.182,-0.072 -0.218,-0.145 -0,-0.145c0.181,0 0.763,0.218 1.162,0.363c-0.109,-0.436 -0.545,-0.944 -0.799,-1.199c-0.327,-0.109 -0.69,-0.109 -0.799,0c-0,0.109 -0.037,0.218 -0.182,0.218c-0.145,0 -0.218,-0.109 -0.182,-0.218c0.037,-0.145 0.255,-0.181 0.182,-0.436c-0.036,-0.254 -0.363,-0.29 -0.545,-0.327c-0.291,-0.399 -0.618,-1.017 -0.763,-1.271c-0.145,-0.255 -0.073,-0.4 0.036,-0.473c0.255,-0.181 0.763,0.109 1.781,0.182c0.363,0.036 0.799,0.036 1.271,0.073c0.146,1.162 0.618,2.289 2.253,2.725c0.799,0.181 1.635,0.799 1.926,1.562c-3.27,-0.073 -3.815,1.235 -3.815,2.435c-0,1.38 1.162,1.308 1.162,2.325c0,0.908 -2.761,1.272 -3.597,1.381c-0.69,0.109 -1.126,0.254 -1.453,0.617c-0.327,0.327 -0.691,0.654 -1.308,1.272c-0,0 0.254,0.073 0.508,0.036l0.473,-0.617c0.145,-0.218 0.218,-0.364 0.327,-0.364c0.109,0 0.036,0.182 -0.073,0.4l-0.4,0.654c1.636,0.109 1.708,-0.509 1.708,-0.727c0,-0.254 -0.399,-0.399 -0.181,-0.581c0.218,-0.145 0.436,-0.036 0.617,0.182c0.182,0.218 0.255,0.399 0.691,0.218c-0,-0 3.524,-1.454 3.96,-1.672c0.4,-0.181 0.291,-0.363 0.036,-0.545c-0.254,-0.218 -0.29,-0.581 -0.29,-0.944c-0,-1.054 0.654,-1.417 1.78,-1.381c-0.036,0.182 -0.036,0.363 -0.036,0.509c-0,1.671 2.507,3.306 3.197,3.306c0.291,0 0.727,-0.218 0.727,0.763c0.036,0.727 0.182,1.272 0.036,2.108c-0.145,0.835 -0.363,0.981 -0.908,1.344c-0.509,0.363 -0.981,1.49 -1.199,1.708c0.218,0.145 0.472,0.181 0.654,-0.364c0.145,-0.472 0.327,-0.763 0.545,-0.872c-0.182,0.509 -0.363,1.236 -0.436,1.454c0.654,0.109 1.671,-0.473 1.671,-0.945c0,-0.436 -0.363,-0.4 -0.363,-0.727c0,-0.145 0.145,-0.29 0.363,-0.29c0.255,-0 0.473,0.218 0.473,0.29c0.29,-0.145 0.472,-0.436 0.472,-1.09c0,-0.254 0,-0.545 -0.036,-0.799c-0,0.036 0.036,0.073 0.072,0.109c0.109,0.182 0.327,0.291 0.582,0.327c0.218,0.036 0.472,-0.036 0.69,-0.182c0.255,-0.181 0.436,-0.399 0.473,-0.69c-0,-0.037 0.036,-0.109 0.036,-0.146c-0,-0.145 -0.036,-0.29 -0.109,-0.399c-0.109,-0.146 -0.291,-0.255 -0.472,-0.327c-0.255,-0.073 -0.545,-0 -0.8,0.181c-0.218,0.146 -0.4,0.364 -0.472,0.618c-0.037,-0.908 -0.109,-1.78 -0.109,-2.107c0.036,-0.509 0.072,-0.727 -0.109,-0.8c-0.182,-0.072 -0.364,0.218 -0.618,0.218c-0.254,0 -0.981,-0.69 -0.981,-1.417c0,-0.726 0.763,-1.635 0.727,-2.652c-0,-0.291 0.181,-0.473 0.29,-0.182c0.146,0.327 0.364,0.8 0.691,1.163c-0.218,1.235 1.163,2.434 2.289,1.562c-0.545,0.073 -0.945,-0.399 -1.199,-0.908c0.109,-0 0.182,0.036 0.291,0.036l0.181,0c0.4,0.473 1.635,0.436 1.962,-0.763c-0.218,0.255 -0.654,0.436 -0.981,0.4c0.473,-0.363 0.727,-0.981 0.727,-1.599c-0,-3.161 -3.815,-3.524 -3.815,-6.358c-0,-1.054 0.944,-1.745 1.562,-1.745c0.255,0 0.436,0.073 0.582,0.182c-0.255,0.254 -0.364,0.618 -0.364,1.09c0.109,2.253 3.779,2.144 3.852,3.234c0.654,-1.526 -2.108,-1.017 -2.217,-3.198" style="fill:#231815;fill-rule:nonzero;"/></g></svg>